<?xml version="1.0" encoding="UTF-8" standalone="no"?>
<!-- Created with Inkscape (http://www.inkscape.org/) -->
<svg
   xmlns:dc="http://purl.org/dc/elements/1.1/"
   xmlns:cc="http://creativecommons.org/ns#"
   xmlns:rdf="http://www.w3.org/1999/02/22-rdf-syntax-ns#"
   xmlns:svg="http://www.w3.org/2000/svg"
   xmlns="http://www.w3.org/2000/svg"
   xmlns:sodipodi="http://sodipodi.sourceforge.net/DTD/sodipodi-0.dtd"
   xmlns:inkscape="http://www.inkscape.org/namespaces/inkscape"
   width="708.20111"
   height="674.04926"
   id="svg2"
   sodipodi:version="0.32"
   inkscape:version="0.46"
   version="1.0"
   sodipodi:docname="Emblem_of_CIS.svg"
   inkscape:output_extension="org.inkscape.output.svg.inkscape">
  <defs
     id="defs4">
    <inkscape:perspective
       sodipodi:type="inkscape:persp3d"
       inkscape:vp_x="0 : 526.18109 : 1"
       inkscape:vp_y="0 : 1000 : 0"
       inkscape:vp_z="744.09448 : 526.18109 : 1"
       inkscape:persp3d-origin="372.04724 : 350.78739 : 1"
       id="perspective10" />
    <inkscape:perspective
       id="perspective2390"
       inkscape:persp3d-origin="372.04724 : 350.78739 : 1"
       inkscape:vp_z="744.09448 : 526.18109 : 1"
       inkscape:vp_y="0 : 1000 : 0"
       inkscape:vp_x="0 : 526.18109 : 1"
       sodipodi:type="inkscape:persp3d" />
    <inkscape:perspective
       id="perspective4705"
       inkscape:persp3d-origin="500 : 166.66667 : 1"
       inkscape:vp_z="1000 : 250 : 1"
       inkscape:vp_y="0 : 1000 : 0"
       inkscape:vp_x="0 : 250 : 1"
       sodipodi:type="inkscape:persp3d" />
    <inkscape:perspective
       id="perspective2396"
       inkscape:persp3d-origin="372.04724 : 350.78739 : 1"
       inkscape:vp_z="744.09448 : 526.18109 : 1"
       inkscape:vp_y="0 : 1000 : 0"
       inkscape:vp_x="0 : 526.18109 : 1"
       sodipodi:type="inkscape:persp3d" />
  </defs>
  <sodipodi:namedview
     id="base"
     pagecolor="#ffffff"
     bordercolor="#666666"
     borderopacity="1.0"
     gridtolerance="10000"
     guidetolerance="10"
     objecttolerance="10"
     inkscape:pageopacity="0.0"
     inkscape:pageshadow="2"
     inkscape:zoom="1.17"
     inkscape:cx="359.59837"
     inkscape:cy="322.50223"
     inkscape:document-units="px"
     inkscape:current-layer="layer1"
     showgrid="false"
     showguides="true"
     inkscape:guide-bbox="true"
     inkscape:window-width="1680"
     inkscape:window-height="1000"
     inkscape:window-x="-8"
     inkscape:window-y="-8" />
  <metadata
     id="metadata7">
    <rdf:RDF>
      <cc:Work
         rdf:about="">
        <dc:format>image/svg+xml</dc:format>
        <dc:type
           rdf:resource="http://purl.org/dc/dcmitype/StillImage" />
      </cc:Work>
    </rdf:RDF>
  </metadata>
  <g
     inkscape:label="Layer 1"
     inkscape:groupmode="layer"
     id="layer1"
     transform="translate(-44.628215,-145.63247)">
    <path
       sodipodi:type="arc"
       style="opacity:1;fill:none;fill-opacity:1;stroke:#59b0dd;stroke-opacity:1"
       id="path2396"
       sodipodi:cx="371.42856"
       sodipodi:cy="502.36218"
       sodipodi:rx="231.42857"
       sodipodi:ry="218.57143"
       d="M 602.85713,502.36218 A 231.42857,218.57143 0 1 1 139.99998,502.36218 A 231.42857,218.57143 0 1 1 602.85713,502.36218 z"
       transform="matrix(1.526753,0,0,1.5384369,-168.35089,-290.19541)" />
    <path
       sodipodi:type="arc"
       style="opacity:1;fill:none;fill-opacity:1;stroke:#a098bf;stroke-opacity:1"
       id="path4604"
       sodipodi:cx="386.92996"
       sodipodi:cy="503.59131"
       sodipodi:rx="241.83124"
       sodipodi:ry="239.97099"
       d="M 628.7612,503.59131 A 241.83124,239.97099 0 1 1 145.09872,503.59131 A 241.83124,239.97099 0 1 1 628.7612,503.59131 z"
       transform="matrix(1.3837383,0,0,1.3167929,-136.99775,-183.06604)" />
    <path
       style="opacity:1;fill:#c3c3c2;fill-opacity:1;stroke:#a098bf;stroke-width:1.91808617;stroke-opacity:1"
       d="M 342.63664,812.67002 C 298.56707,805.29976 268.70619,795.48113 230.50271,775.7989 C 177.77502,748.63388 127.69869,703.3556 98.604442,656.53841 C 72.03648,613.78639 58.383055,577.24578 50.460758,527.69175 C 46.083845,500.31371 47.446635,447.74826 53.243203,420.37132 C 83.161159,279.07016 195.79127,175.92495 346.26716,152.0237 C 372.03034,147.9316 425.44935,147.98462 451.7038,152.12842 C 605.80659,176.45084 722.19737,286.8535 745.88562,431.17498 C 760.16963,518.20011 736.07166,612.6806 682.46867,679.81351 C 622.33416,755.12676 545.73449,799.03718 449.27531,813.49067 C 421.39375,817.66848 370.16672,817.27426 342.63664,812.67005 L 342.63664,812.67002 z M 451.7038,793.38007 C 562.83925,774.68645 656.08313,708.3916 701.68611,615.64661 C 724.44852,569.35365 733.26874,531.48077 733.26874,480.03566 C 733.26855,462.96726 732.15397,442.45609 730.79168,434.45527 C 707.00764,294.78455 598.57572,191.03245 450.75539,166.50469 C 430.78927,163.19176 366.209,163.21261 346.43029,166.53839 C 306.63709,173.2296 274.08178,183.74872 239.47277,201.09797 C 149.1345,246.38386 85.091116,330.43942 67.259737,427.12406 C 62.65109,452.1127 62.659474,508.00096 67.275537,533.04033 C 85.257221,630.58002 149.16183,713.8379 241.44281,759.95339 C 278.71154,778.57775 316.30613,789.85575 358.75962,795.1474 C 376.21757,797.32349 434.89268,796.20774 451.7038,793.38002 L 451.7038,793.38007 z"
       id="path4610" />
    <path
       sodipodi:type="arc"
       style="opacity:1;fill:#2e3e88;fill-opacity:1;stroke:#a098bf;stroke-opacity:1"
       id="path4614"
       sodipodi:cx="421.34442"
       sodipodi:cy="485.91904"
       sodipodi:rx="246.48183"
       sodipodi:ry="227.87943"
       d="M 667.82625,485.91904 A 246.48183,227.87943 0 1 1 174.86259,485.91904 A 246.48183,227.87943 0 1 1 667.82625,485.91904 z"
       transform="matrix(1.2922999,0,0,1.3259319,-145.77484,-164.77592)" />
    <g
       id="g4708"
       transform="matrix(1.309653,0,0,1.2662482,829.84342,-274.44268)">
      <path
         id="path2321"
         style="fill:#f8c400;fill-opacity:1;fill-rule:nonzero;stroke:none;stroke-width:5;stroke-linecap:round;stroke-linejoin:miter;stroke-miterlimit:4;stroke-dasharray:none;stroke-dashoffset:0.99999998;stroke-opacity:1"
         d="M -296.11473,509.96337 C -296.11473,527.96868 -310.71093,542.56488 -328.71623,542.56488 C -346.72154,542.56488 -361.31773,527.96868 -361.31773,509.96337 C -361.31773,491.95806 -346.72154,477.36187 -328.71623,477.36187 C -310.71093,477.36187 -296.11473,491.95806 -296.11473,509.96337 z" />
      <path
         id="path2361"
         style="fill:#ffffff;fill-opacity:1;fill-rule:nonzero;stroke:none;stroke-width:1;stroke-linecap:round;stroke-linejoin:miter;stroke-miterlimit:4;stroke-dashoffset:0.99999998;stroke-opacity:1"
         d="M -380.05542,393.50398 C -435.05224,394.53559 -491.67509,526.71919 -359.52274,593.73677 L -359.52274,780.96031 L -342.67341,780.96031 L -342.67341,589.77914 C -356.62783,585.2016 -404.46737,554.32618 -404.46737,513.87876 C -404.46737,496.95816 -393.89867,469.06139 -373.74672,456.19918 C -361.41637,448.3292 -349.29559,440.20939 -349.29559,423.59767 C -349.29559,406.98596 -362.77757,393.50398 -379.38929,393.50398 C -379.60489,393.50398 -379.83975,393.49993 -380.05542,393.50398 z M -276.29488,393.50398 C -292.45841,394.01646 -305.40895,407.31041 -305.40895,423.59767 C -305.40895,440.20939 -293.28818,448.3292 -280.95783,456.19918 C -260.80588,469.06139 -250.23718,496.95816 -250.23718,513.87876 C -250.23718,554.32618 -298.07672,585.2016 -312.03113,589.77914 L -312.03113,780.96031 L -295.18181,780.96031 L -295.18181,593.73677 C -162.51123,526.45637 -220.11866,393.50398 -275.31526,393.50398 C -275.63971,393.50398 -275.9729,393.49377 -276.29488,393.50398 z M -467.51523,440.52538 C -482.21655,441.15814 -492.24065,451.92877 -492.24065,468.73822 C -492.24065,499.93391 -438.13796,581.9816 -382.60242,602.5141 L -382.60242,780.96031 L -365.79226,780.96031 L -365.79226,594.99068 C -396.32409,577.9385 -421.38323,555.93592 -433.30716,530.37544 C -444.61182,506.14244 -444.78822,489.09831 -444.78822,480.18009 C -444.7882,468.11411 -443.73024,469.09739 -443.73024,461.4499 C -443.73024,442.16143 -460.40229,440.52538 -467.16257,440.52538 C -467.2789,440.5291 -467.39947,440.5204 -467.51523,440.52538 z M -188.71752,440.52538 C -196.05775,440.73982 -210.97432,443.21627 -210.97432,461.4499 C -210.97432,469.09739 -209.91635,468.11411 -209.91633,480.18009 C -209.91633,489.09831 -210.09273,506.14244 -221.39739,530.37544 C -233.32132,555.93592 -258.38046,577.9385 -288.91229,594.99068 L -288.91229,780.96031 L -272.10214,780.96031 L -272.10214,602.5141 C -216.56659,581.9816 -162.4639,499.93391 -162.4639,468.73822 C -162.4639,451.79641 -172.65107,441.00216 -187.54198,440.52538 C -187.91169,440.52538 -188.29287,440.51298 -188.71752,440.52538 z M -505.44582,487.86025 C -513.53565,488.27063 -521.08044,494.36718 -521.08044,505.72839 C -521.08044,509.46441 -521.34298,514.67489 -511.24513,527.12312 C -482.59604,562.44058 -419.70142,605.67806 -405.72127,608.78362 L -405.72127,780.96031 L -388.87194,780.96031 L -388.87194,603.768 C -421.2496,589.45581 -467.84479,543.81161 -488.20464,498.75354 C -491.66606,491.09314 -498.74283,487.52023 -505.44582,487.86025 z M -150.98285,487.86025 C -157.13953,488.16405 -163.33687,491.75353 -166.49991,498.75354 C -186.85976,543.81161 -233.45495,589.45581 -265.83262,603.768 L -265.83262,780.96031 L -248.98328,780.96031 L -248.98328,608.78362 C -235.00313,605.67806 -172.10851,562.44058 -143.45942,527.12312 C -133.36157,514.67489 -133.62411,509.46441 -133.62411,505.72839 C -133.62411,493.55566 -142.27056,487.43037 -150.98285,487.86025 z M -525.62584,526.61372 C -533.65658,527.1725 -539.26205,535.7233 -539.26205,540.8377 C -539.26205,558.98588 -456.0819,613.73926 -431.50467,616.30704 L -431.50467,780.96031 L -411.99079,780.96031 L -411.99079,610.03752 C -431.12066,601.65387 -492.3536,557.3577 -510.38307,535.23431 C -515.86217,528.51108 -521.12079,526.30026 -525.62584,526.61372 z M -130.72446,526.61372 C -134.84514,526.89187 -139.49749,529.31495 -144.32148,535.23431 C -162.35095,557.3577 -223.58389,601.65387 -242.71376,610.03752 L -242.71376,780.96031 L -223.19988,780.96031 L -223.19988,616.30704 C -198.62265,613.73926 -115.4425,558.98588 -115.4425,540.8377 C -115.4425,535.38027 -121.82177,526.0128 -130.72446,526.61372 z M -336.40389,590.36691 L -336.40389,780.96031 L -327.35227,780.96031 L -318.30065,780.96031 L -318.30065,590.36691 L -327.35227,590.36691 L -336.40389,590.36691 z" />
    </g>
    <path
       style="opacity:1;fill:#ffffff;fill-opacity:1;stroke:#a098bf;stroke-width:0.85470086000000001;stroke-opacity:1"
       d="M 330.3676,648.6363 C 246.08632,642.25342 172.87658,610.0085 114.45697,553.5394 C 62.974071,503.77542 30.29996,438.30781 22.218977,368.72651 C 19.259541,343.24445 20.629917,304.16823 25.351199,279.41027 C 42.404037,189.98679 98.723755,112.48113 181.2223,64.904709 C 271.13709,13.051384 385.44299,5.2923331 483.7864,44.366718 C 513.48786,56.167863 544.03786,73.98776 569.68384,94.470931 C 582.91059,105.03501 608.0794,129.85958 617.67256,141.80344 C 660.55111,195.18859 683.55008,254.34094 686.75307,319.47609 C 689.34213,372.12336 678.8841,421.79944 655.28846,468.93575 C 639.66863,500.13924 621.11803,525.55645 594.93316,551.6325 C 541.18803,605.15416 468.23145,639.39754 391.05136,647.3277 C 375.51504,648.92405 343.33102,649.61807 330.3676,648.63631 L 330.3676,648.6363 z M 394.89752,634.569 C 445.30307,627.5855 486.38162,613.31813 526.95102,588.70425 C 548.39358,575.69484 566.07487,561.66909 585.52256,542.24205 C 609.83649,517.95408 626.50598,495.27383 641.43957,466.16241 C 670.69469,409.13257 680.18051,344.91379 668.70922,281.54703 C 649.29803,174.32073 568.26205,83.841111 459.31871,47.755102 C 424.44307,36.203025 393.0582,31.228478 354.72658,31.177128 C 331.41418,31.145889 321.6394,31.84906 301.30777,35.019906 C 209.40384,49.352923 127.43649,102.69679 79.139968,179.60548 C 41.286507,239.88438 26.803473,313.25621 38.940874,383.25643 C 57.939712,492.82862 139.53341,584.37451 250.45307,620.56711 C 270.94068,627.25214 296.60769,632.74156 317.54709,634.91658 C 322.48299,635.42928 327.8676,635.99739 329.5129,636.17905 C 337.68427,637.08126 385.2117,635.91094 394.89752,634.56901 L 394.89752,634.569 z"
       id="path2389"
       transform="translate(44.628215,145.63247)" />
  </g>
</svg>
