<?xml version="1.0" encoding="iso-8859-1"?>
<!DOCTYPE svg PUBLIC "-//W3C//DTD SVG 1.0//EN" "http://www.w3.org/TR/2001/REC-SVG-20010904/DTD/svg10.dtd">
<!-- Creator: CorelDRAW -->
<svg xmlns="http://www.w3.org/2000/svg" xmlns:odm="http://product.corel.com/CGS/11/cddns/" xml:space="preserve" width="2480px" height="2008px" style="shape-rendering:geometricPrecision; text-rendering:geometricPrecision; image-rendering:optimizeQuality; fill-rule:evenodd"
     viewBox="0 0 2480 2008">
 <defs>
  <style type="text/css">
   <![CDATA[
    .str4 {stroke:#1F1A17;stroke-width:4}
    .str2 {stroke:#1F1A17;stroke-width:4;stroke-linejoin:round}
    .str3 {stroke:#000000;stroke-width:4}
    .str0 {stroke:#1F1A17;stroke-width:8;stroke-linejoin:round}
    .str1 {stroke:#1F1A17;stroke-width:4;stroke-linejoin:round;stroke-dasharray:4 4}
    .fil4 {fill:none}
    .fil0 {fill:#0093DD}
    .fil12 {fill:#28166F}
    .fil1 {fill:#75C5F0}
    .fil2 {fill:#BAB3D6}
    .fil14 {fill:#002868}
    .fil5 {fill:#0C1C8C}
    .fil13 {fill:#BF0A30}
    .fil11 {fill:#C21108}
    .fil8 {fill:#DE0000}
    .fil7 {fill:#EF2B2D}
    .fil9 {fill:#F0F000}
    .fil10 {fill:#FEFEFE}
    .fil3 {fill:#FF645C}
    .fil6 {fill:#FFFFFF}
   ]]>
  </style>
 </defs>
 <g id="Ebene 1">
  <path class="fil0 str0" d="M561 570l0 -13c1,-1 1,-2 1,-3 1,-2 2,-4 3,-6 0,-3 0,-2 2,-5 0,-3 1,-6 1,-8 -1,-1 -3,-3 -3,-4 -1,-1 -2,-2 -3,-3 0,-1 -3,-3 -4,-4 0,-1 0,-3 -1,-3 0,-2 -5,-9 -5,-9 -1,0 -3,-2 -4,-2 -1,-1 -2,0 -3,-2l-3 0c-1,-2 -2,-3 -4,-3 0,-1 0,-2 0,-3l-2 -1c-1,-1 -3,-4 -4,-5 0,-1 -1,-3 -1,-4l-2 -1 0 -2 -2 -1 0 -2 -1 0c0,-2 -2,-4 -2,-5l0 -2 -2 -2 -2 -3 -3 -2c0,0 -7,-8 -7,-8l1 -2c0,-3 0,-7 2,-9 0,-3 0,-5 0,-7l1 -1 2 -2 1 0 1 -3 2 -1 0 -3c2,-2 2,-3 4,-4 0,-1 3,-8 5,-9 0,-1 0,-3 1,-3 0,0 1,-2 1,-3l1 -2c2,-2 4,-6 6,-8 0,-1 2,-3 3,-4 0,-3 3,-6 4,-9l0 -1c0,-1 2,-3 2,-4 0,-1 2,-4 3,-5l3 0 1 -3 1 -1c2,0 3,-1 5,-1l1 -1c-1,0 1,-2 1,-3 0,-2 1,-6 1,-10l2 -2 1 0c1,-1 3,-2 3,-3l0 -6c0,-1 0,-3 1,-3 0,0 0,-1 1,-2l0 -11 0 -5c0,-2 2,-4 2,-6l1 0c0,0 1,0 1,0 2,0 4,1 5,1 4,-2 8,-2 13,-2l0 3 2 2c0,0 2,0 2,0l0 2c7,0 17,-1 24,0 5,1 9,-2 14,-3 3,-1 8,-1 12,-1 1,2 3,2 5,4 1,0 3,0 4,1 1,0 2,1 3,1 12,0 33,-1 44,-6 0,0 2,-2 3,-2l1 0c1,2 1,1 2,3 1,0 4,3 5,3l1 2 2 1c1,0 1,2 2,2l1 0 0 1c0,-1 1,-1 2,-2 0,-1 1,-4 1,-6 2,-6 2,-36 0,-42l0 -2 0 -2c0,-1 0,-4 0,-6 0,-1 -3,-4 -3,-4 0,-3 -1,-1 -1,-2l-1 -1 -3 0c0,-3 -1,-8 -1,-12l6 0 1 2 2 1c6,0 14,0 20,0 2,-1 5,-2 7,-3 8,0 17,-1 25,-1 1,0 3,-1 5,-1 0,-1 1,-3 1,-4 1,-1 2,-2 3,-4 0,0 2,-2 2,-3l0 -20 1 -1c2,0 2,-1 3,-1l2 -1 0 -6c-1,-2 -2,-2 -2,-2 -1,0 -4,-2 -4,-2l-2 0c0,-2 2,-4 2,-4l0 -22 0 -1 -2 -2c-2,0 -5,0 -7,0 0,-10 -2,-22 -2,-32l2 -3 3 -2 1 0c0,-1 0,-5 0,-6l4 0 1 1 2 0 1 2 2 0c1,1 3,2 4,3l62 0 2 1c1,1 2,3 4,3 0,1 0,2 1,2l0 3c1,0 2,0 4,0 0,1 0,2 0,4 1,1 1,2 1,4 -2,0 -5,4 -7,5 -1,2 -3,3 -3,4l-1 0c-2,0 -3,0 -3,2l-3 0 -1 1c-3,0 -7,4 -12,4l0 4c0,0 1,1 2,0l0 2 1 1c0,2 2,6 2,8l0 3c2,0 2,0 2,1l1 2 0 1c1,0 1,2 1,3l2 1c0,0 0,2 0,2 2,0 -1,2 2,2l0 3c0,0 1,2 3,2 0,2 1,4 2,5l0 2c2,1 2,2 3,2l1 1 2 1 0 2c0,0 2,1 2,3 1,0 2,0 3,0 0,2 2,4 2,4l0 2 0 2 2 1 0 2 1 0c0,0 1,2 1,2 -1,0 -4,2 -6,3l-1 3c0,3 -2,7 -3,11 -1,0 -2,2 -3,3 0,2 -1,8 -1,11 0,1 1,2 1,2 0,0 1,2 2,2 0,2 0,3 1,4 0,1 1,3 2,3l0 2 2 0 0 2 0 3 1 1c1,0 1,3 3,3l0 2c0,2 0,8 0,11 -1,1 -4,7 -5,8 -1,1 -6,6 -9,6l-1 2 -2 0c-2,1 -6,3 -8,5l1 1c2,0 6,-1 8,-1l3 2c0,0 2,0 2,0l1 -2 1 1c7,-2 12,-5 20,-5l2 1c1,0 2,0 3,0 1,2 5,4 8,4l3 3c1,0 4,0 6,2 1,0 14,0 14,0l7 0c0,2 0,2 1,2l2 0c1,2 1,2 3,2 1,1 6,3 6,5 2,0 3,0 4,0 0,1 1,2 1,2l3 2 4 0c2,1 6,3 6,4 2,0 3,0 3,1 3,0 6,1 8,1l2 -2c1,0 1,0 2,-1l3 0c2,-1 2,-1 4,-2l7 0 0 -1c4,-1 13,-3 17,-1 2,0 3,-1 4,0 1,0 3,-1 4,-1l1 1c1,1 2,3 2,3 0,2 0,2 1,3l0 2 1 -1 1 0c3,-3 4,-6 6,-9l2 0c0,1 1,1 1,2 2,0 4,1 5,2l3 0c0,2 2,1 2,3 2,0 6,-1 9,-1 1,-1 3,-2 4,-2l1 -1 2 0c0,0 1,-2 1,-2l2 0c1,0 1,-1 2,-1 0,0 3,-3 4,-3 0,-1 1,-2 2,-2 3,-5 4,-2 4,-10l155 3c-2,8 17,44 18,56l5 497c-116,0 -243,7 -364,7l-363 -13c0,-65 8,-134 8,-199 0,-45 14,-73 36,-114z"/>
  <path class="fil1 str0" d="M1582 1598c-16,17 -51,12 -65,26 -3,0 -9,2 -12,2 -5,3 -24,8 -29,6 -4,2 -12,2 -17,2 0,-6 0,-16 -5,-17l0 -7c-3,0 -3,-1 -3,-6l-3 -2 0 -3 -1 -4c-4,-2 -5,-7 -7,-8l0 -5c-3,0 -4,-3 -6,-6 0,-7 -6,-16 -8,-18l0 -9c0,-2 -1,-6 -3,-6 2,-7 3,-27 -3,-30l0 -3 -2 -5c-3,-2 -6,-5 -6,-8l-9 0c-5,-5 -13,-3 -19,-3 -2,2 -16,8 -18,8 -3,3 -15,9 -20,9 -6,7 -27,14 -28,19l-5 0c0,2 -28,16 -33,16 -3,1 -5,3 -8,5l-4 0c-2,1 -4,3 -7,3 -1,1 -15,9 -19,9l-3 5 -1 6c1,0 3,3 4,5l5 1c0,4 2,7 2,8l0 11 3 0c0,8 1,18 1,25l4 4 0 3 3 3c-2,3 1,3 1,6 3,0 0,2 3,2l0 6c0,2 4,6 5,6 0,5 2,14 3,16 0,3 -1,6 -1,9 3,4 0,8 4,11 -1,8 -1,19 -1,27 -3,2 -3,2 -3,5 -3,3 -7,14 -7,19 -1,1 -4,6 -4,9 0,-2 -2,-2 -3,-2l0 -3c-24,5 -51,-1 -73,-1l-4 -5c-5,0 -15,0 -18,-3 -1,1 -9,1 -14,1 0,-1 2,-3 2,-6 -2,-6 -3,-14 -3,-20l-5 -6c0,-8 -2,-18 -3,-24 -11,0 -30,3 -38,-5 -5,0 -8,2 -9,-3l-7 2 -6 -2 2 -3c1,0 3,-5 3,-6 1,-2 4,-7 6,-7l2 -3 -4 0 -4 -6 -5 -2c0,-1 -5,-4 -6,-6 -3,0 -13,-5 -13,-6 -3,0 -6,-3 -9,-3 -2,-2 -13,-10 -13,-11 -3,0 -5,-3 -5,-5 -3,-2 -17,-9 -17,-13 -1,0 -6,-1 -8,-1l0 -8c0,-2 -1,-3 -1,-5l-3 -3 0 -3c-2,0 -5,-5 -7,-6 0,-3 0,-7 -3,-8l0 -13c0,3 -3,7 -3,10 -5,0 -17,6 -22,6l-1 3 -5 0 -3 3c-3,0 -10,2 -11,5 -11,5 -51,22 -57,33 -3,0 -8,6 -8,8 0,-5 0,-6 -3,-10l0 -6c0,0 -5,-8 -5,-11 -3,0 -3,-3 -6,-6l0 -5 -3 -1c0,-4 0,-5 -3,-5l0 -5c-2,-1 -5,-6 -5,-11l-3 -1c-11,0 -20,-19 -24,-27 0,1 -1,6 -1,8 -3,1 -10,6 -11,8 -6,0 -16,11 -21,11l-4 6c0,0 -5,0 -5,0 0,1 -9,11 -13,11l-3 3 -3 6c-1,0 -6,3 -8,5 -3,0 -9,2 -14,2 -1,1 -5,4 -8,4 -3,-1 -9,-3 -12,-3l-3 -5c-4,0 -5,-1 -7,-1l-3 -5c-1,0 -11,-3 -12,-5 -8,4 -7,5 -13,5l-3 5 -3 1c0,0 -5,0 -5,0 0,-14 -1,-29 -1,-44 -2,-1 -8,-11 -8,-14 -3,-1 -8,-14 -10,-19l0 -6c0,0 -3,-5 -3,-5l0 -4 -1 1c-7,2 -15,5 -21,5 -11,-3 -28,-3 -41,-3 -1,0 -3,1 -4,1l-7 7 -4 0 -5 3c-6,0 -11,3 -16,5l-1 3c-7,0 -19,9 -29,9 -1,0 -6,5 -8,5l-6 0c-1,1 -71,31 -75,31l-7 5c-6,0 -18,9 -22,13l-4 0c-3,3 -10,4 -13,7l-3 0 -1 4c-7,3 -15,9 -19,12 0,2 -3,11 0,11l0 5c1,1 1,6 0,9l0 2c0,1 0,6 0,8 8,0 17,-2 25,-2 5,-1 15,-1 22,-1 0,1 -2,4 -2,7l-3 0 -2 4 0 3 -3 3c-3,0 -4,0 -6,1 -23,0 -49,-3 -71,-3l-6 -3 0 -3 -5 -3c0,-2 0,-5 0,-6l-3 0c0,1 0,4 0,6l-6 5c-3,0 -9,0 -13,0 0,-7 2,-16 2,-22 -11,0 -19,1 -28,4 -2,3 -7,8 -8,10 -3,0 -10,0 -11,-3l-5 -2c0,-3 -6,-6 -6,-8l-3 -3c-3,-2 -7,-6 -10,-8 0,-3 -1,-5 -1,-9 -3,0 -3,-2 -3,-5 -4,0 -5,-2 -5,-6l-5 -3c0,-4 -1,-5 -1,-7 -2,0 -8,-6 -10,-6l3 -6 7 -3c0,-2 4,-5 6,-7l0 -12 -6 1 -2 -3 -3 -3 0 -3 -3 0c0,5 -2,12 -2,17l-3 3 -3 2c-3,0 -8,0 -11,0 0,-2 -2,-2 -3,-2l0 -15c-3,0 -5,-2 -8,-2 0,2 -11,2 -13,2l0 3c2,0 3,4 3,6l4 0 0 3c1,0 1,5 1,6 -6,0 -12,0 -19,-1 0,-5 -4,-11 -4,-14l-5 -3c0,-2 -2,-4 -2,-5 0,-2 0,-6 -1,-6 0,-8 0,-19 1,-27l5 -2c2,-1 3,-4 5,-4 3,0 3,0 6,-2l0 -8c2,0 8,-5 9,-5 2,-3 5,-4 5,-7l3 -4c0,2 2,4 2,5 6,0 16,-1 20,-1 0,-2 3,-4 5,-5l3 0c0,-2 11,-16 13,-16 0,-3 0,-3 3,-5l0 -4c-2,-2 -2,-10 -2,-14 2,-2 5,-5 5,-7 3,0 6,-6 6,-6 2,0 5,-2 7,-3l3 0c3,-5 6,-8 6,-14l3 -5 0 -3c2,-2 2,-3 2,-5 35,-56 94,-119 127,-177 29,-52 81,-99 125,-136 36,-29 73,-73 113,-103 44,-29 99,-25 154,-25l536 3c124,0 253,0 377,0 59,0 48,11 37,88 -26,162 -11,356 -11,521 0,-18 -33,4 -26,-4 -25,4 -84,8 -100,33z"/>
  <path class="fil2 str0" d="M2384 1362c1,-1 0,0 0,1 0,3 1,5 1,8l0 3c0,0 -1,1 -1,1 0,1 0,1 0,2 -1,0 -2,1 -2,1 -1,2 -2,4 -2,6 0,1 0,5 1,6l0 1 0 0 0 0 0 0c1,0 1,1 1,1l1 0c0,0 1,0 1,0 1,0 1,1 2,1 3,0 7,0 10,0l2 0c2,0 2,0 3,-1 0,-1 1,-1 1,-2l0 -4c0,-1 -1,-2 -1,-2 0,-1 -1,-2 -1,-2 -1,-1 -2,-1 -3,-1 -1,0 -2,0 -3,0 0,0 -1,0 -1,0 -1,0 0,0 -1,0 0,0 -1,-1 -1,-1 0,0 -1,0 -1,-1 -1,0 -2,-1 -3,-1 0,0 0,0 0,0 -2,0 -2,-7 -2,-9 0,-1 0,-2 0,-3l0 -2c0,0 0,-1 0,-1 0,-1 0,-1 -1,-1z"/>
  <path class="fil2 str0" d="M336 683c-1,1 -1,3 -2,3 0,2 -1,4 -1,5l-2 2c-2,3 -1,11 -1,15 0,0 -2,14 -3,14 4,13 0,23 0,36 0,12 -4,22 -4,34 0,23 2,53 -2,75 -3,12 -5,42 -12,49 0,5 2,11 1,15 -3,6 -4,8 -4,15l1 1c4,0 6,2 9,3 1,3 8,4 11,3 2,2 5,4 8,4 2,2 3,5 6,8l0 2c1,0 8,5 8,6 2,0 4,1 5,3 3,0 7,3 10,4 0,1 8,9 10,9 1,2 3,3 6,3 1,2 16,10 18,11 0,10 -3,23 -20,31 -3,1 -6,5 -7,8 -1,4 -11,15 -15,18 -12,9 -24,30 -34,43 -11,15 -65,95 -87,84 0,21 -23,43 -23,65l0 22c0,9 5,15 5,26 0,14 -15,30 -12,38 0,2 8,16 10,16 0,8 15,13 18,16 3,3 14,22 17,28 14,0 18,0 35,-8 9,-5 20,-9 31,-9 29,0 37,-19 56,-38 6,-6 33,-32 39,-35 0,-1 0,-3 0,-4l25 0c3,-8 20,-22 20,-29l2 0c0,-4 6,-18 6,-25 0,-8 4,-19 4,-27 9,-3 25,-2 36,-2 0,2 1,2 2,2 0,1 1,7 2,8 2,0 8,-2 8,-6 5,0 12,1 16,1 0,15 49,-8 55,-2 0,0 2,0 3,0 0,4 31,-6 40,-3 11,3 39,18 50,18 0,2 6,2 6,4l48 0 1 0 10 -1c2,0 9,-3 11,-3 8,-3 18,-8 26,-8 4,0 8,-3 13,-3 3,-3 30,-8 30,-3 3,0 7,2 9,3 2,0 10,4 12,4 3,0 6,0 8,2 0,0 2,2 2,2 9,0 20,1 30,1 8,0 21,5 28,2 0,-3 3,-7 4,-9l0 -51 55 0c3,-3 -3,-108 -2,-113 0,0 0,-2 0,-2l1 -1c1,0 2,-1 3,-1l1 -1 0 -4c-1,-1 -1,-1 -2,-1 -1,-2 -1,-5 0,-7l0 -5c1,-1 1,-5 1,-7 2,-1 5,-5 6,-5 1,-1 1,-2 2,-2 0,-1 1,-1 1,-2 1,0 3,0 4,0l4 0c1,1 3,2 4,2 3,2 8,1 11,4l1 0c0,0 2,1 3,1l2 0c1,1 1,1 2,1l2 1 1 0c1,0 4,1 4,1l2 1 2 0c0,2 3,2 4,3 0,0 2,0 2,0l1 1c1,0 1,1 2,2l2 0 2 1 1 1c1,0 2,0 2,1 3,0 6,2 8,4l1 0 1 1c0,0 3,-1 3,0l1 0 0 1 2 0 0 2 3 0 1 1c1,0 2,0 2,1 2,0 9,0 9,0l2 0c1,0 2,0 4,0 0,-1 0,-2 0,-2 1,-1 1,-2 1,-3l1 -1c0,-2 2,-3 2,-4 0,-1 1,-2 1,-3 0,-1 1,-2 1,-3l0 -4c1,-2 2,-4 2,-6l1 -1c1,-1 2,-2 3,-2l1 -2 0 -1c1,1 2,2 3,2 0,1 1,3 1,4 1,0 2,0 3,0 0,-1 2,-3 2,-3l0 -5c1,-3 3,-6 3,-10 2,-1 8,-5 11,-5l3 -2 -1 2c0,0 1,-2 1,-2 -2,0 -2,-1 -2,-2l-2 0c0,0 -1,-1 -2,-1 0,0 -1,0 -1,-1l-2 1 0 -2 -2 0c0,0 -1,-1 -2,-1 0,-1 -1,-2 -2,-2l0 -3c-2,0 -1,0 -2,-1l-1 -18c3,-3 5,-21 3,-25l0 0c0,-5 0,-13 0,-18 -1,-1 -1,-2 -2,-2 0,-1 -2,-3 -2,-5l-1 0 -2 -1c-1,-1 -2,-1 -3,-1 -1,-1 -3,-2 -5,-2l0 0 7 0c0,-1 1,-1 2,-1l1 -1 1 -1c3,0 7,-7 9,-8 0,-2 -1,-5 -1,-7l-2 0c0,0 -3,1 -4,1l-2 1c-3,0 -8,2 -11,2 0,-1 -1,-1 -1,-3l-2 0c0,-1 0,-3 -1,-4 0,-2 0,-5 1,-6 0,-2 0,-6 0,-9 0,0 0,-1 -1,-1 0,0 0,-1 0,-2 0,-1 -1,-1 -2,-2 0,-2 -2,-4 -2,-6 -1,0 -1,-1 -2,-2l0 -2 -1 -2 -2 -2 0 -2 -2 0 -1 -1 0 -1c-2,0 -4,-1 -6,-2 -7,-9 14,-12 -5,-22 -2,0 -2,-1 -4,-1 0,-3 -6,-1 -6,-4 -4,0 -8,-3 -11,-3 0,-1 -3,-7 -5,-6 -1,-1 -2,-2 -3,-2 0,-3 -13,2 -13,2 -2,0 -7,3 -8,4 -4,2 -14,5 -19,2 -8,-4 -27,-16 -36,-16l-1 2 1 -1c-7,9 -12,-1 -20,-1 -1,-2 -9,-6 -12,-6 0,-1 -2,-5 -3,-5 0,-1 -1,-4 -2,-4 0,-3 -7,-13 -6,-14 -3,0 -4,-3 -6,-3 0,-2 -11,-6 -13,-6 0,-1 -36,-1 -39,-1 -12,0 -27,-1 -40,-1l-91 0c-51,4 -77,-37 -104,-57 -1,-1 -2,-3 -3,-3 0,-2 -1,0 -1,-2 -1,0 -1,-1 -2,-1l-2 -2c-1,0 -3,-2 -4,-3 0,-1 -1,-3 -2,-3l-1 -1 0 -1c0,-1 -1,-4 -2,-5 0,-1 -2,-2 -2,-3l-1 -2 0 -3c1,-1 1,-3 3,-3l0 -3c0,0 -2,0 -2,0l-1 -1c0,-1 0,-4 0,-5l-1 -2 0 -1 -1 0c0,0 -1,-2 -1,-2l0 -2c-2,-4 -1,-14 -1,-18 -1,0 -2,-3 -2,-4 -1,0 -1,-1 -1,-1l-1 -1 0 -5c0,-1 0,-2 -2,-2l0 -2c0,0 -1,-1 -1,-2l-1 -1 0 -1c-1,-1 -2,-2 -2,-3 -1,0 -2,0 -2,-2 -2,0 -2,0 -2,-1l-2 0 -2 0 -1 -2c0,-2 -2,-3 -4,-4 0,0 -1,-1 -1,-1l-1 -1c0,-1 0,-1 -1,-2 0,0 0,-1 0,-1 0,0 0,-2 0,-2l0 -1c-2,-3 -1,-12 0,-15 -1,-1 -2,-3 -3,-3 0,-1 0,-3 -1,-3 0,-1 -1,-1 -1,-2 0,0 -1,-1 -1,-2l0 -1c0,0 -2,-1 -2,-1l0 -2c-1,0 -2,-1 -3,-1l-1 -2c0,-4 2,-8 3,-12 0,0 2,-1 3,-2l-3 -1 0 0 0 -2 -1 0 -2 -1c-1,-1 -1,-1 -2,-1 -3,0 -8,2 -11,2l-2 2c0,1 -1,2 -1,3 -1,0 -3,0 -3,-1l-2 0 -2 -1c-1,-2 -3,-2 -3,-3l-2 0c0,-1 -2,-1 -3,-1 0,-1 0,-1 -1,-1 -2,-1 -4,-3 -6,-3 -1,-1 -4,-3 -6,-4 -1,0 -2,-1 -2,-1l-3 0c0,-2 0,0 0,-2l-1 0c-2,0 -5,0 -6,-1l-2 0c-3,-1 -11,-3 -13,-5 -1,0 -3,-2 -3,-2l-1 0c-1,-1 -2,-1 -3,-1 -1,0 -1,-2 -2,-2l-1 -1 -2 0 0 -1c-2,0 -4,-2 -6,-2 0,0 -1,-1 -2,-1l-2 -1c-1,0 -3,-2 -4,-2l-3 -2c-1,-2 -2,-3 -4,-3 0,-2 -7,-5 -8,-7 -4,-1 -14,-2 -19,-2 0,-1 -1,-1 -2,-1l-1 -1 -2 -1c-1,0 -2,-1 -2,-1 -4,-1 -9,-3 -12,-6l-2 -1 -3 0c0,-1 -4,-2 -4,-4l-3 0c0,-1 -1,-3 -2,-3l-1 -2c0,0 -1,0 -1,0 -1,0 -2,0 -3,-1 -2,0 -4,0 -5,1l-2 -2c-2,0 -4,0 -5,0l0 -1 1 -2c0,-2 1,-3 1,-5 2,0 3,0 5,0 4,0 8,0 12,0 0,1 2,1 3,2l1 0c1,-2 2,-5 2,-6 0,-2 1,-4 1,-5l0 -1c1,-11 -21,4 -22,3l-2 0c-1,0 -2,0 -3,0l-6 0c-1,0 -3,2 -4,2 0,2 0,5 0,8l1 0 2 1c0,1 1,2 3,2l1 1c1,1 0,3 0,4 0,0 1,-1 1,-1 0,2 -3,3 -4,3l-1 1c-2,3 -12,5 -15,11 -4,3 -8,9 -11,12 0,4 -12,14 -15,17 -2,0 -4,3 -6,3 -1,0 -2,1 -3,1 -1,2 -4,3 -5,4l-2 0c-4,3 -12,7 -17,10l0 -2 -6 6c-1,0 -2,1 -3,1 0,2 -5,2 -7,2 0,-1 -2,-2 -3,-2 -2,0 -2,0 -2,-2l-4 0c-2,-1 -1,0 -3,-3 -1,3 1,4 2,8 3,7 0,3 -3,9 -1,3 -1,8 2,8 6,0 5,2 5,7 0,3 2,8 3,10 2,1 1,5 4,5 7,0 10,-2 15,-6 4,-3 4,-1 7,-1 3,0 34,-15 35,-17 0,5 2,9 4,13 2,3 6,3 7,7 0,2 3,6 4,9 1,2 0,14 0,16 0,10 -4,17 -6,25 -1,4 -3,9 -5,12 -1,5 -6,10 -5,16z"/>
  <path class="fil3 str0" d="M1576 1601l0 1c2,0 5,0 7,0l2 2 2 0c1,1 3,1 5,1 0,1 6,3 6,4l3 0 2 3c2,1 4,3 6,3l2 3 6 4c2,0 4,1 4,1l4 -1c0,-1 1,-2 1,-3 4,-1 10,-3 14,-4 1,-3 5,-4 7,-6l5 -1c0,3 -1,14 -2,15 0,3 0,5 -1,7l-2 0c0,-1 -1,-2 -3,-2 0,3 0,6 1,8 0,4 1,12 -1,15 2,6 -1,12 -1,18 5,3 15,0 18,3 3,0 7,1 10,1 13,-2 50,-2 63,1 4,-2 14,-1 18,-1 0,0 2,-2 2,-2l2 0 2 0 2 -3c2,-1 3,-2 4,-4l2 -2 3 -2 4 0c3,0 12,0 13,-1l11 0c2,-1 4,-2 4,-3 3,0 9,-3 10,-4l3 0 3 -2c1,0 3,0 4,0l3 -1 4 0 3 -2c1,0 2,0 3,0l4 2 4 0c2,1 2,6 1,9 0,2 1,6 2,8 0,2 0,4 2,5 0,5 0,11 0,15l2 1 2 2c2,0 4,-1 5,-1l7 0c1,1 5,2 7,3l0 2 4 2 2 2c0,18 1,-5 1,5 1,2 2,2 2,5l3 1c0,2 1,2 2,2l0 6c2,0 3,2 3,4l0 1 1 2 -2 3 0 1 -1 2 -2 2 0 2c1,0 3,0 4,0l1 2c0,5 0,11 0,16l-1 2 0 2c2,-2 6,-6 8,-7 1,0 3,-1 4,-2l1 0c1,-2 4,-4 5,-6 1,0 2,-2 4,-2 0,-1 3,-2 4,-3l2 0c0,-1 1,-2 2,-2 2,-1 5,-3 7,-5 1,0 3,-1 4,-1l4 -3c1,0 2,-1 3,-1l4 -4c3,0 5,-3 8,-3 1,-1 2,-1 3,-1 2,-2 3,-3 5,-4l2 -1c2,0 5,0 7,1l2 -1 2 1 2 4c0,1 2,4 2,5 1,0 6,11 6,12 3,0 3,1 5,2l3 0c2,-1 6,-2 7,-2 1,-1 4,-4 4,-5l3 -1 3 0c1,1 3,2 5,2l1 4 0 19c2,0 5,2 5,2l2 2c0,1 -1,3 -1,4 -1,0 -7,2 -7,2l0 2c0,1 0,3 0,4 2,1 4,3 4,3 3,0 7,4 11,4 2,-2 3,-2 6,-2 0,5 0,14 1,19 -2,2 -11,7 -14,10l-2 0c0,0 -2,2 -3,2 -1,1 -3,3 -4,5l-2 0c0,0 -2,5 -2,5l-1 1 -2 0c0,2 0,5 0,6l-2 3 -1 2c0,4 0,7 -2,10 0,10 1,21 1,31l1 2c0,0 0,15 0,15l0 5c0,1 -1,2 -1,4 0,1 -2,4 -2,4l-2 0 -2 2c-1,3 -1,9 -1,13l3 1 0 6c18,0 -5,1 5,1l3 4c2,0 3,1 3,3 2,2 4,4 5,5 0,1 1,2 2,2 1,2 3,7 4,8l1 0c1,0 4,2 5,2 0,0 3,3 3,4l2 1 1 3 4 1c1,0 4,1 5,2 1,0 5,0 6,0l2 -3 4 -4 -2 0 0 -2 -2 0 -2 0c0,-1 -1,-2 -2,-3 0,-2 1,-7 1,-9 1,0 3,-5 3,-6l0 -2c1,-2 4,-5 4,-7l3 -4 2 -2 0 -2c4,-7 8,-15 10,-23 3,-18 -4,-7 21,-32 0,-4 1,-9 1,-12l2 -2c0,0 6,-3 7,-3l6 -31c2,-2 2,-2 2,-4l1 -2c3,-1 3,-6 5,-8l1 -4c4,0 9,-3 12,-3 1,-1 5,-5 7,-5l0 -2c0,0 1,-1 3,-2 0,0 2,0 2,0l1 -2c1,0 4,0 5,0l2 -1 5 0c1,0 1,0 2,0 1,2 2,4 3,4 0,2 2,3 2,4 1,0 2,2 2,3l3 0c0,0 1,1 2,1l3 3c1,0 2,0 3,0 0,1 1,1 3,1 0,-1 1,-1 2,-1 1,-2 5,-4 7,-4 1,-1 1,-1 2,-1l3 -2c0,-1 1,-1 1,-3 1,0 2,-1 3,-1 0,-1 2,-4 2,-4 0,-2 0,-2 1,-4l0 -1 2 -1c0,-1 2,-5 3,-5 1,-4 3,-7 3,-10l2 -3c1,-2 5,-5 5,-9 0,0 2,-3 3,-4 0,-2 0,-11 0,-11l-3 -3c-1,0 -2,0 -2,0l-2 0c0,-4 -1,-8 0,-11 2,0 4,-2 5,-2l-4 -2c-5,0 -13,-1 -18,-1 -1,-2 -2,-2 -3,-3 -1,0 -2,-1 -4,-1l-2 -2c0,-2 -2,-1 -3,-3l-1 0c0,-1 -2,-3 -2,-4l-3 -2c-1,-2 -4,-3 -6,-3 0,-1 -2,-2 -3,-2 0,-1 -1,0 -1,-1 5,0 15,-8 21,-8 2,-6 6,-15 12,-19l0 -2c1,0 8,-6 8,-7 1,0 2,-1 4,-1 1,-2 5,-4 7,-5 1,-2 1,-2 3,-2 2,-5 18,-15 22,-22 0,0 15,-13 18,-14l0 0c0,0 4,-3 4,-3l3 -1 2 0c0,4 0,4 3,5l1 2 2 2 1 2c4,0 7,-1 10,-2l1 -2c1,-1 3,-3 4,-5l1 -2c2,0 4,-1 5,-3l3 -1c2,0 3,-1 5,-1 2,1 2,1 4,1l2 2c4,0 8,-1 12,-2 0,-3 1,-6 2,-7 0,-7 1,-22 6,-27 0,-3 4,-6 4,-9 -3,4 1,0 4,0 -1,0 -1,0 -1,-1 -2,0 -3,-4 -4,-4l-2 -2c0,-2 -1,-4 -3,-5 0,-2 0,-2 -2,-3l-1 -3c0,-1 -1,-3 -2,-3 0,-1 -7,-14 -7,-14 0,-2 0,-2 -2,-2 0,-1 0,-4 0,-4l-5 -4c0,-5 -1,-9 1,-13 0,-2 4,-19 3,-20 1,-2 6,-12 7,-12 1,-2 5,-5 5,-7l1 0 0 -1c1,-1 1,-2 2,-3l0 -1c1,0 2,-1 3,-1l1 -2c1,0 2,-1 4,-2 0,0 1,-1 2,-1 1,0 2,0 2,-1 1,0 2,0 2,0l2 0c1,-1 2,-2 3,-3 1,-1 1,-3 1,-4 -2,-1 -5,-3 -7,-3 -1,-2 -2,-3 -3,-5l0 -2c1,-1 1,-3 2,-4l0 -1c1,-1 2,-3 2,-4 0,-2 1,-5 1,-7l-1 0c-4,0 -8,-1 -12,-1 -1,0 -2,-1 -2,-1 -1,0 -2,-1 -3,-1 -3,-1 -7,-5 -11,-5 0,0 -1,-1 -2,-1 0,-1 -1,-1 -2,-2l-1 0 -1 -1c-3,-1 -7,-3 -9,-4l-1 -1c-1,0 -2,-1 -2,-2 -2,0 -2,-1 -3,-1l0 0c-2,-1 -3,-1 -5,-2 -1,0 -4,-2 -4,-2 0,0 -1,0 0,1l1 1c0,0 2,1 2,1 2,1 3,2 5,2 2,3 8,4 11,7l2 1c1,0 2,1 4,1 0,2 5,3 7,3 1,1 1,1 3,2 0,0 0,0 2,0 0,1 3,2 3,3 1,0 2,0 3,0l18 1c1,-1 2,-1 3,-1 0,0 0,-1 1,-1 0,0 1,-1 2,-2l0 -1c0,-1 1,-2 1,-2 0,-2 0,-5 1,-6 -2,-2 -2,-6 -2,-8 1,-1 1,-3 1,-4 0,0 1,-1 1,-2 0,-1 2,-3 2,-5l1 0c2,-3 5,-7 7,-10 1,0 8,-4 8,-3l0 0c1,-1 3,-2 5,-2l0 -1 1 0 2 -1c1,0 5,-1 5,-1 2,0 5,0 7,-1l2 1c1,0 3,1 4,1l0 0c0,0 0,0 0,0 0,0 -1,-1 -1,-2l0 -1c-1,0 -1,-1 -2,-1 0,0 0,0 0,-1 -1,-1 -1,-1 -1,-1 0,-1 -1,-2 -1,-3 0,-1 -1,-2 -2,-3 0,-2 1,-4 1,-6l1 -2 1 -1c0,0 1,-2 1,-2l1 -1c0,-1 1,-2 1,-2l0 -1 1 -1 1 -1 0 0 0 0c-1,0 -1,0 -2,0l-1 -1 -1 -1c-2,0 -1,-1 -1,-1 -1,0 -2,0 -3,-1 -1,0 -2,-1 -4,-1 0,-1 0,-2 -2,-2l-1 0c0,-1 -1,-1 -1,-1 -2,-2 -8,-4 -10,-4 -1,0 -2,0 -3,0l-1 -1c-1,0 -3,-1 -4,-1 0,-1 -2,-2 -3,-3 -1,0 -2,-1 -2,-1l-3 -1 -2 1c0,0 -1,1 -2,1l-2 0 -2 2c-2,0 -6,0 -8,-1l-2 0 -2 -1c-2,-1 -1,-1 -3,-1l-1 -1 -1 0c0,-1 -2,-2 -2,-2l0 -2c-1,-1 -3,-2 -4,-3 0,0 -2,-1 -2,-1 -1,0 -3,0 -3,0l-2 1c0,1 -2,3 -3,3l-2 1 -6 0c-1,0 -3,-1 -4,-2l-1 -1 -1 0 0 -3c-1,0 -2,-2 -2,-3 -1,0 -2,-2 -3,-2l-2 -2 -1 0 -1 -1 0 -2c-1,0 -2,-1 -2,-2 0,0 -1,-1 -2,-2 -1,-1 -1,-1 -2,-3l-2 0 -1 -2c-1,0 -4,-2 -5,-4 0,0 -2,-2 -2,-3l0 -1c0,0 -1,-1 -1,-2 0,0 -1,-1 -1,-1 -1,-1 -1,-3 -2,-3l0 -2c-1,0 -1,-2 -2,-3l-1 -1c0,-2 -1,-3 -2,-4 0,-1 -1,-1 -1,-1l0 -2 -1 0 0 -2c0,0 -1,-1 -1,-2l-1 0c0,-2 -2,-8 -2,-10 -1,-1 -3,-2 -4,-3 -3,0 -7,-1 -10,-1 -1,0 -3,-1 -3,-2 -1,0 -2,0 -2,-1l-2 0c0,0 -1,0 -2,0 -1,-2 -4,-3 -6,-5l-3 0 -2 -2c0,-1 -1,-2 -2,-2l-2 -1 -1 -4c-1,0 -3,-2 -3,-3 -1,0 -3,-2 -4,-2 -1,0 -2,0 -2,0l-3 -1c0,-2 -3,-4 -3,-5 -1,0 -1,-1 -2,-2l-1 -1 -2 1 0 1c0,1 -1,1 -1,2l0 6c1,0 2,1 2,2 0,1 0,1 1,1l0 2c1,0 0,0 2,1 0,2 1,4 1,6l1 1 0 2c1,0 1,1 1,2l1 1c0,2 1,5 1,7 1,1 2,3 2,5 1,0 2,2 2,3 1,0 3,2 4,2l1 1 3 0 1 2c0,3 0,8 0,12 0,2 0,5 0,8l-2 5c-1,1 -4,4 -5,4 0,1 -1,2 -2,2l-2 1c-5,0 -10,0 -15,-2l-1 -1 0 -2c0,-1 0,-4 -1,-4l0 -14c0,0 -1,-2 -1,-2l0 -2 -1 -2 0 -2c-1,-1 -2,-3 -3,-3l-1 -2c0,-2 0,-4 0,-6l0 -1c-1,-1 -2,-3 -2,-5 0,0 0,-1 0,-2l-1 -2c-1,0 -2,-1 -3,-2l-2 0c0,0 -3,-1 -4,-1 -1,-1 -4,-2 -4,-3 -6,0 -15,-1 -20,1l-19 -14 0 -2 0 -1 -1 0 -1 -1c0,-2 -3,-8 -3,-11 -3,0 -6,-3 -8,-4 -1,0 -1,-1 -3,-1l-1 -3c-1,0 -3,-2 -4,-2 -2,-1 -4,-3 -6,-3l-2 -2 -3 0c-1,-1 -4,-4 -6,-3 0,-2 -3,-3 -5,-4 -1,0 -2,0 -3,0l-12 0c-1,-1 -2,-1 -3,-1 -1,-1 -3,-2 -4,-2 0,0 -1,-1 -2,-1 -1,0 -2,-1 -2,-2l0 0 0 -2c-1,0 -4,-2 -5,-3 -2,0 -3,-2 -4,-2 -2,0 -6,-3 -7,-4l-1 0 -2 -1 -1 -1c-3,0 -1,-1 -2,-1l-1 -1c-1,0 -2,-1 -2,-1l-3 -1c0,0 -2,-1 -2,-2 -2,0 -4,0 -6,0 -3,-1 -10,0 -13,0l-2 1c-1,0 -5,1 -5,2 -2,0 -7,3 -8,4l-2 0c-1,1 -1,1 -2,2 -5,0 -9,4 -12,7 -1,0 -4,2 -5,2l-3 2c-3,1 -11,6 -12,6l-1 0 -3 3 -1 -1 -2 1 -1 -1 -2 1 -2 0c0,1 -2,3 -2,3l-2 3c0,1 -1,2 -1,2 -1,2 -1,13 0,14l0 5c0,1 -6,12 -7,12l0 -1 -1 -1c0,-2 0,-4 0,-6 0,-2 1,-4 1,-5 0,-2 0,-5 0,-8 0,-1 -1,-2 -1,-2 -1,0 -2,-1 -3,-1 -2,0 -8,0 -11,0 0,-1 0,-2 -2,-2l0 -2 -1 -1c-1,0 -3,1 -4,1l-2 2 0 8c-1,0 -3,0 -3,0 -4,0 -13,0 -13,1 -1,0 -1,-1 -2,-1l1 -2c1,-1 1,-1 1,-2 1,0 3,-3 5,-3 1,-2 4,-4 5,-5l0 -1 3 -3c0,-1 2,-3 2,-4l2 -2 -1 2c0,-1 0,-1 1,-2 0,-1 0,-3 0,-4l-1 -1c-1,-1 -1,-1 -2,-1 0,0 0,-1 -1,-1 0,0 -1,-1 -1,-1 -1,0 -1,-1 -2,-1 0,-2 0,-2 -1,-2l0 -5c0,-1 -1,-2 -1,-3l0 -4c1,-1 1,-4 1,-6 0,0 3,-3 3,-3l2 -5 14 -23c20,-26 15,-22 33,-49l-3 0 -2 1 -2 0 -1 0c-3,0 -6,0 -9,0 0,-2 0,-3 0,-7 9,-91 36,-134 112,-180 0,-1 0,-2 0,-2 0,-1 0,-3 0,-3l0 -1c-1,0 -3,-4 -3,-4l0 -2 -1 -1 0 -4c-1,-1 -1,-2 -2,-2 0,-2 0,-4 0,-5l-1 -2 -1 -1c-2,0 -3,1 -4,1l-2 0c0,1 -2,2 -3,3 -1,0 -2,1 -3,2 -1,0 -3,1 -4,1 -2,0 -9,1 -11,0 -1,0 -2,0 -3,0l-1 -1c-1,0 -3,-1 -5,-1 0,-1 -1,-2 -2,-2 -1,0 -1,0 -1,-1l-1 0 -2 -1 -1 0 0 -1 -1 0c0,-1 -2,-2 -2,-2l-2 0c-1,0 -3,0 -4,0l-2 -1 -1 0 -1 0c-1,0 -2,0 -3,0l-3 2c-1,1 -3,3 -4,4 -7,0 -27,-3 -32,3l-2 0 -2 2c-1,0 -1,0 -2,1 -1,0 -2,0 -3,0 -1,2 -3,2 -4,4 -3,0 -8,5 -12,7l0 0c0,-1 -1,-3 -1,-5 0,-1 0,-3 -1,-4l0 -6c0,-1 -1,-7 -1,-8 0,-2 -1,-4 -2,-5 0,-1 0,-1 -1,-2l0 -1c0,-1 0,-2 -1,-3l-1 -1 -1 -2 -1 -1 -1 -1 0 -2 -2 -1c0,-1 0,-1 -1,-1 0,-17 -19,-41 -19,-64l-15 1 -12 -1c-3,-1 -12,-5 -12,-7l-3 0c0,-2 -3,-3 -3,-3l-5 0c-1,0 -2,-1 -3,-1l-3 -3c-2,0 -6,0 -8,-1 -4,0 -13,3 -16,3 0,-4 0,-6 2,-9 0,-5 3,-11 5,-13 0,-5 2,-17 0,-20 0,-4 -1,-8 -1,-12 -1,0 -4,-4 -4,-5 -1,0 -2,-2 -4,-2l0 -3 -2 -1c0,-1 -1,-3 -1,-4l-4 -2c0,-4 1,-8 1,-10l0 -2c0,0 -2,-3 -2,-4l0 -5 -3 -2c0,-2 0,-4 -1,-4 0,-4 0,-9 0,-11l-2 1c0,-1 -1,-1 -3,-1l-1 4c-4,1 -7,4 -8,7l-4 -1c0,-2 -3,-3 -3,-3l-24 0c0,-1 0,-7 -1,-7 0,-1 0,-3 -1,-3 0,-4 1,-12 1,-17 -3,-1 -4,-13 -4,-16l-2 -1c-2,-2 -4,-7 -4,-10 -1,0 -2,-3 -4,-3 0,-3 -1,-4 -1,-5 -1,0 -2,-3 -2,-3l0 -2 -3 0c0,-4 0,-5 -3,-5 0,-2 -2,-4 -3,-4l-2 0c0,-1 -2,-2 -3,-2 0,-2 -1,1 -1,-4l-2 -2c-4,0 -3,-3 -7,-3 0,-1 0,-3 0,-4l-1 -2c-1,0 -2,-1 -2,-2l-3 0c0,0 -3,-3 -3,-3l-3 0 -1 -2 -5 -2c0,-3 -4,-5 -4,-8l-2 -2c-2,0 -4,0 -5,-1 -2,0 -6,0 -7,-2l-5 0 -3 -1c-1,-1 -3,-2 -3,-4l-3 0c0,-1 -2,-2 -2,-2l-4 0c-1,0 -2,-2 -3,-4l-3 0c-2,-1 -5,-2 -8,-2 0,-3 -2,-3 -5,-3l0 -2 -4 0c-1,0 -4,-2 -6,-2l-3 -3c0,1 -2,0 -3,0 0,-1 -3,-2 -3,-2 -6,0 -22,0 -27,-3 -14,0 -33,0 -47,0l0 -2c-1,0 -3,-1 -4,-3l0 -3c-2,-3 -2,-8 -6,-9l0 -5c-2,0 -2,-3 -5,-5 0,-2 0,-2 -2,-3l0 -3 -3 -2c-5,0 -3,-12 -3,-16 -3,0 -4,-1 -4,-4l-1 -2 -3 -1c0,-2 -1,-3 -1,-4l0 -4c0,-1 -1,-2 -4,-2 0,0 0,-4 0,-4l-2 -1c0,-5 0,-12 1,-17l-1 -3 10 -30c2,-3 3,-11 7,-12 0,-4 5,-8 5,-13l4 -2c0,-6 -2,-23 1,-28 0,-4 1,-8 1,-11l2 -4c3,0 4,-1 5,-4 4,0 5,-2 8,-3l2 0c1,-1 4,-3 6,-3 1,-1 4,-2 4,-3 5,0 7,-5 12,-5l1 -1c0,0 6,-9 6,-9l0 -2c2,0 3,-3 3,-3 0,-22 8,-48 8,-72l-1 -2c-1,0 -2,0 -2,-2l-4 0 -1 -3c-1,0 -5,-3 -6,-3 -1,0 -3,1 -5,1 -1,0 -4,3 -6,3 0,1 -3,2 -4,4 -2,0 -4,0 -5,-2 -2,0 -6,2 -8,2 0,-3 -2,-3 -3,-4 -2,0 -3,-1 -6,0l-2 -3 0 -2 -3 -1c0,-4 0,-4 -2,-5 0,-1 0,-4 0,-5l-3 0 0 -4c-1,0 -2,-1 -2,-2l-1 -1 -3 1c-2,-1 -2,-1 -5,-1 -2,-2 -3,-2 -3,-4l-4 0c0,-2 -4,-1 -5,-1l-2 -1 -2 -3 -1 -1c-1,0 -5,-3 -7,-3l-3 -1 0 -3 -2 0c-1,-2 -5,-3 -5,-5 -4,1 -2,-2 -2,-4l-3 -1 0 -4 -2 -1 0 -3 -4 0c0,-2 -2,-2 -4,-2 0,-2 0,-4 -1,-5l0 -2 -2 -2 1 -3c-1,-3 -1,-4 0,-6 -1,0 -1,-10 -1,-13 2,-6 2,-23 2,-30 1,-1 3,-4 3,-6 -2,0 -3,-4 -3,-5 -3,0 -10,1 -12,1 -1,3 -6,5 -10,5 -4,4 -10,9 -13,10l-2 -3c0,0 -3,0 -3,0l0 -16c1,0 2,-8 2,-9 4,-3 13,-13 13,-18 -1,0 -15,4 -16,4l-2 4 -3 1c-2,1 -6,9 -9,9l-4 3c-1,3 -6,10 -8,13 0,2 -3,6 -4,7 0,0 -12,2 -12,0 -2,0 -5,0 -7,-1l-4 0 0 -3c-1,0 -2,-2 -2,-2 0,1 -3,2 -3,3 -4,2 -7,8 -10,10 0,1 -3,9 -5,9 0,2 -2,6 -4,7 0,4 -2,5 -2,7l8 0c1,0 3,3 3,3 3,0 5,1 5,2 1,0 3,2 4,3 0,0 0,3 0,3l2 2 0 2 3 3c1,0 2,1 3,1 2,1 3,2 4,2 1,1 4,4 5,5l1 3c1,0 3,1 4,1 4,0 10,1 12,2 3,0 5,1 7,1l4 -1 3 1c2,-1 6,-1 8,-2l3 0c0,4 0,11 0,15l-3 1 -2 2 -3 5c-1,0 -2,1 -3,1l-3 5c-1,0 -4,0 -5,0l-2 3 -4 0c-5,5 -12,10 -15,16 -2,0 -7,2 -9,3 -3,0 -13,0 -13,-2 -1,0 -3,0 -4,0l-2 -3 -1 -1c-5,0 0,-1 -5,-1l0 -2 -3 0c-2,2 -9,2 -10,2 0,1 -6,2 -8,2 -3,0 -9,-1 -13,-1l0 6c-1,0 -6,9 -6,10l-3 0 0 6c-1,0 -2,3 -2,3 0,0 -4,0 -4,0l-2 2 -4 0c0,-1 -2,-1 -3,-1l-3 2c0,8 0,16 0,24l3 1 0 11c1,0 2,1 2,2l2 1 2 2c-2,0 -4,1 -5,1l-26 -1c-6,29 -43,-7 -43,-32 -11,0 -56,-4 -56,-25l-1 -1c-1,0 -5,4 -6,5l-3 0c-6,9 -9,29 -17,37l0 16c-1,1 -2,2 -2,3 -1,0 -11,5 -11,5 -1,0 -6,0 -8,0l-2 -2c0,1 0,6 0,7l-2 3c-5,2 -11,8 -14,13 -1,0 -2,1 -4,1l-2 4c-1,0 -2,1 -2,2l2 2c0,2 1,-2 1,3 1,0 3,0 3,1l2 0 0 7c-1,0 -5,1 -5,3l-2 0c0,0 -4,3 -4,3l-12 0c0,1 -7,5 -9,5l0 3c2,3 3,6 3,10l2 0c0,2 0,5 1,7 0,2 0,4 0,5l3 1c0,0 0,4 0,4l2 1c0,3 0,3 3,4l0 4 1 3c1,2 4,4 4,4l1 2c0,5 5,13 5,19l2 2 0 4c0,1 1,2 1,4l3 2c0,1 1,4 1,4 0,5 0,11 0,16l-2 3c0,1 -2,3 -2,4 0,5 -1,10 -2,13 0,8 -5,14 -6,20 -1,0 -3,2 -3,4 -1,1 -3,4 -4,6 0,2 -2,3 -3,5l0 3c-1,1 -5,6 -5,10 -3,2 -5,7 -8,10l-3 3c0,3 -2,5 -2,8 -4,3 -9,11 -14,14 -9,0 -33,4 -42,7 5,2 9,4 12,8l4 3c0,-5 2,6 2,6l5 2c0,3 0,7 0,9 6,0 4,7 8,7 0,4 3,6 3,9l6 0c0,8 2,0 2,8l7 -2c2,0 7,5 9,5l9 8 8 0c0,3 7,7 7,11l2 3 7 2 4 4 5 5c0,6 4,11 4,15l4 -2 3 4c4,0 8,2 13,2 2,7 9,11 11,16 2,0 4,2 4,4 5,2 9,11 9,18l4 4c3,0 9,9 9,11l0 11c13,13 7,40 7,60 4,0 4,2 6,4 0,2 0,7 5,7 0,2 2,4 4,6l0 9c0,0 5,4 5,4l0 7c2,0 2,9 2,11 2,0 2,2 2,4 -4,0 -24,16 -26,18 -3,0 -9,2 -11,2 -3,5 -7,9 -11,11 -7,5 -7,11 -7,7 0,2 -2,2 -4,2l0 -18c-9,0 0,-2 -9,-2 0,0 -2,-4 -5,-4 -2,0 -6,-5 -6,-7 -5,0 -7,2 -5,-4l-2 0 -4 2c0,2 -7,9 -7,11 -4,0 -9,0 -11,-2 -4,2 -9,6 -13,6l-4 5c4,-5 -3,4 -3,4l0 9c0,0 7,0 7,0 0,4 2,7 2,9 10,10 9,23 9,35l-2 2c4,2 15,2 20,-2l8 0c0,2 -6,9 -8,9l0 6c-5,0 -11,0 -16,3l11 0c0,2 5,8 5,8 0,3 2,5 2,7l0 22c-5,9 -2,31 -2,40l2 2c0,0 6,0 6,0 0,4 3,0 3,4 4,-2 8,-2 13,0l6 0c7,11 22,-2 33,-2 5,-7 14,-7 22,-7 5,3 11,9 14,9 0,2 0,7 4,7l0 4c0,0 8,3 8,5l1 6c35,-7 46,4 57,-24 7,-2 11,-2 15,2 4,3 13,12 13,16 2,0 3,1 5,1 0,1 2,2 3,2 2,3 6,5 9,5 1,1 3,3 3,4l4 2c2,0 19,9 20,11 2,0 3,1 3,2l4 1 3 2 2 2c-1,3 -4,7 -4,11l-3 3c0,2 -3,4 -3,6l-2 1 -2 2c0,1 -1,2 -1,2 -2,1 -6,3 -9,3l-2 1c0,2 -5,4 -5,7l-1 1 0 3c-4,5 -7,11 -7,17l1 1 1 1 4 0c0,2 1,2 3,2l2 2 1 0 1 2c1,-1 0,0 2,0 2,-1 6,-4 7,-5l0 -2 2 -1c0,0 3,0 4,0l2 1c0,3 2,6 5,6 1,3 6,5 8,6 1,2 3,4 3,6l2 2c2,0 3,1 3,2l1 0c1,0 4,0 5,0 0,1 0,1 1,1 1,-1 3,-1 3,-2 2,0 6,0 7,1 0,1 0,1 3,3l0 3 2 4c1,1 4,6 6,6l0 2c1,0 4,0 5,0 0,2 3,4 6,4 0,1 0,2 3,2 0,2 3,5 4,6 0,1 1,3 1,4l1 1 2 2c0,1 0,1 0,3l2 0 1 3 0 1c0,1 -1,2 -1,3 -3,5 -4,10 -4,17l2 2 0 4c2,0 2,2 4,2l0 4 3 1 0 4 2 1 0 2c2,0 2,2 3,3 2,0 3,0 4,1l3 1 3 2c0,1 3,3 5,3l0 4c0,0 2,4 3,4l0 1c0,1 1,6 1,6 -1,3 -2,17 -2,20l-3 1 -2 1c0,4 -1,9 -1,12 -18,0 -48,-3 -65,1l0 2c1,0 2,2 2,3l1 1c1,0 1,1 2,1 0,2 0,2 2,3 8,59 121,120 182,168l5 0c7,-4 18,-3 26,-3 -2,0 0,1 -2,1l0 5c1,3 1,8 1,11l-2 1c0,1 -3,2 -4,2 0,4 -1,10 -1,14 2,0 2,0 2,2l3 0 0 1 0 1 2 1 0 3c1,0 2,2 3,2 0,2 0,4 1,4l0 4 2 2c-1,1 -1,2 -1,4 0,1 1,4 2,6l0 10 1 1 2 0 1 1 0 4c3,0 3,0 4,3 -1,2 -2,6 -2,8 -1,1 -3,4 -3,6 0,0 -2,4 -2,5 0,3 -1,9 -1,13l-2 0c0,0 -1,3 -1,3l0 1c-1,2 -4,5 -5,7 -1,0 -3,4 -4,4l0 2c-1,0 -8,9 -8,11l-1 2 -4 2z"/>
  <g>
   <path class="fil4 str1" d="M327 758c-6,5 -27,2 -36,0 -8,-2 -10,-10 -18,-12 -6,-2 -14,46 -14,54 0,9 -5,44 -10,51 -5,7 -4,30 -9,40 -5,11 -5,24 -5,38 0,10 -5,35 11,27 8,-4 34,-1 43,-1 8,0 17,-1 23,-5 5,-3 52,34 62,39 20,8 38,22 62,28 20,5 41,25 5,25 -17,0 -38,-7 -52,-7 -15,0 -93,-6 -93,12 0,36 6,87 6,131 0,6 14,18 19,21 16,11 1,20 -6,34 -3,6 -7,12 -11,16 -3,3 -15,-1 -15,-4 -1,1 -19,-4 -20,-4 -9,0 -20,9 -26,15 4,-1 -24,29 -30,33l3 0"/>
   <path class="fil4 str2" d="M1170 722c10,-3 19,-1 28,-1 2,0 8,3 8,5 3,0 8,1 12,1 1,0 7,3 7,5l5 0 3 2c1,3 3,7 6,10l3 0c0,1 4,2 5,2 5,0 12,2 17,2l5 3c3,0 5,1 6,3 3,0 3,0 3,2l5 0c3,1 9,0 12,4l5 -1c1,0 5,2 5,3 2,0 3,1 5,1l2 2c2,2 9,6 12,7l1 4c4,0 5,2 7,3 3,0 6,4 9,6l3 0c0,3 3,4 6,4l2 1 2 3 4 2 5 1c2,2 3,3 5,3 0,2 1,2 3,4 2,0 3,1 6,1l1 3c4,2 11,7 13,7 2,1 3,3 4,3l1 1 3 4c0,3 0,6 0,9 1,2 1,8 1,12 -4,7 -6,18 -10,24 0,4 -3,8 -3,10 -3,1 -5,4 -5,7 -2,-1 -3,2 -5,2 -3,0 -5,2 -6,3l-3 0c-1,2 -6,4 -6,4 -1,1 -13,9 -13,9 -3,0 -8,1 -10,1l0 -4 -3 -2 0 -3c-1,0 -2,-3 -2,-5 -2,-2 -5,-5 -5,-7 -2,-1 -4,-5 -5,-7 -3,0 -8,1 -12,1 -2,2 -4,2 -7,2 -2,3 -8,5 -11,6l-9 0 -6 4c-2,0 -13,5 -16,5 -4,1 -12,4 -16,4 0,2 -2,5 -3,7 -5,-1 -9,-4 -13,-6 -2,0 -6,-3 -7,-4l-7 0c0,-2 -2,-2 -4,-2 -2,-3 -2,-3 -6,-3l0 -3 -4 -3c0,-1 -2,-5 -2,-6l0 -6c1,-2 2,-6 5,-9l1 -8 2 -5 0 -6c-5,-4 -6,-5 -9,-7l-2 -4c0,-3 -1,-4 -1,-6l-2 -5c-3,-3 -3,-4 -5,-4 0,-2 -1,-5 -1,-7l-2 -3 -3 -4 0 -4 -3 -1c-1,-4 -5,-10 -5,-13 -1,-2 -5,-6 -6,-8l0 -5 -6 -5c1,-11 0,-30 0,-43l3 -3 -4 -11"/>
   <path class="fil4 str2" d="M1524 370c0,-3 -2,-5 -2,-7 -3,0 -18,-2 -22,-3 -2,1 -2,1 -5,1 0,-2 -28,-16 -30,-16 -1,-3 -1,-3 -5,-3 0,-1 -2,-1 -2,-4 0,0 -10,-6 -11,-6 -5,-1 -24,6 -29,7 -3,2 -17,19 -22,22 -12,10 -19,28 -30,36 -17,11 -19,16 -25,33 -2,6 -6,21 -6,27 -1,13 -13,30 -13,45 0,6 -12,33 -16,34 0,5 -6,7 -4,12 -3,2 -18,31 -24,31 3,0 13,1 13,1 0,1 0,3 1,3 0,2 -2,7 -2,9 -2,2 -13,27 -16,32 4,4 -2,38 -2,45 0,10 -9,16 -6,27 0,3 3,20 2,22 1,3 4,6 4,10 2,0 5,10 5,11 0,1 -2,6 1,6l0 9"/>
   <path class="fil4 str2" d="M1526 503c-2,0 -5,3 -7,3 -2,1 -5,6 -6,6 0,1 -2,2 -3,2 -1,3 -11,10 -11,11l-2 0c-3,1 -5,3 -8,3l-2 2c-1,0 -4,0 -5,0 -2,1 -9,6 -11,7 -4,4 -9,10 -11,15 0,4 -2,6 -2,10 -3,2 -9,12 -9,16l-2 1 -3 1c0,7 0,16 1,22 0,1 -2,7 -2,9l0 9c-1,4 -1,11 -1,16l1 4 1 2c3,0 7,0 9,-2 2,0 5,0 7,1 0,15 -1,34 1,48l5 5c0,0 0,3 0,3 0,2 3,5 4,5 0,3 1,5 3,5 0,3 2,4 2,5l5 3 1 2 1 2 0 3 4 2 3 0c0,2 2,3 3,3l0 2c0,1 3,6 3,8l3 1c0,1 0,5 0,6l-3 2 0 3 -1 1c-2,0 -10,2 -14,2l-3 -1c-1,-1 -4,-3 -4,-5l-4 0c0,2 -5,4 -8,5l0 9 -5 5c0,0 -6,7 -6,7l-43 0 -1 1c0,1 1,5 1,6 0,2 -1,4 -1,6l3 3c0,6 0,12 0,18 0,1 1,3 1,5l2 0c0,3 1,5 1,6 -2,0 -3,0 -3,4l-1 2c0,0 -9,4 -9,4l-1 4"/>
   <path class="fil4 str2" d="M1742 629c-8,-4 -3,-4 -9,0l-63 31c-8,4 -21,13 -25,20 -3,4 -29,31 -31,31 -1,2 -11,12 -13,13l0 3c-2,0 -4,2 -5,3 2,3 6,9 7,11 0,14 -1,48 11,55 0,14 0,26 -2,40 -8,0 -27,0 -31,6 -7,0 -16,7 -23,7 0,2 -19,4 -22,4 -34,0 -70,2 -104,2l0 -2c-4,-2 -10,-11 -10,-16l-2 -1 0 -4c-4,0 -9,-12 -10,-11"/>
   <path class="fil4 str2" d="M1246 900c5,4 4,4 7,4l4 1c1,3 4,6 4,9 1,0 2,2 3,2 0,1 2,4 3,5 0,0 0,4 0,4l2 0c0,3 0,3 3,6 0,1 -2,4 -2,6 0,0 -2,2 -2,4 0,1 -1,3 -1,5l-1 1c0,0 -2,2 -2,2 0,3 -1,6 -1,9 -1,0 -2,2 -2,3 0,0 0,5 0,5l0 3c0,0 0,1 0,1l0 1c0,3 0,6 0,9l1 1c0,0 0,5 0,5 2,1 2,1 2,4 3,0 4,1 5,1l3 2c0,5 0,4 -2,12"/>
   <path class="fil4 str2" d="M1368 889c0,2 1,5 1,6l4 3c0,2 3,4 4,5l0 2c5,4 3,4 7,4 0,0 4,2 4,4 6,0 13,-2 19,-2 0,2 4,4 5,4 0,4 4,6 4,9 1,0 2,3 4,3l0 5 1 3 1 2c0,0 4,2 4,2l0 4c2,1 2,4 5,5l0 6c2,0 3,4 4,6 0,8 -1,16 -1,23 -1,3 -2,8 -2,10 -1,0 -4,6 -4,9 -1,0 -4,3 -5,5 0,6 -1,14 -1,20 -1,4 -1,11 -2,15l0 6c2,0 3,1 3,4 3,0 -1,1 4,1 0,3 1,5 2,6l0 4 3 1c0,1 3,4 5,4l0 13c2,3 8,5 10,8l3 0c1,1 5,1 8,1 0,1 4,1 4,3l5 0 3 2c0,1 2,2 2,3 4,2 9,3 10,5l4 0c0,1 1,5 1,6l2 4 4 2c0,2 -2,5 -2,7l0 3c1,0 3,4 4,5 0,4 4,6 4,10l3 1c0,3 -3,5 -3,6 1,0 4,-2 1,0 2,-1 2,12 2,14l4 0 -2 5 0 7c-2,4 -2,4 -2,6 -2,1 -4,13 -4,17 1,1 1,3 1,5 3,1 4,2 4,6 2,0 5,7 5,10 3,0 2,2 5,4l1 4c2,2 3,8 6,10l0 5c0,0 4,3 4,3 0,1 2,3 2,6 2,1 1,1 1,3 3,0 3,0 3,4l2 2c3,0 5,2 5,3 2,0 5,2 5,4 5,2 17,9 23,9 1,4 4,3 5,5 2,0 5,1 5,3 2,0 7,2 8,3 3,0 4,2 7,2l0 2c2,0 6,9 7,11l2 0 3 6 3 4 3 1c7,0 16,0 23,0 5,-10 12,-15 23,-15l4 -3c5,0 11,0 16,0 0,1 2,2 5,2l1 3c1,0 4,0 5,0 4,1 11,3 13,6l5 1c4,0 9,-1 12,-1l0 8 2 1 -2 3c2,2 2,2 2,5 1,0 1,5 3,5 -1,6 0,14 0,20l-2 5c0,5 0,14 0,19 1,1 2,5 4,5l2 3c0,3 0,3 2,4l0 2 0 5c2,3 2,4 4,4l0 2c0,3 1,5 1,8l3 1 1 2c0,3 4,14 5,15 0,2 0,5 1,7l0 14c-2,2 -10,14 -11,17 -1,0 -5,2 -5,4 -3,0 -10,1 -14,1 0,1 1,5 1,6 2,0 6,6 7,10l4 2c0,6 6,11 11,14l1 4 5 2c0,1 2,2 5,2l1 3c1,0 7,7 7,7 0,1 2,4 3,4 0,2 2,7 5,8 0,3 0,5 2,5l1 5c0,0 5,2 5,2 0,2 1,4 3,5 0,1 2,6 3,6l0 3 2 2c1,0 2,3 2,3l16 0c2,2 4,5 7,6l0 4c0,1 4,2 4,4l2 2c0,3 3,7 5,8 0,1 1,4 1,5 0,4 -1,4 3,5l-1 5 -5 5c0,1 -3,5 -3,6 2,0 3,1 3,2 1,5 2,0 2,5l14 0c0,3 0,6 0,9l2 1c4,0 7,-1 11,-1 -1,2 -2,11 -2,14 2,3 0,8 -2,11"/>
   <path class="fil4 str2" d="M1569 845c1,0 5,2 6,3 0,2 2,7 2,8l-1 6c5,10 0,43 0,55l0 44c1,0 3,3 3,3 3,0 7,0 7,2 2,0 5,0 7,2l6 -2c2,2 21,3 21,0 7,0 15,0 21,3l2 2c0,3 2,8 2,10l1 2c0,0 2,3 2,0l3 3c-3,1 -13,7 -15,10 0,3 0,14 -1,16 1,0 1,3 1,4 0,0 2,2 2,3l3 0c0,4 0,10 0,13 0,2 2,5 4,5 0,1 1,5 2,5l0 4 2 1c3,0 9,0 11,0 0,1 0,2 2,2 0,5 1,13 1,18l1 2 3 0 0 5c2,0 2,1 2,5 5,1 1,6 5,7l0 6c1,1 2,10 2,12 2,0 3,3 3,3l0 35c1,2 5,27 5,30 3,1 1,1 5,3l1 4c0,2 0,4 1,5 -1,2 -6,4 -10,4l0 8c-6,0 -13,0 -19,0 0,-1 -3,-4 -3,-5 -2,0 -5,-1 -7,-2 -1,5 -6,10 -7,13 -4,1 -14,12 -18,16 -1,0 -2,1 -4,1 0,-1 -2,-1 -3,-1 0,-2 -1,-4 -2,-5l0 -3c-2,0 -4,-5 -4,-7l-2 -1c0,-1 0,-3 0,-5 -2,-1 -4,-2 -3,-3l0 0c-4,0 -7,-4 -7,0 -3,-2 -8,-5 -10,-6 -1,0 -6,-2 -6,-3 -14,0 -32,-2 -45,-2 0,-2 -2,-3 -2,-5 -2,-1 -3,-4 -4,-5 0,-3 -4,-7 -5,-10l0 -12c-2,-1 -3,-5 -3,-7l-2 -5c-3,0 -5,-2 -8,-2 -6,5 -4,4 -15,4"/>
   <path class="fil4 str2" d="M1350 1068c1,-1 5,-5 7,-6 1,0 3,0 4,0l1 0c0,0 1,0 1,0 3,0 8,2 9,3l4 2c0,1 2,2 3,2 0,0 9,6 10,6l0 4c0,0 1,0 1,0 3,2 3,2 5,2 1,4 3,4 3,5l3 1c1,3 5,4 6,6 3,0 4,2 5,3 3,0 4,1 6,2 2,0 4,2 5,2l3 1c0,0 1,0 1,0l1 0c3,0 5,5 9,5 1,2 2,3 5,5l2 6 0 3c3,0 5,-3 6,-6 1,0 5,1 6,1l5 3 3 4 2 1c0,0 0,-1 0,-1 1,0 12,-8 11,-8 1,0 3,1 5,1l7 -2"/>
   <path class="fil4 str2" d="M1805 765c-2,7 -5,11 -6,16 -4,3 -15,12 -16,15l0 4c-3,3 -3,7 -3,11l1 3c2,1 2,2 2,3l1 3c2,0 7,0 10,0 0,2 2,5 3,7l0 12c3,0 4,1 4,3l2 0c0,2 0,2 3,2 0,7 1,16 1,23 -2,2 -6,3 -8,5 -3,0 -5,1 -5,3 -3,0 -8,7 -9,9l0 11c-1,2 -2,3 -2,4 -5,3 -4,9 -8,12 0,6 0,17 3,20 -1,1 -1,5 -1,7 -3,3 -4,6 -7,9l0 2c-1,3 -1,8 -1,11 0,1 1,3 1,4 0,1 -1,2 -1,4l-1 2 -4 1c0,3 -1,3 -2,5 0,3 1,5 1,7l3 2 0 3 2 0c0,0 0,4 0,4l2 0c0,1 0,4 0,5 3,0 3,1 4,2 0,2 0,3 1,3l0 6 3 1c0,1 0,4 2,4l0 3c1,2 1,3 1,5 -1,2 -2,4 -2,6 0,2 -2,4 -2,7 -2,0 -3,0 -3,-2l-2 2c-3,0 -5,0 -8,0 -1,1 -5,4 -6,4 -1,3 -5,8 -6,10 0,3 0,3 -2,5 0,5 -2,12 -2,17 0,0 -1,3 -2,3 0,6 -1,14 -1,20 -3,2 -3,2 -3,4 0,1 -3,5 -3,6 0,5 -5,14 -8,17 0,5 -1,20 2,22l0 2c0,1 0,4 0,6 0,0 2,5 3,6 0,3 3,10 3,14l1 3 1 1c0,0 4,0 4,0 0,1 5,4 6,4l1 2 3 0c-2,1 -5,9 -7,11l-4 0c-4,-3 -51,1 -60,1l-3 0"/>
   <path class="fil4 str2" d="M1891 1208c-6,-2 -12,-8 -15,-9l0 -2c0,-1 0,-3 0,-5 -2,0 -2,-1 -2,-2 -1,0 -3,-1 -6,-1l-3 -1 -5 -7c-4,0 -6,-2 -9,-2 0,-2 -2,-2 -5,-2l-1 -3c-1,0 -5,-4 -6,-4 0,-1 -1,-2 -1,-3l-3 -1 -1 -3c0,0 -2,-2 -2,-2 -2,-3 0,-4 -4,-4 0,-2 -3,-5 -5,-5l0 -2c-1,-2 -7,-3 -9,-3 0,0 -2,-1 -6,-3 -1,0 -5,0 -6,0l-1 2c-2,1 -7,2 -9,5l-1 0c-2,0 -5,0 -6,-1l-4 1 -1 4c0,1 -5,4 -5,7l-3 2c0,2 -2,5 -2,6 -1,2 -4,4 -4,5l-2 2c-3,1 -6,3 -9,3"/>
   <path class="fil4 str2" d="M855 777c-4,-9 -2,-15 -2,-24 3,-5 10,-19 14,-22l0 -4c3,-1 6,-3 7,-5l3 0c1,0 5,-3 7,-3l2 -3 6 0 3 -3c2,0 8,-2 11,-2l5 -3c1,0 7,0 8,0 4,-3 18,-7 24,-8l1 -3 3 0 1 1 2 3 0 4 1 -5c1,-2 5,-6 5,-7 2,0 6,-4 6,-6l18 0 5 2c2,2 7,2 9,5 2,0 5,2 6,2l39 0 1 1 0 3 3 0c0,2 0,2 3,2l0 5c1,-2 5,-5 8,-6l4 0c0,4 0,11 0,15 0,2 3,4 3,4l-1 4c4,-1 15,-12 17,-15 7,0 17,-1 24,-1 0,-1 3,-6 3,-7 0,-4 -2,-10 -2,-14 0,-1 3,-5 3,-8 1,0 4,-4 4,-5l6 0c1,-2 6,-5 8,-6l3 -1c2,0 6,0 9,0l3 2 5 0c0,2 2,2 3,2l2 3"/>
   <path class="fil4 str2" d="M742 774c0,1 1,4 3,5 -2,5 -2,9 -2,13 2,1 3,3 3,4l3 0 0 4 3 0c0,3 2,7 4,8l0 10c-3,3 -4,11 -4,16l1 3c3,0 4,3 7,3l3 1 0 3c2,3 4,7 7,7l0 4 2 0c0,3 2,4 3,4l3 0c1,0 3,2 4,2l0 13c0,2 -3,4 -4,6l-6 0c-1,0 -5,3 -7,3 -1,1 -4,4 -4,5 -8,3 -29,4 -38,4 -7,3 -50,18 -54,8l-3 0c0,-1 -1,-2 -1,-5l3 -6c0,6 -2,14 -2,20 -1,0 -1,2 -1,4l-10 0c-2,-2 -6,-2 -11,-2 -1,-2 -5,-4 -6,-5l-39 0 -5 3c-3,0 -6,1 -9,1 -1,4 -4,8 -7,12l0 3c-1,2 -4,6 -5,8 0,3 -1,6 -1,7 1,3 1,7 2,10l-1 3c0,6 -1,15 -1,20 -3,3 -3,7 -6,8l0 3c0,0 -4,3 -4,3l-1 4 -3 0 -3 3 0 3 -1 1 -4 3 -3 5c0,3 -2,6 -3,7l0 4c-1,2 -3,4 -4,4 0,3 -3,6 -3,7l0 10 -3 4c-6,0 -13,8 -20,8l-3 3c-4,0 -8,3 -11,4l-4 0c0,1 -1,1 -3,1l-3 2c-1,1 -8,5 -9,5l-4 6 -3 1c0,7 0,17 0,24 -1,0 -4,2 -6,4l0 22c2,0 2,11 2,13l1 2c3,0 0,1 3,1l0 3c1,1 3,5 4,7 0,1 -1,5 -1,7l-3 2c0,2 -3,6 -4,9 -3,0 -3,2 -4,2 0,10 -2,24 1,32l-1 4c1,3 1,8 1,13l0 5"/>
   <path class="fil4 str2" d="M936 815c0,6 3,18 3,22 -5,0 -11,2 -16,2 -2,2 -5,4 -9,4 -7,4 -19,5 -28,9 0,3 -4,9 -5,11l0 9c8,0 18,-2 26,-2 0,2 -1,6 -1,7 -2,1 -7,7 -7,8l-4 0c-2,2 -3,3 -3,6 -3,3 -3,14 -3,20 0,2 3,5 3,6 0,4 0,5 3,5 0,2 -2,5 -2,7 2,2 2,3 2,6 1,0 2,3 2,3l3 1c3,0 7,-3 8,-3 0,-5 2,-14 2,-18l1 -1 4 -3c2,0 6,0 7,0 1,0 3,2 6,2l1 1c0,3 3,3 3,4 2,0 2,0 2,3 5,0 6,9 9,9 0,3 1,5 1,6l-1 3c0,1 0,5 0,7l1 1c4,0 6,3 8,3 0,5 3,0 3,5l3 0c1,0 3,1 3,3l2 0c0,3 2,5 4,5 0,2 0,10 -2,7 -3,2 -7,4 -11,4l-10 0c0,4 -1,7 0,10 3,0 8,-1 11,-1 0,2 -1,5 -3,5 0,3 -2,4 -2,7l2 1c2,0 6,0 7,0l0 6 3 1c0,2 0,4 0,6 0,2 1,1 0,4l4 3c1,0 3,-2 4,-2l7 0c0,2 0,6 0,7l3 -1c0,4 1,4 3,8"/>
   <path class="fil4 str2" d="M536 1041c4,1 8,4 12,4l4 -3 7 -3c32,0 83,4 110,-12 7,0 17,-7 24,-7 0,4 2,11 2,14 -1,1 -5,4 -7,4l0 7c0,0 3,4 3,5l3 2c0,2 -1,6 -1,9 -3,2 -11,11 -13,11 0,2 -3,6 -3,7l9 0 2 1 2 5c1,0 3,4 3,5 1,0 2,4 4,6l0 4 2 0 0 4c2,0 2,1 2,3l4 2c7,0 14,-2 21,-4 1,-1 9,-15 12,-15l0 -3c3,-2 7,-7 10,-8l1 -4c3,-1 7,-6 8,-7 2,0 4,-1 6,-1 7,-3 16,-7 23,-11 6,0 14,-4 16,-9 3,0 3,0 5,-2 4,0 15,-6 16,-9l7 0 5 3c0,0 0,4 0,4 3,2 5,4 6,7l4 -1 1 3 3 0 3 2c3,0 5,2 8,2l4 -3 3 0 3 -3c3,0 5,0 8,0l4 3 4 0c2,1 3,1 3,4 4,0 4,0 4,3 6,0 14,-2 19,-2 3,-1 7,-1 9,-2 4,0 20,1 22,-3l2 -1c0,0 5,0 5,0l1 -3 4 0c3,1 7,5 8,7l11 0"/>
   <path class="fil4 str2" d="M1075 1058c2,7 4,23 4,31l3 3c3,0 6,0 9,0 2,0 6,-2 8,-2 0,1 3,1 4,1 0,5 -2,10 -2,13 -2,4 -5,9 -8,11l0 7c1,1 3,2 4,3l0 6c-3,3 -3,4 -3,6l-3 0c0,4 -4,8 -5,10 0,4 -1,9 -1,12l-3 2c0,1 -3,7 -3,9 0,4 -3,10 -5,13 0,2 -2,5 -2,7l-3 4c0,1 0,3 0,5l2 1 3 1 2 2 3 4c2,0 6,0 8,0l0 21c0,1 -4,5 -4,6 0,4 0,9 2,11 -3,5 -2,18 -2,24 0,0 2,3 3,3l1 2 3 4 0 4c1,0 1,9 1,11l-3 2c0,1 -1,4 -1,5l-2 4c-3,0 -4,1 -5,1l-4 -5c-5,0 -11,-1 -16,-1l-3 3 -4 2c-3,0 -5,0 -6,-3l-3 0 0 -2 -3 0c0,0 -8,11 -4,11l-4 0 -3 -1 -3 -4c0,-3 -2,-6 -3,-6l-3 -5c-4,0 -8,-3 -11,-5 0,-2 0,-5 -2,-6l0 -4c-3,-1 -3,-2 -5,-2l0 -4c-1,-1 -1,-2 -1,-5 -2,0 -3,-2 -3,-5l-2 -3c-2,0 -4,-5 -5,-5l0 -5c-4,0 -9,-5 -10,-7 -5,0 -26,1 -28,3l-6 0c-3,3 -6,3 -8,5l-9 0c-2,0 -4,-2 -6,-2l-2 -3c-1,0 -2,-2 -3,-2 0,-1 -5,-4 -6,-5"/>
   <path class="fil4 str2" d="M1316 1112c-3,-9 -4,-5 -4,-9 -2,0 -2,0 -2,-2 -3,0 -4,-1 -5,-3l-4 0c0,-2 -2,-1 -4,-1 -2,0 -5,-4 -6,-5 0,1 -3,-1 -5,-1 0,-1 -2,-2 -5,-2 0,-3 -1,0 -1,-3l-3 0c-3,-2 -10,-6 -13,-7 -6,0 -8,-4 -13,-4l-5 -5 0 4 2 0c0,1 2,5 2,6 1,1 3,6 3,6l0 6c2,1 2,12 2,16 1,0 4,4 6,5l0 4c3,0 -3,11 -3,11 -5,1 -7,0 -12,0l-1 -3 -5 -1 -3 -2 -3 0c0,-2 -3,-3 -4,-4l-5 0c-2,-3 -6,-3 -7,-5 -3,0 -5,1 -6,1 0,1 -1,3 -3,4 0,4 -2,7 -2,11 -3,0 -5,5 -9,5 -5,-3 -18,0 -18,7l-13 0c0,-1 0,-6 0,-7 -4,-3 -2,-3 -3,-6 0,1 -10,2 -12,2 -5,0 -10,-1 -15,-1l1 1c0,1 0,6 0,7l-44 0"/>
   <path class="fil4 str2" d="M1203 1131c-1,14 0,30 0,43l31 0c-1,4 -1,10 0,11l0 4c1,3 1,10 1,13 4,9 4,28 4,38l11 0c0,1 1,3 1,4 0,0 1,2 2,2l0 0 2 1c0,2 0,7 0,8 2,0 0,1 2,1l1 2c3,0 4,3 6,3 0,2 2,2 3,5l-1 5c-3,0 -7,1 -9,1l-2 2 2 3 1 5 3 1 2 0c0,2 1,0 1,2l3 0c0,2 1,2 2,2l0 4 4 3 0 2c-3,0 -5,0 -7,-1 0,3 -2,0 -2,-1 -2,0 -2,1 -3,-1l-4 0 -2 2 -3 4c0,5 -2,14 -5,18 0,3 -2,6 -3,9l0 2c-2,3 -4,5 -4,9 -1,0 -5,8 -6,11 0,5 -8,19 -10,22 0,3 -1,8 -1,12 -5,10 -9,28 -9,39 -3,5 -5,10 -5,16 -1,4 -2,17 -2,22 -3,2 -4,5 -4,8 -1,2 -2,4 -2,7 -4,1 -3,11 -6,12l2 1 3 0c1,0 2,1 3,1 0,5 -1,11 -1,15l-4 2c-2,0 -6,2 -8,3l-1 2c0,6 0,14 0,20 2,0 0,1 2,1 0,2 2,1 2,5l3 0c0,0 4,2 4,2l0 5 1 1c1,0 3,-1 6,-1 0,-1 1,-1 2,-1l4 -2 5 0 4 -3 2 0c0,0 2,3 2,3 3,0 15,4 18,7 2,0 3,0 3,2l4 0c0,4 4,4 10,5"/>
   <path class="fil4 str2" d="M887 1236c-4,7 -13,8 -14,11 -2,0 -7,2 -10,2 0,1 0,2 2,2 0,9 1,18 0,27 -4,16 -15,33 -25,48 -3,5 -8,16 -12,22 -5,8 -13,18 -17,27 -20,0 -33,30 -33,46 0,10 1,28 -3,38 -2,8 -9,18 -9,28 0,11 -2,23 -2,35 0,15 -6,31 -6,46l-13 0c0,3 0,8 0,12l4 1c0,5 -3,9 1,14"/>
   <path class="fil4 str2" d="M1037 1310c5,7 11,16 11,25 0,10 7,25 10,33 0,2 2,9 2,9 3,5 8,9 8,10 0,2 2,8 4,10 0,4 5,17 8,18 0,2 2,4 3,6 2,1 2,5 2,7 3,4 5,15 5,21 0,4 -2,10 -4,10l-4 0c-1,0 -2,2 -3,4l0 1c0,0 -4,11 -4,11 -1,1 -6,8 -6,10 -3,6 -5,14 -11,18 -5,2 -15,6 -17,11 -6,2 -17,7 -24,11 -3,2 -15,7 -17,11 2,0 -3,8 -3,10 -2,2 -2,12 -2,16 0,0 -3,3 -4,3"/>
  </g>
  <g>
   <rect class="fil5" x="684" y="453" width="79" height="157"/>
   <rect class="fil6" x="763" y="453" width="79" height="157"/>
   <rect class="fil7" x="841" y="453" width="79" height="157"/>
  </g>
  <rect class="fil8 str3" x="1888" y="1344" width="236" height="156"/>
  <path class="fil9" d="M1940 1353l0 2 -2 5 -5 0 -2 0 2 1 4 3 -2 5 -1 2 2 -1 4 -3 4 3 2 1 -1 -2 -1 -5 4 -3 1 -1 -2 0 -5 0 -1 -5 -1 -2zm0 5l1 3 0 1 1 0 3 0 -2 2 -1 0 0 0 1 4 -2 -2 -1 -1 0 1 -3 2 1 -4 0 0 0 0 -3 -2 3 0 1 0 0 -1 1 -3z"/>
  <path class="fil9" d="M1921 1385l5 5 4 -4 27 26 4 -3 -28 -26 6 -6 -9 -2 -9 10z"/>
  <path class="fil9" d="M1943 1373c10,7 15,13 15,20 0,15 -16,22 -27,10l0 2 -2 0c-1,2 -3,5 -4,7 -3,1 -5,0 -4,-4 2,-2 4,-3 6,-5l0 -2 3 0 0 -1 2 0c10,11 22,0 21,-9 0,-8 -3,-11 -10,-18l0 0z"/>
  <path class="fil2 str0" d="M79 538c0,0 1,-2 2,-3l0 -1c0,-1 1,-4 3,-5 0,0 0,-2 0,-2l1 -1c0,-1 1,-5 1,-7l2 -2c0,0 1,-1 1,-1l1 0c1,-2 3,-7 4,-9l1 0c1,0 3,-1 4,-1l5 -4c1,0 4,0 4,0 1,0 4,0 5,0 0,0 1,0 1,0l1 0c0,0 1,0 1,0l1 0c2,0 5,1 7,1l1 1c1,0 2,-1 2,1 1,0 3,0 4,0l2 2c0,0 3,0 3,0 1,1 2,1 2,3 1,0 2,0 3,0l1 0c0,0 2,0 2,0 2,0 3,0 5,1 1,0 2,0 3,0 1,0 2,0 3,0l2 0c0,0 1,0 1,0 1,0 3,2 3,3 1,0 2,2 2,2 1,0 4,0 5,0 0,0 0,2 0,2 0,1 -2,4 -2,4l0 2c0,0 0,1 0,1 0,2 0,5 -1,7l-5 1c-1,0 -2,0 -3,0 -1,0 -2,0 -3,0 -2,0 -5,0 -6,0l-1 0c0,0 -4,0 -4,0 -27,4 -8,47 -52,17l-2 -3 -3 0c0,-2 -3,-4 -3,-5l-2 -2 -3 0 1 -2z"/>
  <path class="fil2 str0" d="M328 603l-1 3c0,0 -1,1 -1,1 0,1 -1,2 -1,3 0,1 0,1 0,2l0 0c0,0 0,1 0,1 0,2 0,4 0,5l0 1c0,0 0,1 0,1 0,1 0,2 0,2 1,1 1,1 1,3 0,0 0,1 1,1l1 2 1 0c0,0 2,0 2,0l2 0 1 -1c0,-1 1,-4 1,-4l1 -1c0,-1 1,-2 1,-3 0,0 0,-1 0,-1 0,0 0,-2 0,-2l0 -1c0,0 0,-1 0,-1l0 -1c0,-1 0,-3 0,-4l-2 -1 0 -2c-1,0 -1,-1 -1,-1l-2 -2c0,0 -3,0 -4,0z"/>
  <path class="fil1 str0" d="M239 1760l-3 2c0,0 -2,1 -2,1l-2 1c0,1 -3,3 -3,3 -1,1 -2,2 -2,3 0,0 -2,3 -2,4 0,0 0,1 0,2l0 1c0,0 0,1 0,1l0 2c0,1 1,3 2,3 0,1 2,2 2,2l0 1c0,0 1,2 1,2 0,0 0,2 0,3l1 1c0,0 1,0 1,0 1,0 4,0 6,0 0,0 0,-1 0,-2 0,-1 2,-5 2,-5 3,-4 1,-2 3,-4 0,0 3,-2 4,-3 0,0 2,-3 3,-3l1 -1c0,0 0,-1 0,-1 0,0 0,-2 0,-2 0,-1 0,-2 0,-4 -2,0 -3,-1 -4,-1 0,-1 0,-3 0,-3l-1 0c0,0 -1,-4 -1,-4 0,0 -2,-1 -2,-2l-2 0c-1,0 -3,2 -2,3z"/>
  <path class="fil1 str0" d="M298 1650c1,1 3,3 3,6 -2,1 -4,4 -6,5l-1 0c0,0 -1,2 -1,2 -1,1 -1,1 -2,3 -2,0 -4,2 -4,2l-2 1c-1,0 -2,1 -3,1 -1,0 -2,0 -2,0 0,0 -2,0 -2,0l-1 0c0,0 -1,0 -1,0 -1,0 -4,0 -5,0l-3 2c0,0 0,1 0,1 0,1 -3,3 -3,5 0,0 1,1 1,1l0 1c0,0 0,1 0,1 0,2 0,3 2,4 0,1 1,3 1,4l2 1c0,1 1,2 1,3l1 2 1 1c0,0 2,0 2,0l0 0c0,0 1,0 1,0 3,0 6,1 9,1 1,-1 2,-3 4,-3 0,0 0,-3 0,-3 -1,0 -2,-1 -3,-1 0,0 -2,-2 -3,-2 0,-2 -1,-3 -1,-5l0 -1 -1 -2 -2 -1c0,0 0,-1 0,-1 0,-1 0,-4 0,-5l1 0c0,0 3,-3 4,-3 0,0 2,-3 2,-3 1,0 3,-2 4,-2 0,-1 0,-1 1,-1l2 -3c0,0 1,-1 1,-2 0,0 3,-2 3,-2 0,0 0,-2 1,-2l-1 -5z"/>
  <path class="fil1 str0" d="M362 1703c2,0 5,0 6,0 1,0 2,0 3,0 0,0 3,0 3,0l1 0c0,0 0,0 0,0 2,0 5,-2 7,-2l0 -4c1,0 4,0 6,0 0,0 3,0 3,0 0,0 3,0 3,0l3 0c0,0 0,0 0,0 1,0 2,0 3,0 0,0 2,0 2,0l0 3 1 2 1 1 0 2 2 2c0,0 0,3 0,3l0 2c0,0 0,1 0,1l0 2c0,2 0,4 -2,5l0 2c0,0 0,1 0,1 0,2 -1,5 -1,7l-2 2 -1 1c-1,0 -3,1 -4,2 -2,0 -3,1 -5,1 -1,0 -1,0 -2,0 -1,0 -4,0 -4,0l-3 -1c0,0 -1,0 -1,0 -2,0 -5,-1 -6,-1l0 -2c-1,-1 -2,-3 -4,-5 0,-1 -1,-3 -1,-4l-2 0 -4 -1 -2 -2 -3 0 1 -2c0,0 -1,-2 -1,-2 0,-1 0,-4 0,-6l1 -1c0,-1 1,-3 2,-6z"/>
  <g>
   <rect class="fil10" x="382" y="774" width="236" height="118"/>
   <path class="fil11" d="M618 774l-78 39 -18 0 78 -39 18 0z"/>
   <path class="fil12" d="M591 773l-72 0 0 36 72 -36z"/>
   <path class="fil12" d="M617 786l0 27 -51 0 51 -27z"/>
   <path class="fil12" d="M565 852l52 0 0 26 -52 -26z"/>
   <path class="fil12" d="M591 891l-72 0 0 -35 72 35z"/>
   <path class="fil11" d="M618 892l0 -10 -62 -30 -17 0 79 40z"/>
   <path class="fil12" d="M480 855l0 36 -72 0 72 -36z"/>
   <path class="fil11" d="M382 892l78 -40 18 0 -79 39 -17 1z"/>
   <path class="fil12" d="M434 852l-52 0 0 26 52 -26z"/>
   <path class="fil11" d="M382 774l78 39 -18 0 -60 -31 0 -8z"/>
   <path class="fil12" d="M382 787l0 26 52 0 -52 -26z"/>
   <path class="fil12" d="M407 773l73 0 0 37 -73 -37z"/>
   <path class="fil11" d="M487 892l24 0 0 -48 107 0 0 -23 -107 0 0 -47 -23 0 0 47 -107 0 0 23 107 0 -1 48z"/>
  </g>
  <g>
   <rect class="fil13" x="482" y="1313" width="236" height="124"/>
   <g>
    <rect class="fil6" x="482" y="1323" width="236" height="10"/>
    <rect class="fil6" x="482" y="1342" width="236" height="10"/>
    <rect class="fil6" x="482" y="1361" width="236" height="10"/>
    <rect class="fil6" x="482" y="1380" width="236" height="10"/>
    <rect class="fil6" x="482" y="1399" width="236" height="10"/>
    <rect class="fil6" x="482" y="1418" width="236" height="10"/>
   </g>
   <rect class="fil14" x="482" y="1313" width="94" height="67"/>
   <g>
    <g>
     <path class="fil10" d="M493 1322l1 3 2 0 -2 1 1 2 -2 -1 -2 1 1 -2 -2 -1 2 0 1 -3zm0 2m2 1m0 0m-1 2m0 0m-2 0m0 0m-1 -2m0 0m2 -1"/>
     <path class="fil10" d="M508 1322l0 3 2 0 -1 1 0 2 -1 -1 -2 1 0 -2 -1 -1 2 0 1 -3zm0 2m1 1m0 0m0 2m-1 0m-1 0m-1 0m0 -2m0 0m1 -1"/>
     <path class="fil10" d="M522 1322l1 3 2 0 -2 1 1 2 -2 -1 -2 1 1 -2 -2 -1 2 0 1 -3zm0 2m2 1m0 0m-1 2m0 0m-2 0m0 0m-1 -2m0 0m2 -1"/>
     <path class="fil10" d="M536 1322l1 3 2 0 -2 1 1 2 -2 -1 -1 1 0 -2 -1 -1 2 0 0 -3zm1 2m1 1m0 0m0 2m-1 0m-1 0m-1 0m-1 -2m1 0m1 -1"/>
     <path class="fil10" d="M551 1322l0 3 3 0 -2 1 0 2 -1 -1 -2 1 1 -2 -2 -1 2 0 1 -3zm0 2m1 1m1 0m-1 2m0 0m-2 0m-1 0m0 -2m0 0m1 -1"/>
     <path class="fil10" d="M565 1322l1 3 2 0 -2 1 1 2 -2 -1 -2 1 1 -2 -2 -1 3 0 0 -3zm1 2m1 1m0 0m0 2m-1 0m-2 0m0 0m-1 -2m0 0m2 -1"/>
    </g>
    <g>
     <path class="fil10" d="M500 1330l1 2 2 0 -2 1 1 2 -2 -1 -1 1 0 -2 -1 -1 2 0 0 -2zm1 1m1 1m0 0m0 2m-1 0m-2 0m0 0m-1 -2m1 0m1 -1"/>
     <path class="fil10" d="M515 1330l0 2 2 0 -1 1 0 2 -1 -1 -2 1 1 -2 -2 -1 2 0 1 -2zm0 1m1 1m1 0m-1 2m0 0m-2 0m-1 0m0 -2m0 0m1 -1"/>
     <path class="fil10" d="M529 1330l1 2 2 0 -2 1 1 2 -2 -1 -2 1 1 -2 -2 -1 2 0 1 -2zm0 1m2 1m0 0m0 2m-1 0m-2 0m0 0m-1 -2m0 0m2 -1"/>
     <path class="fil10" d="M544 1330l0 2 2 0 -1 1 0 2 -1 -1 -2 1 1 -2 -2 -1 2 0 1 -2zm0 1m1 1m0 0m0 2m-1 0m-1 0m-1 0m0 -2m0 0m1 -1"/>
     <path class="fil10" d="M558 1330l1 2 2 0 -2 1 1 2 -2 -1 -2 1 1 -2 -2 -1 2 0 1 -2zm0 1m2 1m0 0m-1 2m0 0m-2 0m0 0m-1 -2m0 0m2 -1"/>
    </g>
    <g>
     <path class="fil10" d="M500 1344l1 2 2 0 -2 2 1 2 -2 -2 -1 2 0 -2 -1 -2 2 0 0 -2zm1 1m1 1m0 1m0 2m-1 0m-2 0m0 0m-1 -2m1 -1m1 -1"/>
     <path class="fil10" d="M515 1344l0 2 2 0 -1 2 0 2 -1 -2 -2 2 1 -2 -2 -2 2 0 1 -2zm0 1m1 1m1 1m-1 2m0 0m-2 0m-1 0m0 -2m0 -1m1 -1"/>
     <path class="fil10" d="M529 1344l1 2 2 0 -2 2 1 2 -2 -2 -2 2 1 -2 -2 -2 2 0 1 -2zm0 1m2 1m0 1m0 2m-1 0m-2 0m0 0m-1 -2m0 -1m2 -1"/>
     <path class="fil10" d="M544 1344l0 2 2 0 -1 2 0 2 -1 -2 -2 2 1 -2 -2 -2 2 0 1 -2zm0 1m1 1m0 1m0 2m-1 0m-1 0m-1 0m0 -2m0 -1m1 -1"/>
     <path class="fil10" d="M558 1344l1 2 2 0 -2 2 1 2 -2 -2 -2 2 1 -2 -2 -2 2 0 1 -2zm0 1m2 1m0 1m-1 2m0 0m-2 0m0 0m-1 -2m0 -1m2 -1"/>
    </g>
    <g>
     <path class="fil10" d="M500 1359l1 2 2 0 -2 1 1 2 -2 -1 -1 1 0 -2 -1 -1 2 0 0 -2zm1 1m1 1m0 0m0 2m-1 0m-2 0m0 0m-1 -2m1 0m1 -1"/>
     <path class="fil10" d="M515 1359l0 2 2 0 -1 1 0 2 -1 -1 -2 1 1 -2 -2 -1 2 0 1 -2zm0 1m1 1m1 0m-1 2m0 0m-2 0m-1 0m0 -2m0 0m1 -1"/>
     <path class="fil10" d="M529 1359l1 2 2 0 -2 1 1 2 -2 -1 -2 1 1 -2 -2 -1 2 0 1 -2zm0 1m2 1m0 0m0 2m-1 0m-2 0m0 0m-1 -2m0 0m2 -1"/>
     <path class="fil10" d="M544 1359l0 2 2 0 -1 1 0 2 -1 -1 -2 1 1 -2 -2 -1 2 0 1 -2zm0 1m1 1m0 0m0 2m-1 0m-1 0m-1 0m0 -2m0 0m1 -1"/>
     <path class="fil10" d="M558 1359l1 2 2 0 -2 1 1 2 -2 -1 -2 1 1 -2 -2 -1 2 0 1 -2zm0 1m2 1m0 0m-1 2m0 0m-2 0m0 0m-1 -2m0 0m2 -1"/>
    </g>
    <g>
     <path class="fil10" d="M493 1337l1 2 2 0 -2 1 1 2 -2 -1 -2 1 1 -2 -2 -1 2 0 1 -2zm0 1m2 1m0 1m-1 1m0 1m-2 0m0 -1m-1 -1m0 -1m2 -1"/>
     <path class="fil10" d="M508 1337l0 2 2 0 -1 1 0 2 -1 -1 -2 1 0 -2 -1 -1 2 0 1 -2zm0 1m1 1m0 1m0 1m-1 1m-1 0m-1 -1m0 -1m0 -1m1 -1"/>
     <path class="fil10" d="M522 1337l1 2 2 0 -2 1 1 2 -2 -1 -2 1 1 -2 -2 -1 2 0 1 -2zm0 1m2 1m0 1m-1 1m0 1m-2 0m0 -1m-1 -1m0 -1m2 -1"/>
     <path class="fil10" d="M536 1337l1 2 2 0 -2 1 1 2 -2 -1 -1 1 0 -2 -1 -1 2 0 0 -2zm1 1m1 1m0 1m0 1m-1 1m-1 0m-1 -1m-1 -1m1 -1m1 -1"/>
     <path class="fil10" d="M551 1337l0 2 3 0 -2 1 0 2 -1 -1 -2 1 1 -2 -2 -1 2 0 1 -2zm0 1m1 1m1 1m-1 1m0 1m-2 0m-1 -1m0 -1m0 -1m1 -1"/>
     <path class="fil10" d="M565 1337l1 2 2 0 -2 1 1 2 -2 -1 -2 1 1 -2 -2 -1 3 0 0 -2zm1 1m1 1m0 1m0 1m-1 1m-2 0m0 -1m-1 -1m0 -1m2 -1"/>
    </g>
    <g>
     <path class="fil10" d="M493 1351l1 2 2 0 -2 2 1 2 -2 -2 -2 2 1 -2 -2 -2 2 0 1 -2zm0 1m2 1m0 1m-1 2m0 0m-2 0m0 0m-1 -2m0 -1m2 -1"/>
     <path class="fil10" d="M508 1351l0 2 2 0 -1 2 0 2 -1 -2 -2 2 0 -2 -1 -2 2 0 1 -2zm0 1m1 1m0 1m0 2m-1 0m-1 0m-1 0m0 -2m0 -1m1 -1"/>
     <path class="fil10" d="M522 1351l1 2 2 0 -2 2 1 2 -2 -2 -2 2 1 -2 -2 -2 2 0 1 -2zm0 1m2 1m0 1m-1 2m0 0m-2 0m0 0m-1 -2m0 -1m2 -1"/>
     <path class="fil10" d="M536 1351l1 2 2 0 -2 2 1 2 -2 -2 -1 2 0 -2 -1 -2 2 0 0 -2zm1 1m1 1m0 1m0 2m-1 0m-1 0m-1 0m-1 -2m1 -1m1 -1"/>
     <path class="fil10" d="M551 1351l0 2 3 0 -2 2 0 2 -1 -2 -2 2 1 -2 -2 -2 2 0 1 -2zm0 1m1 1m1 1m-1 2m0 0m-2 0m-1 0m0 -2m0 -1m1 -1"/>
     <path class="fil10" d="M565 1351l1 2 2 0 -2 2 1 2 -2 -2 -2 2 1 -2 -2 -2 3 0 0 -2zm1 1m1 1m0 1m0 2m-1 0m-2 0m0 0m-1 -2m0 -1m2 -1"/>
    </g>
    <g>
     <path class="fil10" d="M493 1366l1 2 2 0 -2 1 1 2 -2 -1 -2 1 1 -2 -2 -1 2 0 1 -2zm0 1m2 1m0 0m-1 2m0 0m-2 0m0 0m-1 -2m0 0m2 -1"/>
     <path class="fil10" d="M508 1366l0 2 2 0 -1 1 0 2 -1 -1 -2 1 0 -2 -1 -1 2 0 1 -2zm0 1m1 1m0 0m0 2m-1 0m-1 0m-1 0m0 -2m0 0m1 -1"/>
     <path class="fil10" d="M522 1366l1 2 2 0 -2 1 1 2 -2 -1 -2 1 1 -2 -2 -1 2 0 1 -2zm0 1m2 1m0 0m-1 2m0 0m-2 0m0 0m-1 -2m0 0m2 -1"/>
     <path class="fil10" d="M536 1366l1 2 2 0 -2 1 1 2 -2 -1 -1 1 0 -2 -1 -1 2 0 0 -2zm1 1m1 1m0 0m0 2m-1 0m-1 0m-1 0m-1 -2m1 0m1 -1"/>
     <path class="fil10" d="M551 1366l0 2 3 0 -2 1 0 2 -1 -1 -2 1 1 -2 -2 -1 2 0 1 -2zm0 1m1 1m1 0m-1 2m0 0m-2 0m-1 0m0 -2m0 0m1 -1"/>
     <path class="fil10" d="M565 1366l1 2 2 0 -2 1 1 2 -2 -1 -2 1 1 -2 -2 -1 3 0 0 -2zm1 1m1 1m0 0m0 2m-1 0m-2 0m0 0m-1 -2m0 0m2 -1"/>
    </g>
   </g>
  </g>
  <rect class="fil4 str4" x="684" y="453" width="236" height="157"/>
  <rect class="fil4 str4" x="382" y="774" width="236" height="118"/>
  <rect class="fil4 str4" x="482" y="1313" width="236" height="124"/>
 </g>
</svg>
