<?xml version="1.0" encoding="UTF-8" standalone="no"?>
<!-- Created with Inkscape (http://www.inkscape.org/) -->

<svg
   xmlns:dc="http://purl.org/dc/elements/1.1/"
   xmlns:cc="http://creativecommons.org/ns#"
   xmlns:rdf="http://www.w3.org/1999/02/22-rdf-syntax-ns#"
   xmlns:svg="http://www.w3.org/2000/svg"
   xmlns="http://www.w3.org/2000/svg"
   xmlns:sodipodi="http://sodipodi.sourceforge.net/DTD/sodipodi-0.dtd"
   xmlns:inkscape="http://www.inkscape.org/namespaces/inkscape"
   width="194.74339mm"
   height="35.647926mm"
   viewBox="0 0 194.74339 35.647926"
   version="1.1"
   id="svg34"
   sodipodi:docname="morena 1 trz.svg"
   inkscape:version="0.92.1 r15371">
  <defs
     id="defs28" />
  <sodipodi:namedview
     id="base"
     pagecolor="#ffffff"
     bordercolor="#666666"
     borderopacity="1.0"
     inkscape:pageopacity="0.0"
     inkscape:pageshadow="2"
     inkscape:zoom="0.98994949"
     inkscape:cx="314.64763"
     inkscape:cy="93.430376"
     inkscape:document-units="mm"
     inkscape:current-layer="layer1"
     showgrid="true"
     inkscape:window-width="1366"
     inkscape:window-height="705"
     inkscape:window-x="-8"
     inkscape:window-y="-8"
     inkscape:window-maximized="1"
     inkscape:measure-start="0,0"
     inkscape:measure-end="0,0">
    <inkscape:grid
       type="xygrid"
       id="grid40"
       spacingx="6.35"
       spacingy="6.35"
       color="#f03fff"
       opacity="0.1254902"
       originx="1.4778751e-006"
       originy="-31.086958" />
  </sodipodi:namedview>
  <metadata
     id="metadata31">
    <rdf:RDF>
      <cc:Work
         rdf:about="">
        <dc:format>image/svg+xml</dc:format>
        <dc:type
           rdf:resource="http://purl.org/dc/dcmitype/StillImage" />
        <dc:title></dc:title>
      </cc:Work>
    </rdf:RDF>
  </metadata>
  <g
     inkscape:label="Capa 1"
     inkscape:groupmode="layer"
     id="layer1"
     transform="translate(2.9028576,-79.083948)">
    <g
       id="g3714">
      <g
         aria-label="morena"
         transform="scale(0.97016758,1.0307498)"
         style="font-style:normal;font-variant:normal;font-weight:normal;font-stretch:normal;font-size:10.26760674px;line-height:6.41725397px;font-family:Surface;-inkscape-font-specification:Surface;letter-spacing:0px;word-spacing:0px;fill:#000000;fill-opacity:1;stroke:none;stroke-width:0.25669014"
         id="text38">
        <path
           d="M -2.9921198,78.367497 V 110.56671 H 6.5362193 V 85.513751 c 0,0 2.8749299,-0.657127 4.0249017,-0.657127 1.560676,0 3.778479,0.164282 3.778479,3.86062 v 21.849466 h 9.446199 V 85.513751 c 0,0 3.039211,-0.657127 4.107042,-0.657127 1.314254,0 3.532057,-0.164282 3.532057,3.86062 v 21.849466 h 9.528339 V 88.717244 c 0,-11.006874 -7.392677,-11.171156 -11.089015,-11.171156 -3.203493,0 -6.653409,1.067831 -9.035494,2.382085 -2.710648,-2.053521 -5.585578,-2.382085 -8.378367,-2.382085 -2.4642258,0 -5.3391557,1.149972 -7.2283954,2.135662 L 3.4970077,77.546088 Z"
           style="font-size:82.14085388px;letter-spacing:-2.31021142px;fill:#aa0000;stroke-width:0.25669014"
           id="path3716"
           inkscape:connector-curvature="0" />
        <path
           d="m 46.21282,94.384963 c 0,9.774757 5.914142,16.838877 15.606763,16.838877 9.774761,0 15.688903,-7.06412 15.688903,-16.838877 0,-9.774761 -5.996283,-16.838875 -15.688903,-16.838875 -9.61048,0 -15.606763,7.064114 -15.606763,16.838875 z m 9.52834,0 c 0,-4.928451 1.314253,-9.856902 6.078423,-9.856902 4.84631,0 6.078423,4.928451 6.078423,9.856902 0,4.846311 -1.232113,10.021187 -6.078423,10.021187 -4.76417,0 -6.078423,-5.174876 -6.078423,-10.021187 z"
           style="font-size:82.14085388px;letter-spacing:-2.31021142px;fill:#aa0000;stroke-width:0.25669014"
           id="path3718"
           inkscape:connector-curvature="0" />
        <path
           d="m 100.69916,76.72468 c -4.846312,0.410704 -8.542651,2.464225 -10.185468,3.614197 l -1.724958,-2.792789 -3.121352,0.328564 c -0.821409,0.164281 -2.053522,0.246422 -3.449916,0.410704 v 32.281354 h 9.446198 V 86.663723 c 0,0 4.76417,-0.98569 7.803381,-0.98569 z"
           style="font-size:82.14085388px;letter-spacing:-2.31021142px;fill:#aa0000;stroke-width:0.25669014"
           id="path3720"
           inkscape:connector-curvature="0" />
        <path
           d="m 115.17006,77.546088 c -8.62479,0 -14.62107,5.914142 -14.62107,16.838875 0,10.842597 6.24271,17.085297 14.21037,16.921017 7.6391,-0.16428 12.81397,-3.12135 12.81397,-3.12135 l -0.73927,-5.74986 c -1.39639,0.32856 -6.16056,1.56067 -9.69262,1.56067 -3.94276,0 -6.81769,-2.6285 -7.14625,-7.556955 l 17.98885,0.410704 c 0.0821,-0.246423 0.49284,-1.232113 0.57498,-1.560676 0.0821,-0.08214 0.24643,-0.410705 0.24643,-0.410705 0.0821,-0.657126 0.16428,-1.560676 0.16428,-2.382084 0,-9.939044 -5.17488,-14.949636 -13.79967,-14.949636 z m 0.16429,6.899832 c 2.05352,0 3.94276,1.97138 4.27132,5.996282 h -9.4462 c 0.32856,-5.832 3.12135,-5.996282 5.17488,-5.996282 z"
           style="font-size:82.14085388px;letter-spacing:-2.31021142px;fill:#aa0000;stroke-width:0.25669014"
           id="path3722"
           inkscape:connector-curvature="0" />
        <path
           d="m 133.9123,78.367497 v 32.199213 h 9.52834 v -25.1351 c 0,0 2.71065,-0.574986 4.92845,-0.574986 2.71065,0 4.59989,0.657127 4.59989,4.682029 v 21.028057 h 9.61048 V 89.538653 c 0,-7.392677 -5.832,-11.992565 -11.91042,-11.992565 -4.18919,0 -7.06412,1.314254 -8.46051,2.053522 l -1.72496,-2.053522 z"
           style="font-size:82.14085388px;letter-spacing:-2.31021142px;fill:#aa0000;stroke-width:0.25669014"
           id="path3724"
           inkscape:connector-curvature="0" />
        <path
           d="m 196.50747,103.66688 h -2.71065 V 87.813695 c 0,-6.899832 -6.6534,-10.267607 -11.82828,-10.267607 -4.10704,0 -12.15684,3.285634 -12.15684,3.285634 l 2.29994,5.74986 c 0,0 6.40699,-1.724958 8.29623,-1.724958 2.29994,0 4.0249,1.478536 4.0249,3.696339 v 3.285634 c 0,0 -4.0249,-0.492845 -7.2284,-0.492845 -5.17487,0 -10.59617,3.696338 -10.59617,9.939038 0,6.16057 5.4213,10.02119 10.10333,10.02119 3.53205,0 6.98197,-1.64282 8.62479,-2.62851 0,0 2.13566,2.71065 4.35346,2.62851 3.2035,-0.0821 8.04981,-2.38209 8.04981,-2.38209 z m -17.00315,0.4107 c -1.88924,0 -3.28564,-1.72495 -3.28564,-3.44991 0,-1.72496 1.3964,-3.039213 3.28564,-3.039213 h 4.92845 v 5.914143 c 0,0 -2.87493,0.57498 -4.92845,0.57498 z"
           style="font-size:82.14085388px;letter-spacing:-2.31021142px;fill:#aa0000;stroke-width:0.25669014"
           id="path3726"
           inkscape:connector-curvature="0" />
      </g>
    </g>
  </g>
</svg>
