<?xml version="1.0" encoding="UTF-8" standalone="no"?>
<!-- Created with Inkscape (http://www.inkscape.org/) -->

<svg
   xmlns:dc="http://purl.org/dc/elements/1.1/"
   xmlns:cc="http://creativecommons.org/ns#"
   xmlns:rdf="http://www.w3.org/1999/02/22-rdf-syntax-ns#"
   xmlns:svg="http://www.w3.org/2000/svg"
   xmlns="http://www.w3.org/2000/svg"
   xmlns:sodipodi="http://sodipodi.sourceforge.net/DTD/sodipodi-0.dtd"
   xmlns:inkscape="http://www.inkscape.org/namespaces/inkscape"
   id="svg4171"
   version="1.1"
   inkscape:version="0.48.2 r9819"
   width="196.30998"
   height="130.05602"
   xml:space="preserve"
   sodipodi:docname="ING040708.pdf"><metadata
     id="metadata4177"><rdf:RDF><cc:Work
         rdf:about=""><dc:format>image/svg+xml</dc:format><dc:type
           rdf:resource="http://purl.org/dc/dcmitype/StillImage" /><dc:title></dc:title></cc:Work></rdf:RDF></metadata><defs
     id="defs4175"><clipPath
       clipPathUnits="userSpaceOnUse"
       id="clipPath4185"><path
         d="m 0,0 637.795,0 0,850.394 L 0,850.394 0,0 z"
         id="path4187"
         inkscape:connector-curvature="0" /></clipPath><clipPath
       clipPathUnits="userSpaceOnUse"
       id="clipPath4193"><path
         d="m -0.472,113.386 651.969,0 0,751.181 -651.969,0 0,-751.181 z"
         id="path4195"
         inkscape:connector-curvature="0" /></clipPath><clipPath
       clipPathUnits="userSpaceOnUse"
       id="clipPath4201"><path
         d="m -1.112,112.57 639.84,0 0,738.96 -639.84,0 0,-738.96 z"
         id="path4203"
         inkscape:connector-curvature="0" /></clipPath><clipPath
       clipPathUnits="userSpaceOnUse"
       id="clipPath4215"><path
         d="m 490.835,25.965 125.087,0 0,75.118 -125.087,0 0,-75.118 z"
         id="path4217"
         inkscape:connector-curvature="0" /></clipPath><clipPath
       clipPathUnits="userSpaceOnUse"
       id="clipPath4215-2"><path
         inkscape:connector-curvature="0"
         d="m 490.835,25.965 125.087,0 0,75.118 -125.087,0 0,-75.118 z"
         id="path4217-4" /></clipPath></defs><sodipodi:namedview
     pagecolor="#ffffff"
     bordercolor="#666666"
     borderopacity="1"
     objecttolerance="10"
     gridtolerance="10"
     guidetolerance="10"
     inkscape:pageopacity="0"
     inkscape:pageshadow="2"
     inkscape:window-width="1920"
     inkscape:window-height="1137"
     id="namedview4173"
     showgrid="false"
     fit-margin-top="0"
     fit-margin-left="0"
     fit-margin-right="0"
     fit-margin-bottom="0"
     inkscape:zoom="5.0236198"
     inkscape:cx="164.82294"
     inkscape:cy="19.048498"
     inkscape:window-x="-4"
     inkscape:window-y="-4"
     inkscape:window-maximized="1"
     inkscape:current-layer="g4179" /><g
     id="g4179"
     inkscape:groupmode="layer"
     inkscape:label="ING040708"
     transform="matrix(1.25,0,0,-1.25,-735.00899,92.694074)"><g
       id="g5139"
       transform="matrix(1.1316355,0,0,1.1316355,-77.40261,-9.7614633)"><path
         inkscape:connector-curvature="0"
         id="path4219"
         style="fill:#e31836;fill-opacity:1;fill-rule:evenodd;stroke:none"
         d="m 649.2541,50.810927 c 0.33809,-0.09961 0.70485,-0.155458 1.01576,0.126781 l 16.62493,23.21755 18.60815,-27.808838 c 3.7974,-7.704972 1.64816,-15.535216 -0.87237,-19.750689 -4.3664,-7.205394 -13.32108,-12.196647 -24.47782,-8.812798 l -32.91781,-0.197718 1.21348,1.919828 30.6116,-1.036888 c 0.0377,1.068584 0.0936,1.853419 0.43317,3.205751 l -30.32635,-1.174235 2.23225,3.03671 28.34163,-1.113862 c 0.20828,1.07613 0.64296,2.218669 1.06556,3.291781 l -28.71894,-1.224041 2.23074,3.053312 27.00136,-1.030852 c 0.44675,1.044435 1.16216,2.11151 1.82324,3.068406 l -28.10165,-1.029342 2.23075,3.080479 26.62253,-1.104807 c 0.89803,1.124428 1.82021,2.108491 2.8888,3.08048 l -28.80951,-1.045944 0.84974,1.163669 c -0.51618,0.658055 -1.00821,1.33573 -1.4761,2.028498 l 30.85763,-1.216495 c 2.41789,1.783992 7.20237,1.542504 9.1871,-0.329027 l 0.92973,-0.564478 c 0.83011,-1.045944 1.30252,-1.749278 1.99982,-2.860122 0.0996,-0.14942 0.28375,-0.383362 0.54033,0.0045 0.48297,0.614285 1.22404,1.815687 1.49722,3.017089 l -4.03737,-0.164513 -0.92671,0.562968 5.09237,0.02868 c 0.19772,1.085186 0.2264,2.291116 0.18565,3.324986 l -45.79516,-0.885959 c -0.74257,2.036045 -1.04443,4.173213 -0.65051,6.413013 1.29045,-1.660229 5.70364,-3.782304 6.51867,-3.700802 l 39.77456,-1.003684 c -0.10112,1.062547 -0.26866,2.159807 -0.76069,3.18764 l -40.35715,-0.68975 c -0.80747,0.914636 -1.24064,1.915301 -1.55609,3.051803 l 24.01748,-0.899542 -3.51516,1.921338 c 2.65184,0.05584 4.8524,0.135837 7.50273,0.191681 1.11688,-0.126781 1.44591,-0.07547 1.99529,-0.881431 0.1615,-0.247525 0.20678,-0.569006 0.28677,-0.86181 0.0785,-0.291295 0.12678,-0.534292 0.42864,-0.662582 0.0468,-0.02566 0.14791,-0.0332 0.18715,-0.0332 2.65788,-0.02415 7.70649,-0.09509 10.63905,-0.181116 -1.31007,1.990766 -2.60807,2.718248 -4.67882,3.563456 l -36.99142,-1.477604 c -0.24149,1.332711 -0.27318,2.523548 -0.0574,3.977003 0.0242,0.128291 0.12074,0.134328 0.19168,0.05735 1.19084,-1.304035 3.12425,-2.737869 5.26896,-3.155945 0.24149,-0.0483 0.24451,-0.03169 0.18414,0.08754 -0.18565,0.265637 -1.29196,2.033026 -0.89954,2.022461 l 28.0473,-0.754649 c 0.53279,-0.01358 -1.34629,3.033691 -3.92418,3.284235 -0.0121,0.0015 -22.59571,-1.417232 -24.38121,-1.489679 -0.0347,-0.0015 -0.12226,0.02717 -0.13282,0.06792 -0.57052,2.102454 -0.69126,3.266123 -0.3562,5.530072 0.005,0.01811 0.0211,0.02717 0.0347,0.01358 1.75833,-1.827761 3.80343,-2.967282 5.56025,-3.438184" /><path
         inkscape:connector-curvature="0"
         id="path4221"
         style="fill:#008851;fill-opacity:1;fill-rule:evenodd;stroke:none"
         d="m 588.02033,5.0912359 20.937,0.02264 c 1.07613,-0.015093 1.867,-0.88294 1.90926,-1.8036126 l 0,-12.6645295 c -0.005,-1.0323608 -0.87389,-1.9771828 -1.91228,-1.9771828 l -13.70595,0 0.002,5.4621546 9.10258,-0.00755 c 0.40148,-0.00151 0.7305,0.2611088 0.7456,0.680694 0.002,1.4383621 0.003,2.8767242 0.006,4.31508637 0.008,0.368269 -0.33204,0.7561589 -0.7471,0.7576682 l -10.70999,0 0.0181,-17.65276317 -5.65837,0.0015" /><path
         inkscape:connector-curvature="0"
         id="path4223"
         style="fill:#008851;fill-opacity:1;fill-rule:evenodd;stroke:none"
         d="m 616.28497,5.086708 19.6707,0.00906 0.002,-5.22821243 -14.88169,-0.0271674 c -0.54184,0.0166023 -0.97652,-0.50259664 -0.93275,-0.96897007 l -0.0287,-2.7408873 14.12403,-0.013584 0.005,-5.0697361 -14.13609,0.00302 c -0.002,-0.9599142 -0.002,-1.9198287 -0.003,-2.8782337 0.0121,-0.555422 0.43317,-0.950859 0.99614,-0.97048 l 17.74785,0.01358 c 0.44675,0.01509 0.85728,0.442225 0.91463,0.956896 l -0.003,16.9283 6.02362,0.00302 c 0.97199,-0.00604 1.82625,-1.0519815 2.29262,-1.7824824 2.71372,-4.24414933 4.53696,-8.8973187 7.24917,-13.1414681 0.46335,-0.7803075 0.46637,-0.7652145 0.89954,-0.015093 l 7.28539,13.1505239 c 0.53731,0.9689701 1.24517,1.7824824 2.36809,1.785501 l 5.60855,0.00604 0.0211,-22.8432434 -5.6327,-0.006 0.002,13.535396 -7.07258,-12.821497 c -0.15395,-0.2596 -0.39242,-0.730501 -0.8603,-0.730501 l -4.21698,-0.0091 c -0.44977,0.0045 -0.74107,0.433169 -0.91464,0.739557 l -7.03333,12.8003668 0.0106,-11.7544228 c 0.009,-1.002174 -0.86784,-1.782482 -1.76588,-1.783991 l -27.76205,-0.01962 c -0.95689,0.01207 -1.78248,0.804456 -1.77644,1.80814 l 0.003,19.2933722 c -0.0106,0.9810445 0.83464,1.770408 1.79757,1.7719173" /><path
         inkscape:connector-curvature="0"
         id="path4225"
         style="fill:#008851;fill-opacity:1;fill-rule:evenodd;stroke:none"
         d="m 675.83437,2.9751984 c -0.008,1.1606511 1.02934,2.1326398 2.21565,2.1311305 l 19.2813,-0.019621 0.002,-5.24632401 -14.75189,0 c -0.75767,0.006037 -1.37799,-0.64748936 -1.34479,-1.33422049 l -0.008,-2.4103508 13.89612,0.024149 -0.0136,-5.0727547 -13.85084,0.010565 -0.003,-2.8676689 c 0.0377,-0.572024 0.63995,-1.03236 1.33272,-1.035379 l 22.01011,0.04679 c 0.25356,-0.0015 0.406,0.0166 0.6007,0.196209 1.55458,1.827762 3.10915,3.655523 4.66373,5.4832844 0.28979,0.3667597 0.28828,0.6444707 0,0.9825538 l -4.81164,5.45762586 c 0.163,-0.19922749 -0.4694,0.53278262 -0.78937,0.53731052 l -3.61628,-0.006037 0,5.25085192 c 2.18245,0 3.62836,0 5.8108,0 1.39761,-0.02264 2.21867,-1.4066669 2.91597,-2.194521 l 4.0419,-4.8207017 c 0.42261,-0.5086338 0.41657,-0.5131617 0.81804,-0.012074 l 4.12643,4.8825829 c 0.52976,0.6414522 1.74173,2.1507514 2.89483,2.1416956 l 5.53158,0 0,-5.25236122 c -1.13348,0.003019 -2.26696,0.006037 -3.40045,0.009056 -0.19017,-0.006037 -0.41656,-0.0830115 -0.56749,-0.27318316 l -4.83882,-5.73231832 c -0.40902,-0.5025967 -0.41204,-0.4965595 -0.0302,-0.9750073 l 4.57468,-5.4847933 c 0.25055,-0.242997 0.50562,-0.191681 0.85427,-0.185644 l 3.39139,0.01207 0.0106,-4.971632 -6.88543,-0.003 c -0.33808,0 -1.08669,0.164513 -1.29497,0.40751 l -5.07729,6.127755 -5.032,-6.126245 c -0.21885,-0.265637 -0.80898,-0.430151 -1.35082,-0.430151 l -29.09627,0 c -1.22254,0.03019 -2.21716,0.845208 -2.20962,2.093398 l 0,18.6594662 z" /><path
         inkscape:connector-curvature="0"
         id="path4229"
         style="fill:#008851;fill-opacity:1;fill-rule:evenodd;stroke:none"
         d="m 588.02033,5.0912359 20.937,0.02264 c 1.07613,-0.015093 1.867,-0.88294 1.90926,-1.8036126 l 0,-12.6645295 c -0.005,-1.0323608 -0.87389,-1.9771828 -1.91228,-1.9771828 l -13.70595,0 0.002,5.4621546 9.10258,-0.00755 c 0.40148,-0.00151 0.7305,0.2611088 0.7456,0.680694 0.002,1.4383621 0.003,2.8767242 0.006,4.31508637 0.008,0.368269 -0.33204,0.7561589 -0.7471,0.7576682 l -10.70999,0 0.0181,-17.65276317 -5.65837,0.0015" /><path
         inkscape:connector-curvature="0"
         id="path4231"
         style="fill:#008851;fill-opacity:1;fill-rule:evenodd;stroke:none"
         d="m 616.28497,5.086708 19.6707,0.00906 0.002,-5.22821243 -14.88169,-0.0271674 c -0.54184,0.0166023 -0.97652,-0.50259664 -0.93275,-0.96897007 l -0.0287,-2.7408873 14.12403,-0.013584 0.005,-5.0697361 -14.13609,0.00302 c -0.002,-0.9599142 -0.002,-1.9198287 -0.003,-2.8782337 0.0121,-0.555422 0.43317,-0.950859 0.99614,-0.97048 l 17.74785,0.01358 c 0.44675,0.01509 0.85728,0.442225 0.91463,0.956896 l -0.003,16.9283 6.02362,0.00302 c 0.97199,-0.00604 1.82625,-1.0519815 2.29262,-1.7824824 2.71372,-4.24414933 4.53696,-8.8973187 7.24917,-13.1414681 0.46335,-0.7803075 0.46637,-0.7652145 0.89954,-0.015093 l 7.28539,13.1505239 c 0.53731,0.9689701 1.24517,1.7824824 2.36809,1.785501 l 5.60855,0.00604 0.0211,-22.8432434 -5.6327,-0.006 0.002,13.535396 -7.07258,-12.821497 c -0.15395,-0.2596 -0.39242,-0.730501 -0.8603,-0.730501 l -4.21698,-0.0091 c -0.44977,0.0045 -0.74107,0.433169 -0.91464,0.739557 l -7.03333,12.8003668 0.0106,-11.7544228 c 0.009,-1.002174 -0.86784,-1.782482 -1.76588,-1.783991 l -27.76205,-0.01962 c -0.95689,0.01207 -1.78248,0.804456 -1.77644,1.80814 l 0.003,19.2933722 c -0.0106,0.9810445 0.83464,1.770408 1.79757,1.7719173" /><path
         inkscape:connector-curvature="0"
         id="path4233"
         style="fill:#008851;fill-opacity:1;fill-rule:evenodd;stroke:none"
         d="m 675.83437,2.9751984 c -0.008,1.1606511 1.02934,2.1326398 2.21565,2.1311305 l 19.2813,-0.019621 0.002,-5.24632401 -14.75189,0 c -0.75767,0.006037 -1.37799,-0.64748936 -1.34479,-1.33422049 l -0.008,-2.4103508 13.89612,0.024149 -0.0136,-5.0727547 -13.85084,0.010565 -0.003,-2.8676689 c 0.0377,-0.572024 0.63995,-1.03236 1.33272,-1.035379 l 22.01011,0.04679 c 0.25356,-0.0015 0.406,0.0166 0.6007,0.196209 1.55458,1.827762 3.10915,3.655523 4.66373,5.4832844 0.28979,0.3667597 0.28828,0.6444707 0,0.9825538 l -4.81164,5.45762586 c 0.163,-0.19922749 -0.4694,0.53278262 -0.78937,0.53731052 l -3.61628,-0.006037 0,5.25085192 c 2.18245,0 3.62836,0 5.8108,0 1.39761,-0.02264 2.21867,-1.4066669 2.91597,-2.194521 l 4.0419,-4.8207017 c 0.42261,-0.5086338 0.41657,-0.5131617 0.81804,-0.012074 l 4.12643,4.8825829 c 0.52976,0.6414522 1.74173,2.1507514 2.89483,2.1416956 l 5.53158,0 0,-5.25236122 c -1.13348,0.003019 -2.26696,0.006037 -3.40045,0.009056 -0.19017,-0.006037 -0.41656,-0.0830115 -0.56749,-0.27318316 l -4.83882,-5.73231832 c -0.40902,-0.5025967 -0.41204,-0.4965595 -0.0302,-0.9750073 l 4.57468,-5.4847933 c 0.25055,-0.242997 0.50562,-0.191681 0.85427,-0.185644 l 3.39139,0.01207 0.0106,-4.971632 -6.88543,-0.003 c -0.33808,0 -1.08669,0.164513 -1.29497,0.40751 l -5.07729,6.127755 -5.032,-6.126245 c -0.21885,-0.265637 -0.80898,-0.430151 -1.35082,-0.430151 l -29.09627,0 c -1.22254,0.03019 -2.21716,0.845208 -2.20962,2.093398 l 0,18.6594662 z" /></g></g></svg>