<?xml version="1.0" encoding="UTF-8" standalone="no"?>
<!-- Created with Inkscape (http://www.inkscape.org/) -->
<svg
   xmlns:dc="http://purl.org/dc/elements/1.1/"
   xmlns:cc="http://creativecommons.org/ns#"
   xmlns:rdf="http://www.w3.org/1999/02/22-rdf-syntax-ns#"
   xmlns:svg="http://www.w3.org/2000/svg"
   xmlns="http://www.w3.org/2000/svg"
   xmlns:sodipodi="http://sodipodi.sourceforge.net/DTD/sodipodi-0.dtd"
   xmlns:inkscape="http://www.inkscape.org/namespaces/inkscape"
   id="svg2"
   sodipodi:version="0.32"
   inkscape:version="0.46"
   width="110.39875"
   height="153.5475"
   xml:space="preserve"
   sodipodi:docname="supreme court crest (official).svg"
   version="1.0"
   inkscape:output_extension="org.inkscape.output.svg.inkscape"><metadata
     id="metadata7"><rdf:RDF><cc:Work
         rdf:about=""><dc:format>image/svg+xml</dc:format><dc:type
           rdf:resource="http://purl.org/dc/dcmitype/StillImage" /></cc:Work></rdf:RDF></metadata><defs
     id="defs5"><inkscape:perspective
       sodipodi:type="inkscape:persp3d"
       inkscape:vp_x="0 : 526.18109 : 1"
       inkscape:vp_y="0 : 1000 : 0"
       inkscape:vp_z="744.09448 : 526.18109 : 1"
       inkscape:persp3d-origin="372.04724 : 350.78739 : 1"
       id="perspective9" /><clipPath
       clipPathUnits="userSpaceOnUse"
       id="clipPath17"><path
         d="M 0,0 L 595.276,0 L 595.276,841.89 L 0,841.89 L 0,0 z"
         id="path19" /></clipPath><clipPath
       clipPathUnits="userSpaceOnUse"
       id="clipPath29"><path
         d="M 425.764,622.721 L 584.74,622.721 L 584.74,847.559 L 425.764,847.559 L 425.764,622.721 z"
         id="path31" /></clipPath></defs><sodipodi:namedview
     inkscape:window-height="740"
     inkscape:window-width="1280"
     inkscape:pageshadow="2"
     inkscape:pageopacity="0.0"
     guidetolerance="10.0"
     gridtolerance="10.0"
     objecttolerance="10.0"
     borderopacity="1.0"
     bordercolor="#666666"
     pagecolor="#ffffff"
     id="base"
     showgrid="false"
     inkscape:zoom="2.483428"
     inkscape:cx="139.99778"
     inkscape:cy="52.496845"
     inkscape:window-x="-4"
     inkscape:window-y="-4"
     inkscape:current-layer="g11" /><g
     id="g11"
     inkscape:groupmode="layer"
     inkscape:label="hybrid"
     transform="matrix(1.25,0,0,-1.25,-621.92307,1282.7067)"><g
       id="g25"
       transform="translate(36.445456,229.60637)"><g
         id="g27"
         clip-path="url(#clipPath29)"><path
           d="M 489.922,713.195 C 487.912,711.193 486.286,708.726 484.872,706.437 C 483.729,704.403 483.194,703.201 483.177,703.101 C 483.544,702.998 485.445,702.782 485.913,702.73 C 487.236,702.584 488.539,702.448 488.759,702.402 C 487.037,702.959 486.981,702.908 486.326,703.124 C 485.208,703.494 484.439,703.683 484.485,703.784 C 484.549,703.926 485.174,703.698 486.574,703.474 C 487.963,703.252 489.375,702.907 489.517,702.877 C 488.977,703.173 488.484,703.375 487.056,704.073 C 485.772,704.7 485.086,704.997 485.164,705.104 C 485.255,705.228 486.224,704.851 487.654,704.447 C 488.165,704.303 490.115,703.63 490.127,703.701 C 489.838,703.907 488.485,704.682 487.304,705.464 C 486.5,705.998 485.738,706.446 485.585,706.742 C 485.67,706.826 487.275,706.12 487.664,705.94 C 488.929,705.355 489.471,705.082 490.744,704.556 C 490.05,705.172 489.259,705.765 488.504,706.374 C 487.754,706.982 486.633,707.92 486.418,708.226 C 486.837,708.163 487.956,707.599 488.506,707.302 C 489.745,706.633 491.271,705.815 491.496,705.724 C 491.188,706.039 489.707,707.395 489.143,707.901 C 488.578,708.406 487.507,709.453 487.48,709.526 C 487.795,709.671 489.234,708.586 489.786,708.203 C 490.549,707.673 491.808,706.787 492.069,706.624 C 492.027,706.762 490.621,708.372 490.378,708.659 C 489.609,709.565 488.767,710.539 488.827,710.621 C 488.924,710.751 489.826,709.892 490.223,709.549 C 490.619,709.206 491.647,708.295 492.58,707.497 C 492.152,708.105 491.496,709.034 490.937,709.895 C 490.281,710.906 489.697,711.666 489.774,711.727 C 489.874,711.808 490.294,711.296 490.835,710.654 C 491.654,709.681 492.677,708.403 492.762,708.333 C 492.285,709.117 490.315,712.731 489.922,713.195"
           style="fill:#5b1e75;fill-opacity:1;fill-rule:nonzero;stroke:none"
           id="path33" /><path
           d="M 491.514,704.021 C 491.784,704.135 492.058,704.235 492.334,704.326 C 492.332,704.621 492.314,705.076 492.309,705.207 C 492.163,705.162 491.385,705.026 491.345,704.949 C 491.405,704.807 491.419,704.323 491.514,704.021"
           style="fill:#00782c;fill-opacity:1;fill-rule:nonzero;stroke:none"
           id="path35" /><path
           d="M 492.925,704.559 C 493.274,704.667 493.617,704.806 493.962,704.927 C 493.984,705.169 493.943,705.398 493.954,705.638 C 493.566,705.581 493.195,705.436 492.811,705.354 C 492.827,705.086 492.906,704.827 492.925,704.559"
           style="fill:#00782c;fill-opacity:1;fill-rule:nonzero;stroke:none"
           id="path37" /><path
           d="M 491.73,702.341 C 491.961,702.415 492.182,702.523 492.415,702.591 C 492.418,702.961 492.364,703.321 492.374,703.691 C 492.105,703.638 491.841,703.554 491.571,703.503 C 491.62,703.114 491.688,702.731 491.73,702.341"
           style="fill:#00782c;fill-opacity:1;fill-rule:nonzero;stroke:none"
           id="path39" /><path
           d="M 493.184,702.898 C 493.471,702.977 493.749,703.106 494.032,703.2 C 494.058,703.503 493.997,703.79 494.016,704.091 C 493.685,704.054 493.375,703.916 493.045,703.871 C 493.08,703.545 493.149,703.225 493.184,702.898"
           style="fill:#00782c;fill-opacity:1;fill-rule:nonzero;stroke:none"
           id="path41" /><path
           d="M 494.61,705.172 C 494.979,705.276 495.337,705.435 495.704,705.551 C 495.722,705.748 495.685,705.932 495.704,706.128 C 495.31,706.033 494.923,705.907 494.528,705.82 C 494.522,705.596 494.607,705.392 494.61,705.172"
           style="fill:#00782c;fill-opacity:1;fill-rule:nonzero;stroke:none"
           id="path43" /><path
           d="M 491.974,700.562 C 492.157,700.616 492.334,700.693 492.514,700.764 C 492.512,701.143 492.469,701.514 492.459,701.889 C 492.239,701.888 492.043,701.782 491.826,701.765 C 491.846,701.357 491.936,700.966 491.974,700.562"
           style="fill:#00782c;fill-opacity:1;fill-rule:nonzero;stroke:none"
           id="path45" /><path
           d="M 494.888,703.513 C 495.181,703.629 495.476,703.732 495.77,703.843 C 495.786,704.079 495.749,704.306 495.754,704.542 C 495.417,704.489 495.093,704.368 494.756,704.306 C 494.802,704.042 494.825,703.775 494.888,703.513"
           style="fill:#00782c;fill-opacity:1;fill-rule:nonzero;stroke:none"
           id="path47" /><path
           d="M 493.448,701.122 C 493.676,701.186 493.897,701.295 494.125,701.364 C 494.125,701.677 494.094,701.985 494.089,702.298 C 493.822,702.278 493.573,702.169 493.311,702.125 C 493.342,701.788 493.42,701.46 493.448,701.122"
           style="fill:#00782c;fill-opacity:1;fill-rule:nonzero;stroke:none"
           id="path49" /><path
           d="M 495.141,701.747 C 495.382,701.825 495.619,701.931 495.862,702.005 C 495.858,702.257 495.829,702.503 495.836,702.759 C 495.564,702.7 495.296,702.617 495.024,702.559 C 495.059,702.288 495.115,702.02 495.141,701.747"
           style="fill:#00782c;fill-opacity:1;fill-rule:nonzero;stroke:none"
           id="path51" /><path
           d="M 513.172,708.997 C 510.896,706.654 507.648,705.444 505.76,705.784 C 504.159,706.072 502.859,707.669 502.095,708.839 C 500.221,711.712 499.741,714.54 502.835,716.466 C 499.099,712.439 503.294,708.064 504.089,707.173 C 503.477,708.858 504.644,710.306 505.17,711.076 C 501.363,709.234 503.697,713.203 505.434,714.708 C 502.647,713.255 502.621,715.798 505.28,718.301 C 505.716,718.688 506.24,718.742 506.745,718.977 C 504.631,719.076 503.088,718.405 501.776,716.821 C 501.768,717.565 502.193,719.144 503.139,720.078 C 502.571,719.957 500.182,719.001 499.701,715.04 C 499.339,715.369 498.471,717.075 498.039,718.244 C 497.601,717.51 497.847,713.865 500.466,710.491 C 500.131,710.48 498.476,710.524 498.162,710.534 C 498.548,710.078 503.477,707.107 503.218,706.122 C 503.186,706.002 502.713,706.141 502.523,706.195 C 498.114,707.457 492.783,714.111 497.784,720.182 C 496.814,719.677 494.877,718.34 495.163,713.948 C 493.969,716.771 495.046,722.685 502.99,720.61 C 498.509,723.606 495.549,721.273 495.093,720.855 C 494.173,720.012 493.523,718.848 493.203,717.406 C 493.041,716.68 492.964,715.813 493.035,714.961 C 493.053,714.752 493.074,714.552 493.116,714.303 C 492.679,714.721 487.027,720.172 481.382,718.247 C 482.172,718.776 486.297,720.717 492.736,715.761 C 492.735,715.885 492.74,715.987 492.744,716.129 C 492.202,716.68 487.28,720.941 482.775,719.085 C 483.33,719.608 487.017,721.583 492.833,717.083 C 492.854,717.351 492.921,717.594 492.975,717.829 C 490.208,723.606 486.871,727.248 485.269,728.741 C 485.754,728.507 489.093,726.563 493.358,719.098 C 493.445,719.332 493.526,719.52 493.585,719.65 C 491.116,724.242 488.094,727.367 486.721,728.674 C 487.64,728.249 490.753,725.876 494.056,720.465 C 494.125,720.532 494.229,720.688 494.29,720.756 C 493.909,721.187 493.659,721.762 493.345,722.267 C 493.502,731.349 491.442,735.833 491.305,736.406 C 493.645,733.269 494.32,725.007 494.368,720.887 C 494.462,720.947 494.723,721.279 494.884,721.423 C 494.942,730.078 492.88,734.668 492.446,735.583 C 493.36,734.462 495.344,731.025 495.876,722.115 C 497.251,722.75 498.074,722.595 498.172,722.62 C 498.613,723.074 500.273,724.787 502.871,725.477 C 503.216,725.329 503.431,725.307 503.53,724.759 C 503.656,724.068 504.179,725.053 504.483,725.804 C 516.169,726.602 513.886,714.046 506.586,714.909 C 509.793,713.035 512.366,714.419 513.146,715.084 C 513.961,715.776 515.306,717.536 513.895,721.71 C 518.049,715.571 514.481,710.345 513.172,708.997 M 494.164,713.217 C 493.964,713.64 493.852,714.107 493.768,714.606 C 493.68,715.124 493.643,715.675 493.671,716.277 C 493.719,717.325 494.051,718.307 494.436,719.074 C 494.844,719.886 495.344,720.508 496.08,720.999 C 496.707,721.417 497.494,721.679 498.446,721.755 C 499.106,721.808 499.82,721.761 500.389,721.624 C 497.971,721.604 496.315,720.764 495.315,719.293 C 494.827,718.575 494.455,717.689 494.26,716.646 C 494.074,715.652 494.002,714.362 494.164,713.217 M 514.909,723.414 C 513.694,724.863 512.153,726.015 510.308,726.796 L 510.346,726.901 C 513.088,728.023 515.151,727.458 515.624,727.259 C 515.729,726.451 515.973,725.06 516.641,725.601 C 516.921,725.104 517.977,724.18 518.791,724.519 C 519.396,723.908 520.262,723.451 520.719,724.191 C 521.454,723.47 522.592,723.888 522.598,724.162 C 522.928,723.981 523.716,723.368 524.149,724.086 C 524.8,723.976 525.428,724.214 525.556,724.334 C 525.258,725.289 523.74,726.372 523.74,726.372 C 524.129,726.899 523.453,727.638 522.163,727.49 C 521.96,727.467 521.974,727.708 521.974,727.708 C 521.747,728.9 520.053,728.155 520.096,728.293 C 520.138,728.431 520.067,728.594 520.067,728.594 C 519.665,729.281 517.661,728.473 517.661,728.473 C 517.679,729.435 515.708,728.108 515.708,728.108 C 515.048,728.176 514.52,728.197 514.096,728.189 L 517.7,730.262 L 518.178,730.14 C 520.717,729.377 520.299,730.425 520.299,730.425 C 521.033,730.236 522.285,730.729 522.285,730.729 C 522.941,730.834 522.845,731.821 522.845,731.821 C 523.647,731.971 524.242,732.705 524.242,732.705 C 524.807,733.225 524.321,733.461 524.321,733.461 C 525.28,734.075 524.973,734.97 524.973,734.97 C 525.495,735.76 525.321,736.74 525.321,736.74 C 524.43,736.857 523.328,736.267 523.328,736.267 C 523.169,736.469 522.749,736.467 522.749,736.467 C 522.221,736.346 521.437,735.585 521.437,735.585 C 521.455,736.004 520.927,735.683 520.927,735.683 C 520.367,735.488 519.802,734.729 519.802,734.729 C 519.663,734.916 519.418,734.984 519.418,734.984 C 518.645,734.296 518.313,732.981 518.313,732.981 C 517.985,733.476 517.811,733.007 517.811,733.007 C 517.575,732.552 517.544,731.227 517.544,731.227 L 517.488,730.891 L 513.3,728.566 C 513.969,729.321 514.084,729.802 514.084,729.802 C 515.066,730.003 516.321,731.025 516.321,731.025 C 516.601,731.284 516.252,731.361 516.252,731.361 L 515.908,731.385 L 516.148,731.551 C 517.144,732.351 517.108,733.11 517.01,733.101 C 516.913,733.093 516.678,732.961 516.678,732.961 C 516.986,733.297 517.264,733.629 517.526,734.423 C 517.788,735.215 517.427,735.157 517.427,735.157 C 517.656,735.79 517.255,736.099 517.255,736.099 C 517.055,736.148 516.854,736.104 516.854,736.104 C 517.092,736.842 516.759,737.939 516.759,737.939 C 516.746,738.74 516.571,738.632 516.505,738.506 C 516.286,738.152 515.933,737.992 515.933,737.992 C 514.927,737.592 514.459,736.575 514.459,736.575 C 514.441,736.753 514.383,736.773 514.383,736.773 C 513.093,736.372 513.207,735.204 513.207,735.204 C 512.948,735.539 512.729,735.468 512.729,735.468 C 512.248,734.885 512.6,733.303 512.6,733.303 C 512.384,733.488 512.193,733.419 512.193,733.419 C 511.986,732.938 512.559,731.685 512.559,731.685 C 511.701,731.786 513.351,729.854 513.351,729.854 C 510.939,726.491 507.068,728.336 503.025,727.438 C 503.285,727.865 503.423,728.12 503.832,728.919 C 504.086,729.235 504.278,728.896 504.352,728.606 C 504.487,728.078 504.935,729.448 504.407,730.072 C 504.569,730.406 505.388,732.034 505.5,732.283 C 504.925,732.424 505.267,732.051 504.372,732.322 C 503.916,731.478 502.6,729.015 502.421,728.707 C 501.591,727.28 500.434,726.754 500.071,726.468 C 499.809,726.621 498.989,726.995 498.441,726.965 C 497.728,726.925 499.004,726.47 498.915,725.659 C 498.11,725.129 496.422,723.65 496.255,723.105 C 496.343,732.426 493.016,736.907 488.871,740.316 C 491.898,735.881 492.615,727.914 492.724,723 C 489.557,729.686 482.929,730.818 482.424,730.872 C 487.821,726.267 491.017,720.112 492.611,717.655 C 484.086,724.071 480.601,717.666 480.359,717.418 C 481.437,718.009 486.427,719.745 493.229,713.691 C 494.631,707.34 500.662,703.981 505.372,703.873 C 504.708,703.374 503.89,702.931 503.009,702.601 C 502.395,702.652 502.11,703.025 502.11,703.025 C 502.083,702.671 501.895,702.204 501.052,702.088 C 500.338,701.989 499.715,702.448 499.625,702.633 C 499.281,701.99 498.866,702.016 498.483,702.204 C 498.075,702.438 498.089,702.931 498.535,703.528 C 498.318,703.595 498.104,703.516 497.971,703.434 C 497.969,703.522 497.962,703.61 497.955,703.698 C 498.466,704.802 497.99,705.357 497.99,705.357 C 497.866,705.14 497.479,705.187 497.487,705.33 C 497.533,706.115 497.056,706.563 497.056,706.563 C 497.096,706.364 497.024,706.217 496.945,706.12 C 495.709,707.551 493.977,707.716 492.894,707.477 C 492.933,707.282 493.107,707.116 493.133,706.919 C 492.938,706.835 492.732,706.794 492.523,706.779 C 492.592,706.447 492.67,706.115 492.726,705.781 C 493.124,705.912 493.522,706.055 493.919,706.189 C 493.949,706.481 493.911,706.759 493.93,707.047 C 494.034,707.087 494.156,707.046 494.272,707.028 C 494.328,706.894 494.394,706.464 494.437,706.359 C 494.76,706.483 495.084,706.602 495.417,706.688 C 495.561,706.594 496.089,706.325 496.18,706.165 C 496.263,706.022 496.189,705.877 496.273,705.751 C 496.356,705.794 496.441,705.823 496.526,705.839 C 496.793,705.545 496.983,705.237 497.139,704.922 C 496.908,704.836 496.669,704.786 496.431,704.733 C 496.433,704.526 496.5,704.33 496.507,704.123 C 496.779,704.199 497.041,704.324 497.312,704.407 C 497.474,704.022 497.472,703.604 497.48,703.19 C 497.218,703.095 496.943,703.067 496.684,702.966 C 496.714,702.76 496.755,702.556 496.77,702.347 C 496.975,702.413 497.177,702.505 497.384,702.565 C 497.278,701.823 496.599,700.808 495.957,700.388 C 495.909,700.592 495.917,700.81 495.915,701.024 C 495.701,700.998 495.5,700.914 495.287,700.88 C 495.309,700.605 495.365,700.338 495.404,700.067 C 495.028,699.864 494.63,699.772 494.228,699.709 C 494.169,699.986 494.188,700.279 494.169,700.563 C 493.962,700.56 493.77,700.464 493.567,700.435 C 493.584,700.184 493.646,699.943 493.668,699.695 C 493.471,699.674 492.689,699.792 492.585,699.885 C 492.515,699.949 492.577,700.085 492.555,700.177 C 492.404,700.148 492.256,700.093 492.1,700.077 C 491.864,700.191 491.555,700.387 491.364,700.567 C 491.296,700.908 491.296,701.265 491.276,701.617 C 491.038,701.598 490.816,701.493 490.576,701.488 C 490.491,701.584 490.473,701.69 490.389,701.788 C 490.662,701.926 490.941,702.029 491.219,702.134 C 491.229,702.559 491.159,702.969 491.159,703.392 C 490.841,703.318 490.522,703.248 490.212,703.137 C 490.266,702.959 490.315,702.781 490.351,702.597 C 490.111,702.604 489.87,702.612 489.632,702.61 C 489.715,701.673 490.895,699.312 493.569,699.19 C 493.565,699.063 493.521,698.832 493.269,698.709 C 493.269,698.709 494.033,698.608 494.549,699.15 C 494.549,699.15 494.903,698.949 494.795,698.702 C 495.746,698.78 496.096,699.922 496.305,700.023 C 496.298,699.878 496.333,699.516 496.578,699.382 C 496.693,700.142 497.121,700.813 497.464,700.828 C 497.808,700.842 498.483,700.44 498.634,699.949 C 499.712,701.271 501.035,700.566 501.248,700.022 C 501.402,700.531 502.621,701.66 503.667,700.539 C 503.724,700.945 504.012,701.284 504.251,701.521 C 506.642,702.438 508.285,704.082 508.512,704.187 C 508.753,704.298 509.032,704.315 509.312,704.423 C 509.015,704.094 505.059,700.207 504.001,698.494 C 503.53,697.731 502.439,695.615 502.04,692.968 C 501.877,691.884 501.827,690.766 501.46,689.807 C 501.155,689.013 500.779,687.223 497.845,685.922 C 500.987,687.911 501.255,692.173 501.398,692.932 C 501.54,693.689 501.895,697.094 504.634,700.275 C 503.175,699.442 501.31,698.652 500,698.372 C 501.249,698.255 501.667,697.903 501.732,697.595 C 502.037,696.154 498.039,694.938 497.344,694.53 C 499.848,694.588 500.123,693.597 500.061,693.177 C 499.868,691.864 496.687,689.909 496.57,689.764 C 497.031,689.753 498.817,690.026 499.2,689.624 C 499.714,689.084 498.507,687.572 498.048,687.214 C 496.366,685.901 494.887,684.578 490.318,684.734 C 492.698,684.092 497.358,684.092 499.833,685.432 C 499.553,684.209 499.68,682.523 499.885,681.32 C 500.286,682.282 503.029,686.037 502.462,689.641 C 502.882,689.303 503.584,688.469 505.074,687.694 C 504.909,688.293 503.778,692.341 504.485,696.154 C 504.626,696.043 505.033,695.172 505.836,694.569 C 505.267,698.362 507.144,702.847 511.968,705.759 C 511.279,704.226 505.52,691.154 513.735,686.166 C 512.297,686.536 504.704,689.126 510.051,703.462 C 509.051,701.681 508.186,699.728 507.73,697.394 C 507.5,696.226 506.616,691.453 510.06,687.659 C 510.726,686.925 511.622,685.226 519.214,684.193 C 510.312,685.654 510.637,695.175 510.745,696.992 C 511.086,702.712 513.604,706.793 513.674,706.894 C 516.512,709.494 517.228,712.213 517.499,713.721 C 517.499,713.721 518.691,711.972 518.691,709.17 L 518.691,708.158 L 519.723,708.158 L 519.697,709.273 C 519.697,711.462 519.515,714.565 517.647,716.537 C 517.135,719.75 515.98,722.076 515.341,722.863 C 517.511,722.413 525.138,720.545 527.392,712.452 C 525.229,717.245 520.391,720.195 518.313,720.846 C 521.48,719.002 526.629,714.371 528.394,706.56 C 530.374,720.474 521.506,723.398 514.909,723.414"
           style="fill:#00782c;fill-opacity:1;fill-rule:nonzero;stroke:none"
           id="path53" /><path
           d="M 518.878,704.96 C 518.754,704.181 517.794,703.561 517.2,703.62 C 517.136,703.443 517.016,703.206 516.969,702.938 C 517.683,702.485 517.973,701.461 517.655,700.771 C 517.793,700.525 518.07,700.385 518.317,700.237 C 519.034,701.158 520.497,700.629 520.739,700.314 C 520.849,700.355 521.226,700.666 521.422,700.9 C 521.135,701.218 520.951,702.58 521.863,703.239 C 521.807,703.504 521.687,703.715 521.543,703.909 C 520.604,703.782 519.893,704.405 519.632,705.023 C 519.36,705.028 519.113,705.001 518.878,704.96"
           style="fill:#fab700;fill-opacity:1;fill-rule:nonzero;stroke:none"
           id="path55" /><path
           d="M 515.797,697.021 C 516.576,697.097 517.069,696.541 517.629,696.366 C 518.037,696.238 518.527,696.313 518.728,696.612 C 518.825,696.754 518.893,696.978 518.927,697.183 C 519.049,697.904 518.995,698.849 518.94,699.456 C 518.652,699.497 518.424,699.59 518.219,699.702 C 517.937,699.408 517.612,699.035 517.321,698.688 C 517.199,698.542 517.112,698.419 516.982,698.409 C 516.782,698.396 516.66,698.534 516.648,698.646 C 516.629,698.791 516.738,698.986 516.786,699.1 C 516.932,699.441 517.063,699.753 517.219,700.13 C 517.249,700.201 517.305,700.296 517.303,700.34 C 517.3,700.412 517.206,700.489 517.14,700.574 C 517.05,700.692 516.995,700.764 516.936,700.86 C 516.918,700.865 516.908,700.86 516.904,700.847 C 516.271,700.665 515.581,700.432 515.007,700.122 C 514.816,700.021 514.609,699.904 514.472,699.773 C 514.313,699.62 514.177,699.395 514.23,699.08 C 514.336,698.467 514.887,698.211 515.283,697.805 C 515.52,697.563 515.677,697.32 515.797,697.021 M 522.392,701.066 L 522.361,701.069 C 522.228,700.87 522.122,700.634 521.957,700.472 C 522.143,700.137 522.354,699.708 522.556,699.32 C 522.628,699.184 522.738,699.07 522.718,698.915 C 522.697,698.76 522.563,698.654 522.411,698.665 C 522.267,698.677 522.149,698.804 522.048,698.905 C 521.741,699.204 521.44,699.494 521.139,699.776 C 520.885,699.659 520.639,699.533 520.345,699.468 C 520.339,698.94 520.347,698.431 520.404,697.922 C 520.469,697.328 520.582,696.565 521.221,696.466 C 521.828,696.372 522.219,696.767 522.63,697.008 C 522.94,697.187 523.249,697.315 523.66,697.324 C 523.832,698.277 524.885,698.509 525.066,699.344 C 525.225,700.079 524.528,700.367 523.977,700.577 C 523.456,700.774 522.952,700.934 522.392,701.066 M 513.144,704.456 C 513.202,704.23 513.265,704.007 513.258,703.744 C 513.251,703.392 513.123,703.032 513.089,702.686 C 513.033,702.149 513.234,701.579 513.794,701.509 C 514.275,701.448 514.844,701.647 515.236,701.765 C 515.693,701.903 516.107,702.095 516.498,702.229 C 516.465,702.418 516.495,702.657 516.521,702.896 C 516.039,703.075 515.59,703.284 515.087,703.494 C 514.913,703.566 514.741,703.62 514.708,703.767 C 514.682,703.896 514.766,704.086 514.886,704.122 C 515.007,704.16 515.21,704.111 515.398,704.101 C 515.862,704.076 516.453,704.056 516.901,704.024 C 516.991,704.186 517.081,704.347 517.21,704.461 C 516.848,705.007 516.333,705.674 515.813,706.178 C 515.587,706.394 515.398,706.587 515.053,706.66 C 514.693,706.736 514.396,706.476 514.213,706.232 C 514.076,706.045 513.991,705.828 513.899,705.593 C 513.716,705.12 513.477,704.708 513.144,704.456 M 521.654,704.817 C 521.818,704.658 522,704.438 522.13,704.3 C 522.543,704.368 523.056,704.402 523.52,704.485 C 523.689,704.516 523.849,704.58 523.992,704.532 C 524.126,704.485 524.196,704.321 524.157,704.172 C 524.119,704.015 523.952,703.971 523.802,703.895 C 523.386,703.685 523.001,703.443 522.599,703.241 C 522.661,702.985 522.708,702.718 522.683,702.391 C 523.359,702.211 524.13,701.898 524.934,701.865 C 525.249,701.851 525.605,701.925 525.772,702.138 C 525.891,702.289 525.948,702.5 525.969,702.694 C 526.042,703.391 525.49,704.086 525.8,704.845 C 525.457,705.104 525.203,705.431 524.998,705.846 C 524.798,706.253 524.649,706.672 524.247,706.873 C 523.778,707.106 523.378,706.809 523.091,706.538 C 522.564,706.045 522.125,705.325 521.654,704.817 M 518.179,705.249 C 518.358,705.346 518.568,705.408 518.764,705.487 C 518.811,705.898 518.889,706.448 518.953,706.899 C 518.98,707.08 518.96,707.274 519.022,707.407 C 519.076,707.524 519.244,707.578 519.349,707.559 C 519.532,707.529 519.579,707.34 519.617,707.142 C 519.723,706.598 519.87,706.09 519.97,705.565 C 520.164,705.525 520.38,705.501 520.533,705.428 C 520.69,705.561 520.795,705.759 520.929,705.95 C 521.049,706.12 521.182,706.299 521.295,706.488 C 521.527,706.879 521.809,707.29 521.891,707.736 C 521.924,707.92 521.92,708.101 521.864,708.238 C 521.762,708.475 521.436,708.709 521.078,708.785 C 520.709,708.861 520.35,708.82 519.999,708.879 C 519.698,708.931 519.407,709.101 519.205,709.194 C 518.899,708.922 518.435,708.811 517.944,708.746 C 517.455,708.684 516.991,708.59 516.74,708.247 C 516.64,708.109 516.585,707.852 516.631,707.635 C 516.733,707.171 517.034,706.761 517.312,706.367 C 517.594,705.962 517.924,705.596 518.179,705.249"
           style="fill:#004f9a;fill-opacity:1;fill-rule:nonzero;stroke:none"
           id="path57" /><path
           d="M 501.427,741.086 L 501.427,741.086 C 500.705,741.568 500.029,742.162 499.506,743.077 C 498.671,742.843 497.739,742.611 496.896,742.196 C 497.648,741.156 498.141,740.869 498.715,740.226 C 499.686,740.703 500.569,741.012 501.427,741.086"
           style="fill:#00782c;fill-opacity:1;fill-rule:nonzero;stroke:none"
           id="path59" /><path
           d="M 508.357,740.687 L 508.357,740.687 C 509.226,740.671 510.116,740.536 511.051,740.049 C 511.626,740.697 512.285,741.395 512.77,742.2 C 511.576,742.669 511.005,742.644 510.175,742.876 C 509.616,741.949 509.04,741.212 508.357,740.687"
           style="fill:#00782c;fill-opacity:1;fill-rule:nonzero;stroke:none"
           id="path61" /><path
           d="M 507.383,736.61 L 507.383,736.61 C 507.547,735.758 507.6,734.858 507.316,733.843 C 508.07,733.414 508.889,732.914 509.777,732.606 C 509.989,733.872 509.846,734.425 509.9,735.285 C 508.879,735.641 508.038,736.052 507.383,736.61"
           style="fill:#00782c;fill-opacity:1;fill-rule:nonzero;stroke:none"
           id="path63" /><path
           d="M 504.953,743.127 L 504.953,743.127 C 505.242,743.947 505.65,744.749 506.407,745.482 C 505.973,746.233 505.518,747.078 504.907,747.792 C 504.086,746.806 503.93,746.257 503.448,745.542 C 504.151,744.719 504.669,743.94 504.953,743.127"
           style="fill:#00782c;fill-opacity:1;fill-rule:nonzero;stroke:none"
           id="path65" /><path
           d="M 502.745,736.581 L 502.745,736.581 C 502.029,736.091 501.225,735.685 500.181,735.541 C 500.086,734.679 499.954,733.729 500.024,732.791 C 501.27,733.101 501.72,733.451 502.531,733.744 C 502.451,734.823 502.494,735.758 502.745,736.581"
           style="fill:#00782c;fill-opacity:1;fill-rule:nonzero;stroke:none"
           id="path67" /><path
           d="M 507.465,739.356 C 507.37,738.813 507.098,738.316 506.698,737.945 L 506.504,737.765 L 506.191,737.582 C 505.839,737.391 505.458,737.291 505.059,737.284 L 504.917,737.286 C 504.516,737.289 504.134,737.385 503.782,737.564 L 503.739,737.585 L 503.319,737.953 C 502.818,738.42 502.534,739.056 502.521,739.743 L 502.577,740.436 L 502.755,740.85 C 503.12,741.633 503.846,742.165 504.697,742.273 L 504.975,742.309 L 505.337,742.272 C 506.179,742.162 506.921,741.611 507.276,740.832 L 507.418,740.517 L 507.477,740.2 C 507.521,739.909 507.517,739.625 507.465,739.356 M 512.637,740.583 C 512.326,741.099 511.783,741.385 511.223,741.328 C 511.224,741.328 510.793,741.288 510.793,741.288 L 509.616,741.156 L 509.402,741.123 L 509.532,741.183 L 510.554,741.702 L 510.965,741.92 C 511.464,742.181 511.758,742.719 511.734,743.324 C 511.709,743.875 511.298,744.346 510.943,744.695 C 510.601,745.035 510.23,745.324 509.946,745.538 C 509.948,745.535 509.449,745.926 509.449,745.926 C 508.88,746.378 508.388,746.767 507.693,747.054 C 507.093,747.304 506.596,747.34 506.174,747.163 C 505.801,747.007 505.518,746.695 505.335,746.237 C 505.125,745.72 505.065,745.189 505.013,744.721 L 504.996,744.573 C 504.968,744.72 504.79,745.668 504.79,745.668 L 504.695,746.125 C 504.583,746.679 504.147,747.111 503.558,747.256 C 503.029,747.385 502.459,747.13 502.021,746.893 C 501.607,746.668 501.235,746.407 500.925,746.182 L 500.405,745.815 C 499.809,745.4 499.295,745.043 498.82,744.464 L 498.819,744.462 C 498.406,743.957 498.231,743.491 498.282,743.037 C 498.327,742.635 498.549,742.276 498.941,741.971 C 499.375,741.631 499.865,741.426 500.298,741.246 L 500.379,741.212 L 499.266,741.338 L 498.831,741.379 C 498.269,741.436 497.726,741.15 497.413,740.633 C 497.13,740.165 497.208,739.547 497.308,739.061 C 497.404,738.592 497.544,738.165 497.668,737.809 C 497.668,737.811 497.863,737.219 497.863,737.219 C 498.087,736.527 498.281,735.929 498.701,735.305 C 499.063,734.766 499.457,734.462 499.905,734.376 C 500.303,734.3 500.712,734.403 501.121,734.684 L 501.122,734.685 C 501.51,734.952 501.814,735.284 502.083,735.599 L 501.719,734.821 L 501.527,734.39 C 501.294,733.872 501.398,733.268 501.794,732.808 C 502.151,732.397 502.763,732.276 503.256,732.217 C 503.729,732.161 504.184,732.158 504.566,732.163 L 505.205,732.162 C 505.931,732.155 506.558,732.149 507.283,732.347 C 507.913,732.519 508.327,732.796 508.55,733.194 C 508.666,733.402 508.724,733.632 508.724,733.883 C 508.724,734.06 508.696,734.246 508.638,734.443 C 508.568,734.682 508.47,734.905 508.363,735.115 C 508.531,734.945 508.715,734.781 508.924,734.636 C 509.335,734.355 509.745,734.25 510.144,734.327 C 510.592,734.413 510.985,734.716 511.347,735.254 C 511.767,735.874 511.96,736.471 512.183,737.161 L 512.382,737.759 C 512.552,738.241 512.67,738.65 512.743,739.008 C 512.792,739.243 512.836,739.509 512.836,739.774 C 512.836,740.058 512.785,740.34 512.637,740.583 M 512.743,739.008 L 512.744,739.01 C 512.743,739.009 512.743,739.009 512.743,739.008 z M 507.283,732.347 L 507.283,732.347 L 507.283,732.347"
           style="fill:#ce0040;fill-opacity:1;fill-rule:nonzero;stroke:none"
           id="path69" /><path
           d="M 503.816,741.442 L 503.816,741.442 C 503.66,742.074 503.586,742.744 503.759,743.515 C 503.178,743.807 502.547,744.149 501.87,744.346 C 501.76,743.391 501.888,742.982 501.881,742.337 C 502.659,742.11 503.304,741.835 503.816,741.442"
           style="fill:#00782c;fill-opacity:1;fill-rule:nonzero;stroke:none"
           id="path71" /><path
           d="M 503.206,739.209 L 503.206,739.209 C 502.556,739.234 501.891,739.347 501.198,739.726 C 500.757,739.248 500.254,738.735 499.878,738.139 C 500.767,737.77 501.194,737.781 501.813,737.596 C 502.246,738.282 502.687,738.826 503.206,739.209"
           style="fill:#00782c;fill-opacity:1;fill-rule:nonzero;stroke:none"
           id="path73" /><path
           d="M 505.065,737.563 L 505.065,737.563 C 504.844,736.951 504.535,736.352 503.964,735.806 C 504.286,735.241 504.622,734.606 505.077,734.068 C 505.697,734.803 505.816,735.213 506.181,735.747 C 505.658,736.367 505.274,736.953 505.065,737.563"
           style="fill:#00782c;fill-opacity:1;fill-rule:nonzero;stroke:none"
           id="path75" /><path
           d="M 507.042,739.123 L 507.042,739.123 C 507.543,738.709 508.003,738.215 508.323,737.493 C 508.963,737.605 509.675,737.706 510.335,737.952 C 509.853,738.784 509.508,739.035 509.129,739.559 C 508.368,739.277 507.687,739.113 507.042,739.123"
           style="fill:#00782c;fill-opacity:1;fill-rule:nonzero;stroke:none"
           id="path77" /><path
           d="M 505.865,741.681 L 505.865,741.681 C 506.447,741.972 507.084,742.193 507.874,742.194 C 508.031,742.824 508.226,743.516 508.268,744.219 C 507.312,744.115 506.942,743.901 506.31,743.766 C 506.261,742.957 506.135,742.267 505.865,741.681"
           style="fill:#00782c;fill-opacity:1;fill-rule:nonzero;stroke:none"
           id="path79" /><path
           d="M 506.73,738.59 C 506.048,737.629 504.709,737.405 503.739,738.092 C 502.771,738.778 502.539,740.114 503.219,741.076 C 503.902,742.039 505.239,742.263 506.208,741.576 C 507.179,740.889 507.411,739.553 506.73,738.59"
           style="fill:#fab700;fill-opacity:1;fill-rule:nonzero;stroke:none"
           id="path81" /><path
           d="M 499.147,740.315 C 499.147,740.315 497.919,740.075 498.442,738.942 C 498.442,738.942 498.906,738.16 498.946,738 C 498.946,738 499.369,737.074 499.409,736.66 C 499.449,736.245 499.872,735.686 500.758,735.766 C 500.758,735.766 499.591,736.021 499.63,736.803 C 499.671,737.585 499.49,738.176 498.825,738.798 C 498.825,738.798 498.04,739.82 499.147,740.315"
           style="fill:#790b1a;fill-opacity:1;fill-rule:nonzero;stroke:none"
           id="path83" /><path
           d="M 502.68,734.367 C 502.68,734.367 502.483,733.132 503.727,733.234 C 503.727,733.234 504.62,733.4 504.784,733.383 C 504.784,733.383 505.799,733.461 506.202,733.356 C 506.606,733.251 507.275,733.456 507.505,734.315 C 507.505,734.315 506.864,733.307 506.143,733.614 C 505.423,733.92 504.806,733.954 503.993,733.544 C 503.993,733.544 502.764,733.158 502.68,734.367"
           style="fill:#790b1a;fill-opacity:1;fill-rule:nonzero;stroke:none"
           id="path85" /><path
           d="M 509.399,735.577 C 509.399,735.577 510.524,735.031 510.787,736.251 C 510.787,736.251 510.886,737.154 510.95,737.306 C 510.95,737.306 511.169,738.3 511.385,738.655 C 511.603,739.011 511.6,739.712 510.845,740.181 C 510.845,740.181 511.624,739.275 511.123,738.674 C 510.62,738.074 510.41,737.492 510.567,736.595 C 510.567,736.595 510.581,735.307 509.399,735.577"
           style="fill:#790b1a;fill-opacity:1;fill-rule:nonzero;stroke:none"
           id="path87" /><path
           d="M 509.828,742.437 C 509.828,742.437 510.825,743.193 509.856,743.979 C 509.856,743.979 509.096,744.477 508.989,744.603 C 508.989,744.603 508.202,745.248 507.983,745.603 C 507.764,745.958 507.139,746.273 506.378,745.811 C 506.378,745.811 507.539,746.096 507.847,745.376 C 508.155,744.656 508.578,744.206 509.449,743.939 C 509.449,743.939 510.603,743.368 509.828,742.437"
           style="fill:#790b1a;fill-opacity:1;fill-rule:nonzero;stroke:none"
           id="path89" /><path
           d="M 503.99,745.49 C 503.99,745.49 503.464,746.625 502.488,745.846 C 502.488,745.846 501.84,745.209 501.694,745.132 C 501.694,745.132 500.896,744.501 500.503,744.362 C 500.109,744.225 499.668,743.681 499.957,742.839 C 499.957,742.839 499.926,744.034 500.695,744.182 C 501.464,744.329 501.994,744.646 502.441,745.44 C 502.441,745.44 503.245,746.446 503.99,745.49"
           style="fill:#790b1a;fill-opacity:1;fill-rule:nonzero;stroke:none"
           id="path91" /><path
           d="M 505.192,738.005 L 505.027,737.985 L 504.843,737.996 C 504.149,738.044 503.534,738.492 503.275,739.138 L 503.211,739.298 L 503.2,739.373 L 503.143,739.816 C 503.143,740.37 503.392,740.889 503.826,741.238 L 503.913,741.308 L 504.041,741.385 C 504.323,741.553 504.645,741.642 504.97,741.642 C 505.323,741.642 505.667,741.539 505.964,741.345 L 506.07,741.276 L 506.173,741.186 C 506.569,740.838 506.796,740.339 506.796,739.816 L 506.737,739.346 L 506.678,739.177 C 506.439,738.536 505.869,738.087 505.192,738.005 M 509.807,740.067 L 509.807,740.067 C 509.738,740.531 509.572,740.897 509.381,741.321 L 509.209,741.708 L 508.84,742.46 C 508.615,742.839 508.413,743.04 508.187,743.11 C 507.866,743.209 507.538,743.13 507.33,742.903 C 507.329,742.902 507.119,742.673 507.119,742.673 L 506.749,742.255 L 507.037,742.853 L 507.169,743.142 C 507.299,743.422 507.244,743.755 507.03,744.013 C 506.834,744.246 506.471,744.323 506.176,744.363 C 506.176,744.363 505.34,744.413 505.34,744.413 L 504.917,744.421 C 504.453,744.434 504.052,744.445 503.596,744.328 C 503.224,744.233 502.981,744.08 502.854,743.859 C 502.744,743.666 502.727,743.432 502.803,743.161 C 502.872,742.914 502.987,742.688 503.106,742.484 L 502.937,742.673 L 502.728,742.902 C 502.519,743.13 502.191,743.209 501.871,743.11 C 501.58,743.021 501.369,742.715 501.217,742.459 L 500.848,741.707 L 500.677,741.323 C 500.485,740.898 500.319,740.532 500.25,740.067 C 500.194,739.687 500.242,739.404 500.396,739.201 C 500.531,739.025 500.74,738.918 501.02,738.883 C 501.359,738.841 501.679,738.887 501.989,738.931 L 502.183,738.959 C 502.183,738.959 502.447,738.992 502.447,738.992 L 502.476,738.997 L 502.117,738.782 L 501.504,738.383 L 501.243,738.207 C 500.988,738.036 500.86,737.723 500.91,737.391 C 500.955,737.091 501.226,736.836 501.457,736.648 C 501.458,736.648 502.146,736.171 502.146,736.171 L 502.502,735.945 C 502.893,735.692 503.23,735.474 503.68,735.337 C 504.047,735.225 504.334,735.23 504.558,735.353 C 504.752,735.46 504.889,735.651 504.964,735.923 C 504.991,736.021 505.01,736.119 505.023,736.218 C 505.037,736.116 505.055,736.015 505.083,735.913 C 505.159,735.642 505.296,735.45 505.49,735.344 C 505.714,735.221 506.001,735.216 506.368,735.328 C 506.817,735.465 507.155,735.682 507.545,735.935 L 507.902,736.162 L 508.591,736.639 C 508.821,736.827 509.092,737.081 509.138,737.381 C 509.188,737.714 509.061,738.027 508.806,738.197 C 508.805,738.198 508.544,738.374 508.544,738.374 L 507.93,738.773 L 507.55,739 L 507.578,738.997 L 507.874,738.959 C 507.874,738.959 508.068,738.931 508.068,738.931 C 508.378,738.887 508.698,738.841 509.038,738.883 C 509.317,738.918 509.527,739.025 509.661,739.201 C 509.815,739.404 509.863,739.687 509.807,740.067"
           style="fill:#ffffff;fill-opacity:1;fill-rule:nonzero;stroke:none"
           id="path93" /><path
           d="M 513.981,730.863 C 514.368,731.201 515.186,733.756 515.186,733.756 C 515.951,735.685 515.661,736.879 515.661,736.879 C 515.623,736.382 515.528,735.886 515.419,735.452 C 515.22,735.753 514.889,736.605 514.889,736.605 C 514.865,736.088 515.216,735.245 515.305,735.037 C 515.124,734.419 514.944,733.999 514.944,733.999 C 514.717,734.149 514.157,735.224 514.157,735.224 C 514.139,734.478 514.867,733.739 514.867,733.739 C 514.73,733.098 514.452,732.498 514.452,732.498 C 514.136,732.666 513.702,733.59 513.702,733.59 C 513.803,732.847 514.348,732.188 514.348,732.188 C 514.228,731.767 513.807,730.991 513.807,730.991 C 513.748,730.912 513.592,730.524 513.981,730.863"
           style="fill:#9cc12a;fill-opacity:1;fill-rule:nonzero;stroke:none"
           id="path95" /><path
           d="M 518.688,731.304 C 518.688,731.304 519.34,731.936 519.733,732.188 C 519.733,732.188 520.613,731.954 521.419,732.129 C 521.419,732.129 520.304,732.175 520.016,732.385 C 520.016,732.385 520.536,732.834 521.15,733.176 C 521.15,733.176 522.18,732.815 522.946,733.093 C 522.946,733.093 521.629,733.193 521.389,733.334 C 521.389,733.334 521.762,733.635 522.335,734.008 C 522.583,734.003 523.583,734.002 524.11,734.204 C 524.11,734.204 523.107,734.187 522.724,734.25 C 523.135,734.497 523.611,734.752 524.113,734.96 C 524.113,734.96 522.772,734.787 521.052,733.456 C 521.052,733.456 518.702,731.857 518.492,731.406 C 518.283,730.957 518.627,731.226 518.688,731.304"
           style="fill:#9cc12a;fill-opacity:1;fill-rule:nonzero;stroke:none"
           id="path97" /><path
           d="M 519.948,726.623 C 519.948,726.623 516.953,727.601 516.379,727.499 C 515.803,727.397 516.278,727.275 516.391,727.272 C 516.391,727.272 517.411,727.117 517.896,726.944 C 517.896,726.944 518.183,726.064 518.836,725.499 C 518.836,725.499 518.222,726.458 518.261,726.829 C 518.261,726.829 519.019,726.672 519.725,726.369 C 519.725,726.369 519.973,725.286 520.705,724.817 C 520.705,724.817 520.026,725.979 520.026,726.266 C 520.026,726.266 520.547,726.141 521.26,725.891 C 521.402,725.682 521.994,724.844 522.509,724.528 C 522.509,724.528 521.897,725.357 521.733,725.716 C 522.223,725.524 522.762,725.284 523.267,724.991 C 523.267,724.991 522.3,726.007 519.948,726.623"
           style="fill:#9cc12a;fill-opacity:1;fill-rule:nonzero;stroke:none"
           id="path99" /><path
           d="M 505.243,748.386 C 523.135,748.433 531.323,731.256 531.323,719.598 C 531.323,698.197 516.56,689.782 516.021,689.445 C 516.268,689.445 535.583,689.444 536.008,689.447 C 536.074,689.447 536.12,689.524 536.194,689.594 C 537.305,690.653 541.419,695.37 544.143,701.621 C 543.559,701.621 542.715,701.62 542.036,701.62 C 541.995,701.62 541.933,701.634 541.905,701.602 C 541.888,701.568 541.87,701.53 541.853,701.498 C 537.392,693.501 528.417,691.53 522.689,691.762 C 552.3,715.24 532.611,750.404 505.243,750.404 C 477.875,750.404 458.186,715.24 487.798,691.762 C 482.07,691.53 473.094,693.501 468.634,701.498 C 468.616,701.53 468.599,701.568 468.582,701.602 C 468.554,701.634 468.491,701.62 468.45,701.62 C 467.772,701.62 466.928,701.621 466.343,701.621 C 469.068,695.37 473.182,690.653 474.293,689.594 C 474.366,689.524 474.413,689.447 474.478,689.447 C 474.903,689.444 494.218,689.445 494.466,689.445 C 493.926,689.782 479.164,698.197 479.164,719.598 C 479.164,731.256 487.352,748.34 505.243,748.386"
           style="fill:#000000;fill-opacity:1;fill-rule:evenodd;stroke:none"
           id="path101" /><path
           d="M 488.711,776.302 C 488.707,775.814 488.308,775.421 487.82,775.425 C 487.331,775.428 486.939,775.827 486.943,776.315 C 486.946,776.804 487.344,777.196 487.833,777.193 C 488.321,777.189 488.714,776.791 488.711,776.302"
           style="fill:#000000;fill-opacity:1;fill-rule:nonzero;stroke:none"
           id="path103" /><path
           d="M 487.54,779.265 C 487.537,778.777 487.138,778.384 486.649,778.388 C 486.161,778.391 485.769,778.79 485.772,779.279 C 485.776,779.767 486.174,780.159 486.663,780.156 C 487.15,780.152 487.544,779.754 487.54,779.265"
           style="fill:#000000;fill-opacity:1;fill-rule:nonzero;stroke:none"
           id="path105" /><path
           d="M 487.481,782.45 C 487.477,781.961 487.078,781.569 486.591,781.572 C 486.102,781.576 485.71,781.974 485.713,782.463 C 485.716,782.951 486.115,783.344 486.604,783.34 C 487.092,783.337 487.484,782.938 487.481,782.45"
           style="fill:#000000;fill-opacity:1;fill-rule:nonzero;stroke:none"
           id="path107" /><path
           d="M 488.521,785.382 C 488.517,784.893 488.118,784.501 487.631,784.504 C 487.142,784.508 486.75,784.906 486.754,785.395 C 486.757,785.883 487.155,786.276 487.644,786.272 C 488.132,786.268 488.525,785.87 488.521,785.382"
           style="fill:#000000;fill-opacity:1;fill-rule:nonzero;stroke:none"
           id="path109" /><path
           d="M 490.791,787.368 C 490.788,786.879 490.389,786.487 489.9,786.49 C 489.412,786.494 489.019,786.892 489.023,787.381 C 489.027,787.869 489.425,788.262 489.913,788.258 C 490.401,788.255 490.794,787.856 490.791,787.368"
           style="fill:#000000;fill-opacity:1;fill-rule:nonzero;stroke:none"
           id="path111" /><path
           d="M 493.723,788.03 C 493.719,787.541 493.32,787.149 492.832,787.152 C 492.344,787.156 491.951,787.555 491.955,788.043 C 491.958,788.531 492.357,788.924 492.845,788.92 C 493.333,788.917 493.726,788.518 493.723,788.03"
           style="fill:#000000;fill-opacity:1;fill-rule:nonzero;stroke:none"
           id="path113" /><path
           d="M 496.56,787.368 C 496.556,786.879 496.158,786.487 495.67,786.49 C 495.181,786.494 494.789,786.892 494.792,787.381 C 494.795,787.869 495.194,788.262 495.683,788.258 C 496.17,788.255 496.564,787.856 496.56,787.368"
           style="fill:#000000;fill-opacity:1;fill-rule:nonzero;stroke:none"
           id="path115" /><path
           d="M 499.403,786.572 C 499.399,786.084 499,785.691 498.513,785.694 C 498.024,785.698 497.632,786.096 497.636,786.585 C 497.638,787.073 498.037,787.466 498.526,787.462 C 499.014,787.459 499.407,787.06 499.403,786.572"
           style="fill:#000000;fill-opacity:1;fill-rule:nonzero;stroke:none"
           id="path117" /><path
           d="M 502.335,785.626 C 502.331,785.138 501.932,784.745 501.444,784.748 C 500.956,784.752 500.564,785.151 500.567,785.639 C 500.57,786.127 500.969,786.52 501.458,786.516 C 501.945,786.513 502.339,786.115 502.335,785.626"
           style="fill:#000000;fill-opacity:1;fill-rule:nonzero;stroke:none"
           id="path119" /><path
           d="M 505.066,793.96 L 505.25,796.003 L 505.497,793.947 L 507.419,793.703 L 505.499,793.499 L 505.254,791.457 L 505.05,793.503 L 503.011,793.697 L 505.066,793.96 z M 504.398,792.943 C 504.331,792.514 504.245,792.135 504.102,791.793 C 503.971,791.479 503.753,791.231 503.583,790.967 C 503.575,790.953 503.545,790.907 503.566,790.901 L 506.835,790.901 C 506.838,790.921 506.432,791.463 506.306,791.777 C 506.169,792.118 506.083,792.506 506.034,792.931 C 506.439,792.882 506.791,792.796 507.113,792.673 C 507.435,792.55 507.714,792.361 507.996,792.203 L 507.996,795.354 C 507.958,795.345 507.937,795.319 507.904,795.296 C 507.655,795.121 507.434,794.94 507.141,794.815 C 506.976,794.744 506.802,794.681 506.616,794.635 C 506.431,794.589 506.237,794.543 506.028,794.533 C 506.096,795.154 506.251,795.68 506.495,796.107 C 506.565,796.232 506.648,796.367 506.711,796.485 C 506.719,796.501 506.741,796.557 506.722,796.559 L 503.747,796.559 C 503.899,796.268 504.079,795.981 504.195,795.644 C 504.253,795.475 504.297,795.302 504.335,795.115 C 504.371,794.935 504.413,794.745 504.417,794.539 C 503.787,794.624 503.27,794.812 502.861,795.109 C 502.741,795.197 502.624,795.294 502.507,795.372 C 502.492,795.382 502.44,795.415 502.435,795.39 L 502.435,792.245 C 502.717,792.399 502.986,792.584 503.309,792.702 C 503.635,792.82 503.99,792.902 504.398,792.943"
           style="fill:#000000;fill-opacity:1;fill-rule:nonzero;stroke:none"
           id="path121" /><path
           d="M 505.094,773.634 L 505.242,775.271 L 505.439,773.624 L 506.98,773.428 L 505.441,773.264 L 505.245,771.628 L 505.081,773.267 L 503.447,773.423 L 505.094,773.634 z M 504.348,772.561 C 504.269,772.068 504.172,771.632 504.006,771.239 C 503.855,770.877 503.605,770.592 503.41,770.288 C 503.4,770.272 503.366,770.219 503.39,770.212 L 507.15,770.212 C 507.154,770.235 506.687,770.859 506.542,771.22 C 506.384,771.613 506.286,772.058 506.228,772.547 C 506.694,772.492 507.099,772.392 507.47,772.251 C 507.84,772.11 508.161,771.892 508.485,771.71 L 508.485,775.335 C 508.442,775.324 508.417,775.294 508.379,775.268 C 508.094,775.067 507.84,774.858 507.503,774.715 C 507.312,774.633 507.112,774.56 506.898,774.507 C 506.686,774.455 506.462,774.402 506.223,774.39 C 506.3,775.105 506.478,775.709 506.759,776.201 C 506.84,776.344 506.935,776.5 507.007,776.636 C 507.017,776.654 507.043,776.718 507.021,776.721 L 503.599,776.721 C 503.774,776.386 503.981,776.056 504.114,775.669 C 504.18,775.474 504.231,775.274 504.274,775.06 C 504.316,774.853 504.364,774.634 504.369,774.397 C 503.645,774.495 503.049,774.711 502.579,775.052 C 502.44,775.154 502.306,775.265 502.172,775.356 C 502.154,775.367 502.095,775.405 502.088,775.376 L 502.088,771.759 C 502.414,771.936 502.722,772.148 503.094,772.284 C 503.469,772.42 503.878,772.515 504.348,772.561"
           style="fill:#000000;fill-opacity:1;fill-rule:nonzero;stroke:none"
           id="path123" /><path
           d="M 489.682,770.424 C 489.744,770.148 489.792,769.858 489.815,769.56 C 489.841,769.228 489.842,768.863 489.785,768.549 C 489.731,768.252 489.624,767.974 489.555,767.696 C 490.446,767.971 491.311,768.271 492.197,768.55 C 492.203,768.576 492.173,768.59 492.159,768.604 C 492.103,768.658 492.046,768.707 491.992,768.756 C 491.843,768.889 491.681,769.02 491.554,769.167 C 491.224,769.549 490.961,769.991 490.745,770.481 C 491.143,770.56 491.57,770.61 492.021,770.581 C 492.235,770.569 492.435,770.521 492.622,770.464 C 492.81,770.407 492.99,770.339 493.167,770.307 C 492.794,771.432 492.43,772.567 492.06,773.696 C 491.92,773.554 491.794,773.4 491.667,773.25 C 491.277,772.792 490.76,772.477 490.199,772.203 C 490.124,772.609 490.075,773.045 490.102,773.505 C 490.128,773.953 490.286,774.311 490.37,774.68 L 490.357,774.681 C 489.481,774.395 488.608,774.107 487.728,773.827 C 487.736,773.797 487.765,773.777 487.785,773.759 C 487.95,773.61 488.115,773.468 488.268,773.313 C 488.693,772.884 489.014,772.326 489.266,771.717 C 489.266,771.717 489.597,771.117 489.682,770.424"
           style="fill:#000000;fill-opacity:1;fill-rule:nonzero;stroke:none"
           id="path125" /><path
           d="M 520.78,770.274 C 520.718,769.998 520.671,769.708 520.648,769.41 C 520.622,769.078 520.62,768.713 520.677,768.399 C 520.732,768.102 520.839,767.824 520.907,767.547 C 520.016,767.821 519.151,768.121 518.266,768.4 C 518.259,768.426 518.289,768.441 518.303,768.454 C 518.36,768.508 518.417,768.556 518.471,768.606 C 518.619,768.74 518.781,768.87 518.909,769.017 C 519.239,769.399 519.502,769.84 519.717,770.331 C 519.32,770.41 518.893,770.461 518.441,770.431 C 518.227,770.419 518.028,770.371 517.841,770.314 C 517.653,770.257 517.473,770.19 517.295,770.157 C 517.668,771.282 518.032,772.417 518.403,773.546 C 518.542,773.404 518.669,773.251 518.795,773.1 C 519.185,772.642 519.703,772.327 520.264,772.053 C 520.339,772.459 520.388,772.895 520.361,773.356 C 520.334,773.803 520.177,774.162 520.093,774.531 L 520.106,774.531 C 520.982,774.245 521.854,773.957 522.735,773.678 C 522.727,773.647 522.697,773.627 522.677,773.61 C 522.512,773.46 522.348,773.318 522.194,773.163 C 521.769,772.734 521.449,772.176 521.196,771.568 C 521.196,771.568 520.866,770.967 520.78,770.274"
           style="fill:#000000;fill-opacity:1;fill-rule:nonzero;stroke:none"
           id="path127" /><path
           d="M 521.847,776.302 C 521.851,775.814 522.25,775.421 522.738,775.425 C 523.227,775.428 523.619,775.827 523.615,776.315 C 523.611,776.804 523.213,777.196 522.725,777.193 C 522.237,777.189 521.844,776.791 521.847,776.302"
           style="fill:#000000;fill-opacity:1;fill-rule:nonzero;stroke:none"
           id="path129" /><path
           d="M 523.017,779.265 C 523.021,778.777 523.42,778.384 523.908,778.388 C 524.397,778.391 524.789,778.79 524.786,779.279 C 524.782,779.767 524.383,780.159 523.895,780.156 C 523.407,780.152 523.014,779.754 523.017,779.265"
           style="fill:#000000;fill-opacity:1;fill-rule:nonzero;stroke:none"
           id="path131" /><path
           d="M 523.077,782.45 C 523.08,781.961 523.479,781.569 523.967,781.572 C 524.456,781.576 524.848,781.974 524.844,782.463 C 524.841,782.951 524.444,783.344 523.954,783.34 C 523.466,783.337 523.074,782.938 523.077,782.45"
           style="fill:#000000;fill-opacity:1;fill-rule:nonzero;stroke:none"
           id="path133" /><path
           d="M 522.037,785.382 C 522.04,784.893 522.439,784.501 522.927,784.504 C 523.416,784.508 523.808,784.906 523.804,785.395 C 523.801,785.883 523.403,786.276 522.914,786.272 C 522.426,786.268 522.033,785.87 522.037,785.382"
           style="fill:#000000;fill-opacity:1;fill-rule:nonzero;stroke:none"
           id="path135" /><path
           d="M 519.767,787.368 C 519.77,786.879 520.169,786.487 520.657,786.49 C 521.146,786.494 521.538,786.892 521.534,787.381 C 521.531,787.869 521.133,788.262 520.645,788.258 C 520.156,788.255 519.763,787.856 519.767,787.368"
           style="fill:#000000;fill-opacity:1;fill-rule:nonzero;stroke:none"
           id="path137" /><path
           d="M 516.835,788.03 C 516.838,787.541 517.237,787.149 517.726,787.152 C 518.214,787.156 518.607,787.555 518.603,788.043 C 518.599,788.531 518.201,788.924 517.712,788.92 C 517.224,788.917 516.832,788.518 516.835,788.03"
           style="fill:#000000;fill-opacity:1;fill-rule:nonzero;stroke:none"
           id="path139" /><path
           d="M 513.998,787.368 C 514.001,786.879 514.4,786.487 514.888,786.49 C 515.377,786.494 515.769,786.892 515.766,787.381 C 515.762,787.869 515.364,788.262 514.875,788.258 C 514.388,788.255 513.994,787.856 513.998,787.368"
           style="fill:#000000;fill-opacity:1;fill-rule:nonzero;stroke:none"
           id="path141" /><path
           d="M 511.155,786.572 C 511.158,786.084 511.558,785.691 512.045,785.694 C 512.534,785.698 512.926,786.096 512.922,786.585 C 512.919,787.073 512.521,787.466 512.032,787.462 C 511.544,787.459 511.151,787.06 511.155,786.572"
           style="fill:#000000;fill-opacity:1;fill-rule:nonzero;stroke:none"
           id="path143" /><path
           d="M 508.222,785.626 C 508.226,785.138 508.625,784.745 509.113,784.748 C 509.601,784.752 509.994,785.151 509.991,785.639 C 509.988,786.127 509.589,786.52 509.1,786.516 C 508.612,786.513 508.219,786.115 508.222,785.626"
           style="fill:#000000;fill-opacity:1;fill-rule:nonzero;stroke:none"
           id="path145" /><path
           d="M 497.69,773.905 L 497.432,773.425 L 497.002,776.803 C 497.002,776.803 497.945,776.078 497.69,773.905 M 497.993,770.166 C 498.196,770.346 498.219,770.661 498.046,770.871 L 497.975,770.94 C 497.945,770.969 497.939,771.023 497.967,771.053 C 497.995,771.083 498.036,771.089 498.065,771.06 L 498.158,770.969 C 498.385,770.697 498.354,770.285 498.089,770.051 C 497.825,769.818 497.426,769.849 497.199,770.121 C 497.106,770.232 497.054,770.368 497.047,770.515 C 497.046,770.557 497.077,770.592 497.117,770.594 C 497.159,770.596 497.193,770.563 497.194,770.522 C 497.2,770.41 497.239,770.305 497.311,770.22 C 497.484,770.011 497.791,769.987 497.993,770.166 M 500.883,772.805 C 500.828,773.229 500.647,773.593 500.396,773.823 C 500.138,774.059 499.782,774.245 499.352,774.285 C 498.942,774.322 498.571,774.194 498.314,774.046 C 498.272,774.022 498.23,773.994 498.196,773.988 C 498.257,774.356 498.266,774.753 498.234,775.099 C 498.2,775.454 498.106,775.764 497.994,776.027 C 497.76,776.576 497.37,776.986 496.837,777.211 L 496.824,777.212 C 496.758,777.167 496.701,777.121 496.645,777.067 C 496.307,776.742 496.045,776.262 495.968,775.676 C 495.87,774.928 496.078,774.258 496.289,773.716 C 495.883,773.859 495.383,773.846 495.034,773.702 C 494.699,773.565 494.39,773.313 494.206,773.042 C 494.004,772.745 493.886,772.279 493.963,771.813 C 494.014,771.502 494.153,771.244 494.363,771.091 C 494.435,771.038 494.521,770.989 494.617,770.979 C 494.572,771.082 494.537,771.183 494.53,771.311 C 494.508,771.734 494.725,772.032 494.93,772.207 C 495.163,772.406 495.494,772.534 495.903,772.475 C 496.242,772.425 496.532,772.255 496.779,772.069 C 496.992,771.908 497.183,771.715 497.351,771.521 C 497.375,771.493 497.417,771.474 497.415,771.432 C 497.216,771.368 497.066,771.287 496.946,771.15 C 496.83,771.018 496.733,770.837 496.715,770.615 C 496.664,769.993 497.137,769.605 497.659,769.601 C 497.92,769.6 498.144,769.703 498.311,769.846 C 498.469,769.982 498.611,770.185 498.634,770.441 C 498.669,770.821 498.518,771.074 498.327,771.242 C 498.159,771.389 497.931,771.484 497.638,771.469 C 497.923,772.038 498.291,772.649 498.923,772.89 C 499.299,773.034 499.702,772.977 499.987,772.792 C 500.278,772.603 500.543,772.251 500.467,771.753 C 500.784,771.915 500.944,772.332 500.883,772.805"
           style="fill:#000000;fill-opacity:1;fill-rule:nonzero;stroke:none"
           id="path147" /><path
           d="M 513.572,776.697 L 513.143,773.319 L 512.884,773.799 C 512.629,775.972 513.572,776.697 513.572,776.697 M 513.264,770.114 C 513.335,770.199 513.374,770.304 513.38,770.416 C 513.382,770.457 513.416,770.49 513.457,770.488 C 513.497,770.486 513.529,770.451 513.527,770.409 C 513.52,770.262 513.469,770.126 513.375,770.015 C 513.149,769.742 512.749,769.711 512.485,769.945 C 512.221,770.179 512.189,770.591 512.416,770.863 L 512.509,770.954 C 512.538,770.983 512.579,770.977 512.607,770.947 C 512.636,770.917 512.629,770.863 512.599,770.834 L 512.529,770.765 C 512.355,770.555 512.378,770.24 512.581,770.061 C 512.783,769.881 513.09,769.905 513.264,770.114 M 510.108,771.647 C 510.032,772.145 510.297,772.497 510.587,772.686 C 510.872,772.871 511.275,772.928 511.651,772.784 C 512.284,772.543 512.651,771.932 512.937,771.363 C 512.643,771.378 512.415,771.283 512.247,771.136 C 512.056,770.968 511.905,770.715 511.94,770.335 C 511.963,770.079 512.105,769.876 512.264,769.74 C 512.431,769.597 512.654,769.493 512.915,769.495 C 513.438,769.499 513.91,769.886 513.859,770.509 C 513.841,770.731 513.744,770.912 513.628,771.044 C 513.508,771.181 513.359,771.262 513.159,771.326 C 513.157,771.368 513.199,771.387 513.223,771.415 C 513.391,771.609 513.582,771.802 513.796,771.963 C 514.042,772.149 514.332,772.319 514.671,772.369 C 515.08,772.428 515.411,772.3 515.644,772.101 C 515.849,771.926 516.066,771.628 516.044,771.205 C 516.037,771.077 516.003,770.976 515.958,770.873 C 516.053,770.883 516.139,770.932 516.211,770.985 C 516.421,771.138 516.56,771.396 516.611,771.706 C 516.688,772.172 516.57,772.639 516.369,772.936 C 516.184,773.207 515.875,773.458 515.541,773.596 C 515.191,773.74 514.691,773.753 514.285,773.61 C 514.497,774.151 514.704,774.822 514.607,775.569 C 514.529,776.156 514.267,776.636 513.929,776.961 C 513.873,777.015 513.816,777.061 513.75,777.106 L 513.737,777.105 C 513.204,776.88 512.815,776.47 512.58,775.921 C 512.468,775.658 512.374,775.347 512.34,774.993 C 512.308,774.647 512.318,774.249 512.379,773.882 C 512.344,773.888 512.302,773.916 512.26,773.94 C 512.003,774.087 511.632,774.216 511.223,774.179 C 510.792,774.139 510.437,773.953 510.178,773.717 C 509.927,773.487 509.746,773.123 509.691,772.698 C 509.63,772.226 509.79,771.809 510.108,771.647"
           style="fill:#000000;fill-opacity:1;fill-rule:nonzero;stroke:none"
           id="path149" /><path
           d="M 506.137,777.936 C 506.133,777.448 505.734,777.055 505.246,777.058 C 504.758,777.062 504.365,777.46 504.369,777.949 C 504.372,778.437 504.771,778.83 505.26,778.826 C 505.747,778.823 506.141,778.424 506.137,777.936"
           style="fill:#000000;fill-opacity:1;fill-rule:nonzero;stroke:none"
           id="path151" /><path
           d="M 506.137,780.17 C 506.133,779.683 505.734,779.29 505.246,779.293 C 504.758,779.297 504.365,779.696 504.369,780.184 C 504.372,780.672 504.771,781.065 505.26,781.061 C 505.747,781.058 506.141,780.659 506.137,780.17"
           style="fill:#000000;fill-opacity:1;fill-rule:nonzero;stroke:none"
           id="path153" /><path
           d="M 506.137,782.406 C 506.133,781.918 505.734,781.525 505.246,781.529 C 504.758,781.532 504.365,781.931 504.369,782.419 C 504.372,782.907 504.771,783.3 505.26,783.297 C 505.747,783.293 506.141,782.895 506.137,782.406"
           style="fill:#000000;fill-opacity:1;fill-rule:nonzero;stroke:none"
           id="path155" /><path
           d="M 506.137,784.559 C 506.133,784.07 505.734,783.678 505.246,783.681 C 504.758,783.685 504.365,784.083 504.369,784.571 C 504.372,785.06 504.771,785.452 505.26,785.449 C 505.747,785.445 506.141,785.047 506.137,784.559"
           style="fill:#000000;fill-opacity:1;fill-rule:nonzero;stroke:none"
           id="path157" /><path
           d="M 504.009,778.017 C 504.009,777.774 503.812,777.576 503.569,777.576 C 503.324,777.576 503.128,777.774 503.128,778.017 L 503.128,785.012 C 503.128,785.255 503.324,785.452 503.569,785.452 C 503.812,785.452 504.009,785.255 504.009,785.012 L 504.009,778.017"
           style="fill:#000000;fill-opacity:1;fill-rule:nonzero;stroke:none"
           id="path159" /><path
           d="M 507.378,778.017 C 507.378,777.774 507.181,777.576 506.937,777.576 C 506.694,777.576 506.496,777.774 506.496,778.017 L 506.496,785.012 C 506.496,785.255 506.694,785.452 506.937,785.452 C 507.181,785.452 507.378,785.255 507.378,785.012 L 507.378,778.017"
           style="fill:#000000;fill-opacity:1;fill-rule:nonzero;stroke:none"
           id="path161" /><path
           d="M 504.92,790.677 C 503.888,790.536 503.068,789.736 502.896,788.714 L 504.92,788.714 L 504.92,790.677"
           style="fill:#000000;fill-opacity:1;fill-rule:nonzero;stroke:none"
           id="path163" /><path
           d="M 502.885,787.988 C 503.03,786.932 503.864,786.098 504.92,785.953 L 504.92,787.988 L 502.885,787.988"
           style="fill:#000000;fill-opacity:1;fill-rule:nonzero;stroke:none"
           id="path165" /><path
           d="M 507.598,788.714 C 507.43,789.712 506.644,790.497 505.646,790.666 L 505.646,788.714 L 507.598,788.714"
           style="fill:#000000;fill-opacity:1;fill-rule:nonzero;stroke:none"
           id="path167" /><path
           d="M 505.646,785.964 C 506.668,786.137 507.467,786.956 507.609,787.988 L 505.646,787.988 L 505.646,785.964"
           style="fill:#000000;fill-opacity:1;fill-rule:nonzero;stroke:none"
           id="path169" /><path
           d="M 490.838,766.215 C 490.838,765.843 490.761,764.953 490.761,764.953 L 490.507,764.851 L 490.116,766.335 L 490.242,766.385 C 490.388,766.443 505.026,772.097 520.313,765.997 L 520.198,765.708 C 505.739,771.477 492.247,766.735 490.838,766.215 M 504.873,769.278 C 499.48,769.278 494.312,768.302 489.531,766.524 L 490.42,763.529 C 494.943,765.132 499.807,766.008 504.873,766.008 C 510.208,766.008 515.32,765.038 520.045,763.269 L 520.965,766.238 C 515.976,768.197 510.549,769.278 504.873,769.278"
           style="fill:#000000;fill-opacity:1;fill-rule:nonzero;stroke:none"
           id="path171" /><path
           d="M 504.977,764.973 C 510.058,764.973 514.985,764.129 519.629,762.469 C 519.56,762.252 519.267,761.321 519.198,761.103 C 514.679,762.655 509.896,763.448 504.977,763.448 C 500.33,763.448 495.633,762.71 491.377,761.325 C 491.309,761.538 491.005,762.472 490.933,762.694 C 495.313,764.184 500.164,764.973 504.977,764.973 M 490.688,762.94 L 490.545,762.89 L 491.178,760.941 L 491.325,760.989 C 495.588,762.396 500.31,763.139 504.977,763.139 C 509.917,763.139 514.718,762.341 519.249,760.766 L 519.399,760.713 L 520.012,762.662 L 519.873,762.712 C 515.157,764.417 510.145,765.281 504.977,765.281 C 500.078,765.281 495.137,764.472 490.688,762.94"
           style="fill:#000000;fill-opacity:1;fill-rule:nonzero;stroke:none"
           id="path173" /><path
           d="M 465.404,714.224 C 465.117,714.195 465.041,714.058 465.071,713.752 C 465.072,713.742 465.074,713.722 465.076,713.702 L 465.167,712.993 C 465.244,712.321 465.403,712.128 465.907,711.969 C 466.227,711.871 466.492,711.918 466.513,711.71 C 466.519,711.641 466.446,711.574 466.337,711.563 C 466.179,711.547 466.007,711.579 465.807,711.579 L 465.028,711.581 C 464.818,711.58 464.744,711.623 464.72,711.87 C 464.703,712.038 464.726,712.509 464.648,713.29 L 464.383,715.958 C 464.31,716.689 464.199,717.207 464.168,717.514 C 464.147,717.721 464.173,717.764 464.369,717.803 C 465.075,717.933 465.437,718 465.447,718.001 C 465.566,718.013 465.631,717.959 465.641,717.86 C 465.661,717.663 465.311,717.668 465.088,717.496 C 464.81,717.278 464.773,716.955 464.825,716.432 L 464.909,715.582 C 464.939,715.285 465.034,715.235 465.311,715.262 L 469.977,715.73 C 470.501,715.783 470.73,715.886 470.856,716.318 C 470.969,716.698 470.803,717.061 471.06,717.086 C 471.178,717.098 471.256,717.017 471.273,716.848 C 471.295,716.631 471.267,716.209 471.328,715.596 C 471.418,714.697 471.543,714.131 471.567,713.894 C 471.582,713.745 471.539,713.671 471.421,713.659 C 471.173,713.635 471.211,713.958 471.079,714.284 C 470.932,714.658 470.643,714.749 470.08,714.693 L 465.404,714.224"
           style="fill:#000000;fill-opacity:1;fill-rule:nonzero;stroke:none"
           id="path175" /><path
           d="M 467.533,722.476 L 467.986,725.472 C 468.02,725.698 467.934,725.731 467.689,725.768 L 466.382,725.964 C 465.852,726.044 465.573,726.056 465.375,725.684 C 465.218,725.376 465.23,725.053 465.014,725.085 C 464.916,725.1 464.86,725.199 464.882,725.346 C 464.906,725.503 465.033,725.876 465.124,726.475 C 465.228,727.163 465.233,727.594 465.255,727.741 C 465.276,727.879 465.346,727.948 465.425,727.937 C 465.641,727.904 465.514,727.592 465.674,727.327 C 465.835,727.061 466.081,727.024 466.483,726.963 L 470.678,726.332 C 471.238,726.247 471.48,726.322 471.698,726.701 C 471.862,726.987 471.861,727.38 472.087,727.345 C 472.215,727.326 472.243,727.251 472.22,727.094 C 472.196,726.937 472.096,726.54 471.996,725.882 C 471.873,725.067 471.842,724.599 471.829,724.511 C 471.81,724.384 471.753,724.342 471.635,724.36 C 471.419,724.392 471.532,724.676 471.353,724.955 C 471.173,725.222 470.911,725.282 470.518,725.342 L 468.838,725.594 C 468.593,725.631 468.5,725.616 468.467,725.399 L 468.014,722.404 C 467.972,722.128 468.03,722.11 468.305,722.069 L 469.994,721.814 C 470.554,721.73 470.796,721.804 471.014,722.183 C 471.178,722.47 471.177,722.862 471.403,722.828 C 471.531,722.808 471.56,722.733 471.536,722.576 C 471.513,722.419 471.412,722.022 471.313,721.365 C 471.189,720.549 471.159,720.082 471.145,719.993 C 471.126,719.866 471.07,719.825 470.951,719.842 C 470.735,719.875 470.849,720.159 470.67,720.437 C 470.489,720.705 470.227,720.765 469.834,720.824 L 465.699,721.447 C 465.168,721.527 464.889,721.538 464.692,721.166 C 464.535,720.859 464.546,720.535 464.33,720.568 C 464.232,720.583 464.177,720.682 464.199,720.829 C 464.223,720.986 464.349,721.359 464.44,721.958 C 464.544,722.645 464.549,723.076 464.571,723.224 C 464.592,723.361 464.663,723.431 464.741,723.419 C 464.958,723.386 464.83,723.074 464.991,722.809 C 465.151,722.544 465.397,722.507 465.8,722.446 L 467.155,722.241 C 467.421,722.202 467.495,722.231 467.533,722.476"
           style="fill:#000000;fill-opacity:1;fill-rule:nonzero;stroke:none"
           id="path177" /><path
           d="M 467.857,731.359 C 467.359,731.558 467.093,731.643 466.816,731.326 C 466.593,731.062 466.526,730.735 466.323,730.817 C 466.222,730.857 466.218,730.956 466.277,731.103 C 466.318,731.204 466.516,731.564 466.782,732.228 C 467.358,733.666 467.717,734.721 467.972,735.357 C 468.027,735.496 468.068,735.49 468.243,735.42 C 468.298,735.398 468.359,735.362 468.424,735.337 C 468.765,735.2 469.071,735.163 469.274,735.082 C 469.44,735.015 469.495,734.94 469.458,734.847 C 469.392,734.682 469.18,734.82 468.846,734.815 C 468.231,734.804 468.021,734.385 467.678,733.528 C 467.423,732.891 467.363,732.637 467.787,732.467 L 469.429,731.81 C 469.76,731.677 469.816,731.709 469.941,732.022 L 470.141,732.52 C 470.326,732.981 470.382,733.28 470.162,733.56 C 469.972,733.808 469.724,733.907 469.786,734.064 C 469.812,734.128 469.914,734.141 470.07,734.079 C 470.218,734.019 470.47,733.876 470.858,733.72 C 471.328,733.532 471.642,733.46 471.752,733.416 C 471.909,733.353 471.97,733.265 471.933,733.172 C 471.87,733.016 471.704,733.135 471.346,733.15 C 470.894,733.171 470.778,732.961 470.56,732.417 L 470.331,731.845 C 470.209,731.54 470.314,731.456 470.618,731.334 L 472.112,730.736 C 472.831,730.448 473.032,730.496 473.302,731.169 C 473.683,732.119 473.674,732.925 473.335,733.467 C 473.149,733.777 472.948,733.889 472.996,734.01 C 473.015,734.056 473.088,734.08 473.18,734.043 C 473.374,733.965 473.748,733.697 474.025,733.32 C 474.371,732.849 474.354,732.46 474.125,731.888 C 473.978,731.519 473.664,730.949 473.342,730.147 C 472.991,729.272 472.858,728.779 472.828,728.705 C 472.78,728.585 472.712,728.548 472.601,728.593 C 472.398,728.674 472.577,728.934 472.467,729.245 C 472.353,729.548 472.107,729.657 471.739,729.804 L 467.857,731.359"
           style="fill:#000000;fill-opacity:1;fill-rule:nonzero;stroke:none"
           id="path179" /><path
           d="M 477.009,738.031 C 476.846,738.096 476.717,738.221 476.567,738.289 C 476.097,738.493 475.753,738.65 475.558,738.803 C 475.448,738.889 475.427,739.007 475.488,739.085 C 475.605,739.233 475.826,738.984 476.219,738.89 C 477.144,738.669 477.884,738.872 478.332,739.443 C 478.871,740.13 478.771,740.967 478.184,741.427 C 477.575,741.905 477.001,741.737 476.069,741.192 C 475.678,740.968 475.289,740.681 474.784,740.521 C 474.206,740.331 473.591,740.447 473.145,740.797 C 472.215,741.526 472.097,742.566 472.851,743.528 C 473.348,744.16 473.895,744.375 474.03,744.547 C 474.153,744.704 473.996,744.89 474.076,744.991 C 474.112,745.038 474.212,745.036 474.306,744.962 C 474.415,744.877 474.506,744.767 474.623,744.675 C 474.944,744.424 475.25,744.284 475.454,744.125 C 475.571,744.033 475.604,743.931 475.549,743.861 C 475.42,743.696 475.136,743.945 474.675,743.953 C 474.022,743.973 473.451,743.713 473.059,743.213 C 472.636,742.673 472.69,741.987 473.191,741.594 C 473.402,741.429 473.636,741.358 473.887,741.389 C 474.417,741.453 474.909,741.838 475.567,742.243 C 476.589,742.869 477.417,742.862 478.268,742.194 C 479.277,741.403 479.42,740.154 478.531,739.021 C 477.967,738.302 477.218,737.943 477.009,738.031"
           style="fill:#000000;fill-opacity:1;fill-rule:nonzero;stroke:none"
           id="path181" /><path
           d="M 480.11,745.781 C 480.683,745.095 481.11,744.585 481.714,744.403 C 482.304,744.223 482.909,744.367 483.466,744.831 C 483.931,745.22 484.182,745.663 484.252,746.199 C 484.352,747.008 483.901,747.627 483.169,748.505 L 481.883,750.044 C 481.52,750.479 481.294,750.704 480.916,750.66 C 480.56,750.622 480.302,750.264 480.149,750.447 C 480.086,750.523 480.109,750.62 480.231,750.722 C 480.352,750.823 480.627,750.975 480.978,751.268 C 481.321,751.555 481.518,751.784 481.617,751.867 C 481.716,751.95 481.814,751.941 481.852,751.895 C 481.973,751.75 481.711,751.583 481.714,751.301 C 481.712,751.04 481.968,750.672 482.42,750.13 L 483.495,748.842 C 484.113,748.102 484.559,747.505 484.666,746.804 C 484.805,745.847 484.451,744.969 483.628,744.281 C 482.88,743.657 482.188,743.401 481.465,743.523 C 480.667,743.658 480.104,744.223 479.404,745.062 L 477.819,746.96 C 477.475,747.372 477.274,747.489 476.867,747.356 C 476.584,747.262 476.401,747.031 476.267,747.192 C 476.204,747.268 476.234,747.371 476.348,747.466 C 476.448,747.549 476.806,747.771 477.347,748.223 C 477.843,748.637 478.088,748.932 478.172,749.002 C 478.279,749.091 478.378,749.097 478.429,749.036 C 478.556,748.883 478.285,748.696 478.23,748.468 C 478.168,748.17 478.398,747.832 478.856,747.284 L 480.11,745.781"
           style="fill:#000000;fill-opacity:1;fill-rule:nonzero;stroke:none"
           id="path183" /><path
           d="M 488.311,749.355 C 488.572,748.852 488.774,748.699 489.209,748.746 C 489.537,748.783 489.845,749.01 489.95,748.807 C 490.009,748.692 489.966,748.625 489.825,748.552 C 489.684,748.479 489.313,748.33 488.722,748.023 C 487.991,747.643 487.595,747.393 487.516,747.351 C 487.401,747.292 487.325,747.309 487.27,747.414 C 487.169,747.608 487.475,747.689 487.595,747.997 C 487.705,748.301 487.591,748.544 487.408,748.896 L 485.486,752.599 C 485.239,753.075 485.093,753.313 484.676,753.253 C 484.335,753.199 484.072,752.995 483.971,753.189 C 483.925,753.277 483.982,753.384 484.114,753.453 C 484.352,753.577 484.706,753.693 485.137,753.918 C 485.587,754.151 486.062,754.465 486.608,754.749 C 487.983,755.464 489.106,755.197 489.637,754.174 C 490.141,753.204 489.754,752.03 488.635,751.448 C 488.15,751.196 487.844,751.16 487.767,751.31 C 487.725,751.389 487.772,751.493 487.861,751.538 C 487.984,751.602 488.143,751.641 488.311,751.727 C 488.998,752.084 489.179,752.75 488.795,753.49 C 488.296,754.451 487.412,754.775 486.539,754.322 C 486.063,754.074 486.001,753.807 486.266,753.295 L 488.311,749.355"
           style="fill:#000000;fill-opacity:1;fill-rule:nonzero;stroke:none"
           id="path185" /><path
           d="M 494.634,754.417 C 495.686,754.71 496.065,755.166 495.812,756.076 C 495.531,757.08 494.758,757.525 493.802,757.258 C 493.314,757.122 493.191,756.933 493.309,756.512 L 493.844,754.588 C 493.942,754.234 494.137,754.278 494.634,754.417 M 494.555,752.033 C 494.707,751.488 494.874,751.297 495.308,751.253 C 495.637,751.221 495.984,751.38 496.046,751.16 C 496.08,751.035 496.024,750.979 495.871,750.936 C 495.728,750.896 495.324,750.824 494.674,750.643 C 493.89,750.424 493.451,750.26 493.365,750.236 C 493.23,750.199 493.157,750.24 493.131,750.336 C 493.072,750.546 493.404,750.577 493.574,750.852 C 493.746,751.126 493.683,751.387 493.577,751.77 L 492.461,755.78 C 492.317,756.297 492.225,756.55 491.806,756.577 C 491.461,756.594 491.161,756.449 491.102,756.659 C 491.076,756.755 491.153,756.849 491.296,756.889 C 491.574,756.966 491.929,757.024 492.359,757.144 C 492.904,757.297 493.46,757.523 494.053,757.689 C 495.488,758.089 496.441,757.664 496.737,756.602 C 496.95,755.836 496.689,755.217 495.924,754.632 C 496.441,754.405 496.945,753.782 497.726,753.011 C 498.305,752.45 498.662,752.168 498.997,752.262 C 499.14,752.302 499.224,752.407 499.291,752.426 C 499.349,752.442 499.41,752.408 499.426,752.35 C 499.479,752.159 499.22,751.829 498.723,751.69 C 498.158,751.533 497.628,751.735 497.018,752.297 C 496.161,753.079 495.67,753.768 495.225,754.035 C 495.051,754.141 494.833,754.111 494.498,754.018 C 494.153,753.922 494.052,753.841 494.132,753.555 L 494.555,752.033"
           style="fill:#000000;fill-opacity:1;fill-rule:nonzero;stroke:none"
           id="path187" /><path
           d="M 500.862,757.65 C 500.826,758.186 500.788,758.462 500.382,758.574 C 500.048,758.661 499.725,758.579 499.71,758.798 C 499.703,758.907 499.789,758.952 499.948,758.963 C 500.057,758.97 500.467,758.948 501.18,758.997 C 502.726,759.101 503.831,759.235 504.515,759.282 C 504.664,759.292 504.676,759.253 504.689,759.065 C 504.693,759.005 504.687,758.935 504.692,758.865 C 504.717,758.499 504.816,758.206 504.831,757.988 C 504.842,757.81 504.798,757.728 504.699,757.721 C 504.521,757.709 504.554,757.96 504.404,758.258 C 504.129,758.808 503.661,758.816 502.739,758.753 C 502.055,758.707 501.8,758.65 501.831,758.194 L 501.949,756.43 C 501.973,756.073 502.025,756.036 502.362,756.059 L 502.897,756.095 C 503.392,756.129 503.685,756.208 503.843,756.528 C 503.984,756.806 503.966,757.074 504.134,757.085 C 504.204,757.09 504.259,757.004 504.271,756.835 C 504.281,756.677 504.261,756.387 504.289,755.97 C 504.322,755.465 504.393,755.151 504.401,755.032 C 504.412,754.864 504.359,754.77 504.26,754.763 C 504.091,754.752 504.128,754.954 503.986,755.283 C 503.809,755.699 503.57,755.712 502.985,755.673 L 502.37,755.632 C 502.043,755.609 502.013,755.478 502.034,755.151 L 502.142,753.545 C 502.194,752.772 502.323,752.611 503.047,752.66 C 504.068,752.729 504.79,753.086 505.132,753.627 C 505.331,753.93 505.346,754.16 505.474,754.169 C 505.524,754.172 505.577,754.115 505.584,754.016 C 505.598,753.808 505.519,753.355 505.297,752.941 C 505.023,752.425 504.665,752.271 504.051,752.23 C 503.654,752.203 503.005,752.239 502.143,752.181 C 501.202,752.117 500.701,752.023 500.621,752.018 C 500.493,752.009 500.43,752.055 500.422,752.174 C 500.408,752.392 500.719,752.343 500.953,752.578 C 501.176,752.813 501.168,753.081 501.141,753.477 L 500.862,757.65"
           style="fill:#000000;fill-opacity:1;fill-rule:nonzero;stroke:none"
           id="path189" /><path
           d="M 508.805,756.291 C 508.859,756.534 508.898,756.748 508.934,756.954 C 509.039,757.531 509.08,757.928 509.072,758.111 C 509.07,758.434 509.025,758.573 508.76,758.782 C 508.459,759.018 508.032,759.004 508.075,759.239 C 508.093,759.336 508.193,759.389 508.339,759.363 C 508.525,759.329 508.855,759.199 509.363,759.108 C 509.646,759.057 509.849,759.062 509.946,759.044 C 510.024,759.03 510.038,758.937 510.086,758.756 L 511.407,753.482 C 511.43,753.387 511.461,753.331 511.509,753.322 C 511.558,753.314 511.625,753.352 511.681,753.433 L 515.028,757.961 C 515.109,758.077 515.173,758.096 515.291,758.075 C 515.379,758.059 515.475,758.032 515.582,758.013 C 515.992,757.939 516.264,757.931 516.39,757.908 C 516.527,757.883 516.587,757.822 516.571,757.734 C 516.527,757.49 516.157,757.677 515.866,757.518 C 515.654,757.404 515.564,757.188 515.499,756.826 C 515.495,756.797 515.487,756.758 515.48,756.719 L 514.875,752.517 C 514.794,751.955 514.814,751.73 515.205,751.488 C 515.486,751.316 515.878,751.307 515.837,751.082 C 515.814,750.955 515.739,750.928 515.583,750.956 C 515.426,750.984 515.032,751.095 514.407,751.207 C 513.635,751.346 513.208,751.382 513.11,751.399 C 512.983,751.422 512.933,751.481 512.954,751.599 C 512.989,751.794 513.294,751.75 513.487,751.867 C 513.691,751.992 513.79,752.206 513.85,752.539 C 513.861,752.597 513.869,752.646 513.88,752.705 L 514.325,755.795 C 514.354,756.012 514.355,756.133 514.268,756.149 C 514.229,756.156 514.133,756.072 514.012,755.902 L 511.196,752.086 C 511.101,751.951 511.028,751.884 510.931,751.901 C 510.833,751.919 510.8,752.016 510.758,752.175 L 509.601,756.844 C 509.58,756.949 509.539,757.007 509.49,757.016 C 509.451,757.023 509.377,756.945 509.337,756.781 L 508.813,754.32 C 508.772,754.146 508.743,753.98 508.716,753.833 C 508.619,753.295 508.615,752.933 508.832,752.682 C 509.066,752.418 509.445,752.451 509.4,752.196 C 509.382,752.099 509.297,752.073 509.15,752.1 C 508.965,752.133 508.651,752.24 508.182,752.324 C 507.791,752.394 507.491,752.407 507.305,752.441 C 507.178,752.463 507.128,752.523 507.147,752.631 C 507.186,752.846 507.51,752.737 507.762,752.904 C 508.037,753.087 508.217,753.64 508.429,754.592 L 508.805,756.291"
           style="fill:#000000;fill-opacity:1;fill-rule:nonzero;stroke:none"
           id="path191" /><path
           d="M 519.989,755.07 C 520.21,755.559 520.307,755.82 520.003,756.111 C 519.749,756.346 519.426,756.426 519.516,756.625 C 519.562,756.725 519.659,756.724 519.804,756.659 C 519.904,756.614 520.254,756.401 520.905,756.106 C 522.316,755.467 523.354,755.063 523.977,754.781 C 524.113,754.719 524.106,754.679 524.028,754.507 C 524.003,754.453 523.966,754.393 523.937,754.33 C 523.785,753.995 523.734,753.691 523.644,753.492 C 523.57,753.329 523.492,753.277 523.402,753.318 C 523.239,753.391 523.387,753.597 523.397,753.931 C 523.413,754.545 523.004,754.774 522.163,755.155 C 521.54,755.437 521.288,755.507 521.099,755.091 L 520.369,753.48 C 520.221,753.154 520.25,753.097 520.557,752.958 L 521.046,752.737 C 521.498,752.532 521.794,752.463 522.084,752.671 C 522.34,752.849 522.45,753.094 522.604,753.025 C 522.667,752.996 522.676,752.894 522.606,752.74 C 522.54,752.595 522.385,752.349 522.213,751.969 C 522.004,751.507 521.918,751.197 521.868,751.088 C 521.799,750.934 521.707,750.877 521.617,750.918 C 521.463,750.988 521.591,751.148 521.621,751.505 C 521.662,751.956 521.457,752.081 520.924,752.323 L 520.363,752.577 C 520.064,752.712 519.975,752.611 519.84,752.312 L 519.175,750.846 C 518.855,750.139 518.894,749.936 519.554,749.637 C 520.486,749.216 521.291,749.19 521.848,749.504 C 522.166,749.677 522.288,749.873 522.406,749.82 C 522.451,749.799 522.471,749.724 522.43,749.634 C 522.344,749.444 522.06,749.082 521.67,748.821 C 521.184,748.496 520.796,748.53 520.236,748.784 C 519.874,748.947 519.319,749.286 518.532,749.642 C 517.672,750.031 517.187,750.186 517.114,750.219 C 516.997,750.271 516.963,750.342 517.012,750.45 C 517.103,750.649 517.354,750.459 517.67,750.556 C 517.978,750.656 518.098,750.897 518.262,751.259 L 519.989,755.07"
           style="fill:#000000;fill-opacity:1;fill-rule:nonzero;stroke:none"
           id="path193" /><path
           d="M 530.53,742.813 C 531.086,742.807 531.366,742.97 531.491,742.857 C 531.543,742.81 531.533,742.726 531.466,742.652 C 531.353,742.526 531.05,742.411 530.587,742.387 C 529.633,742.336 528.737,742.662 527.999,743.326 C 526.524,744.655 526.445,746.585 527.849,748.143 C 528.627,749.008 529.622,749.489 530.689,749.517 C 531.497,749.539 532.279,749.236 532.95,748.631 C 533.26,748.352 533.532,747.987 533.744,747.569 C 533.886,747.281 533.94,747.045 534.072,746.925 C 534.235,746.779 534.503,747.032 534.621,746.926 C 534.791,746.773 534.579,746.643 534.292,746.233 C 533.957,745.758 533.807,745.385 533.668,745.229 C 533.581,745.134 533.477,745.121 533.403,745.188 C 533.299,745.281 533.397,745.433 533.448,745.668 C 533.679,746.799 533.39,747.74 532.608,748.444 C 531.635,749.322 530.146,749.137 528.982,747.845 C 527.612,746.323 527.558,744.512 528.701,743.483 C 529.203,743.032 529.79,742.823 530.53,742.813"
           style="fill:#000000;fill-opacity:1;fill-rule:nonzero;stroke:none"
           id="path195" /><path
           d="M 537.5,736.795 C 538.367,737.376 538.977,738.144 539.279,739.015 C 539.532,739.746 539.447,740.442 539.017,741.086 C 538.21,742.29 536.815,742.479 535.371,741.511 C 534.438,740.886 533.814,740.121 533.474,739.164 C 533.257,738.54 533.35,737.813 533.759,737.203 C 534.57,735.99 536.023,735.804 537.5,736.795 M 540.032,738.372 C 539.852,737.499 539.311,736.717 538.477,736.159 C 537.676,735.622 536.753,735.41 535.902,735.52 C 534.841,735.658 533.964,736.217 533.384,737.084 C 532.782,737.983 532.576,738.968 532.762,739.87 C 532.948,740.735 533.503,741.549 534.337,742.108 C 534.964,742.529 535.675,742.754 536.413,742.759 C 537.653,742.765 538.709,742.206 539.416,741.15 C 540.024,740.243 540.234,739.321 540.032,738.372"
           style="fill:#000000;fill-opacity:1;fill-rule:nonzero;stroke:none"
           id="path197" /><path
           d="M 539.661,732.639 C 538.821,732.332 538.195,732.105 537.819,731.598 C 537.448,731.104 537.377,730.486 537.624,729.805 C 537.831,729.235 538.162,728.849 538.642,728.601 C 539.369,728.232 540.105,728.447 541.179,728.838 L 543.065,729.525 C 543.598,729.718 543.886,729.855 543.974,730.225 C 544.059,730.573 543.81,730.937 544.034,731.018 C 544.128,731.053 544.211,730.998 544.265,730.849 C 544.319,730.7 544.369,730.39 544.525,729.961 C 544.677,729.54 544.826,729.278 544.87,729.157 C 544.914,729.035 544.872,728.946 544.816,728.926 C 544.639,728.861 544.571,729.164 544.304,729.257 C 544.06,729.347 543.626,729.232 542.963,728.991 L 541.385,728.416 C 540.479,728.086 539.766,727.869 539.07,728.007 C 538.122,728.2 537.417,728.831 537.051,729.839 C 536.719,730.754 536.715,731.492 537.075,732.13 C 537.474,732.836 538.198,733.173 539.225,733.547 L 541.55,734.394 C 542.055,734.577 542.232,734.727 542.246,735.155 C 542.254,735.453 542.1,735.703 542.295,735.774 C 542.389,735.808 542.475,735.745 542.527,735.605 C 542.57,735.483 542.657,735.071 542.898,734.409 C 543.118,733.802 543.312,733.471 543.35,733.368 C 543.398,733.238 543.368,733.143 543.293,733.116 C 543.106,733.048 543.023,733.366 542.827,733.496 C 542.569,733.655 542.172,733.553 541.5,733.308 L 539.661,732.639"
           style="fill:#000000;fill-opacity:1;fill-rule:nonzero;stroke:none"
           id="path199" /><path
           d="M 542.546,723.521 C 542.682,722.437 543.078,721.997 544.014,722.115 C 545.05,722.246 545.602,722.946 545.478,723.931 C 545.415,724.434 545.246,724.583 544.813,724.528 L 542.831,724.278 C 542.467,724.231 542.482,724.033 542.546,723.521 M 540.2,723.945 C 539.638,723.874 539.424,723.738 539.318,723.313 C 539.238,722.993 539.344,722.626 539.117,722.597 C 538.989,722.581 538.941,722.645 538.921,722.803 C 538.902,722.951 538.891,723.36 538.807,724.03 C 538.706,724.838 538.608,725.296 538.597,725.384 C 538.579,725.522 538.631,725.589 538.73,725.601 C 538.947,725.629 538.929,725.296 539.175,725.087 C 539.422,724.878 539.689,724.902 540.083,724.952 L 544.213,725.473 C 544.745,725.54 545.009,725.594 545.097,726.005 C 545.165,726.344 545.065,726.662 545.282,726.689 C 545.381,726.702 545.462,726.612 545.481,726.465 C 545.516,726.179 545.522,725.819 545.577,725.375 C 545.648,724.814 545.791,724.231 545.868,723.62 C 546.053,722.142 545.493,721.261 544.399,721.123 C 543.611,721.023 543.036,721.371 542.57,722.213 C 542.269,721.735 541.58,721.327 540.702,720.666 C 540.063,720.174 539.731,719.862 539.775,719.517 C 539.793,719.369 539.885,719.271 539.894,719.202 C 539.901,719.143 539.858,719.088 539.799,719.08 C 539.602,719.055 539.313,719.359 539.249,719.871 C 539.176,720.452 539.454,720.949 540.1,721.47 C 540.999,722.205 541.751,722.59 542.081,722.992 C 542.212,723.148 542.214,723.369 542.171,723.714 C 542.126,724.069 542.062,724.18 541.767,724.143 L 540.2,723.945"
           style="fill:#000000;fill-opacity:1;fill-rule:nonzero;stroke:none"
           id="path201" /><path
           d="M 545.206,715.482 C 545.492,715.459 545.593,715.58 545.618,715.886 C 545.619,715.897 545.62,715.917 545.622,715.936 L 545.661,716.651 C 545.707,717.324 545.586,717.544 545.118,717.791 C 544.821,717.945 544.552,717.948 544.57,718.156 C 544.575,718.225 544.659,718.278 544.768,718.269 C 544.927,718.256 545.091,718.192 545.287,718.156 L 546.053,718.014 C 546.26,717.977 546.324,717.922 546.304,717.674 C 546.29,717.506 546.182,717.047 546.117,716.264 L 545.896,713.592 C 545.836,712.859 545.852,712.33 545.826,712.024 C 545.809,711.815 545.776,711.778 545.576,711.774 C 544.859,711.774 544.49,711.774 544.479,711.775 C 544.361,711.785 544.306,711.849 544.315,711.948 C 544.331,712.146 544.674,712.078 544.924,712.207 C 545.237,712.37 545.332,712.681 545.375,713.206 L 545.446,714.058 C 545.471,714.354 545.386,714.421 545.109,714.444 L 540.436,714.828 C 539.912,714.871 539.667,714.811 539.465,714.409 C 539.286,714.055 539.383,713.669 539.126,713.69 C 539.007,713.7 538.945,713.794 538.959,713.962 C 538.977,714.18 539.081,714.59 539.132,715.204 C 539.206,716.105 539.185,716.685 539.204,716.922 C 539.216,717.071 539.272,717.136 539.391,717.126 C 539.638,717.106 539.543,716.795 539.613,716.45 C 539.69,716.055 539.958,715.913 540.523,715.867 L 545.206,715.482"
           style="fill:#000000;fill-opacity:1;fill-rule:nonzero;stroke:none"
           id="path203" /><path
           d="M 461.871,717.881 C 461.871,741.801 481.331,761.262 505.252,761.262 C 529.172,761.262 548.634,741.801 548.634,717.881 C 548.634,693.96 529.172,674.499 505.252,674.499 C 481.331,674.499 461.871,693.96 461.871,717.881 M 461.093,717.881 C 461.093,693.531 480.902,673.721 505.252,673.721 C 529.602,673.721 549.412,693.531 549.412,717.881 C 549.412,742.23 529.602,762.04 505.252,762.04 C 480.902,762.04 461.093,742.23 461.093,717.881"
           style="fill:#000000;fill-opacity:1;fill-rule:nonzero;stroke:none"
           id="path205" /></g></g></g></svg>